Oxygen-Italic.ufo
<glyph name="exclam" format="1">
  <advance width="554"/>
  <unicode hex="0021"/>
  <outline>
    <contour>
      <point x="586" y="1496" type="line" smooth="no"/>
      <point x="566" y="1354" type="line" smooth="no"/>
      <point x="383" y="435" type="line" smooth="no"/>
      <point x="307" y="435" type="line" smooth="no"/>
      <point x="377" y="1354" type="line" smooth="no"/>
      <point x="396" y="1496" type="line" smooth="no"/>
    </contour>
    <contour>
      <point x="169" y="100" type="curve" smooth="yes"/>
      <point x="169" y="180"/>
      <point x="228" y="252"/>
      <point x="317" y="252" type="curve" smooth="yes"/>
      <point x="393" y="252"/>
      <point x="427" y="199"/>
      <point x="427" y="141" type="curve" smooth="yes"/>
      <point x="427" y="61"/>
      <point x="370" y="-12"/>
      <point x="280" y="-12" type="curve" smooth="yes"/>
      <point x="205" y="-12"/>
      <point x="169" y="41"/>
    </contour>
  </outline>
</glyph>
<glyph name="quotedbl" format="1">
  <advance width="674"/>
  <unicode hex="0022"/>
  <outline>
    <contour>
      <point x="296" y="1016" type="line" smooth="no"/>
      <point x="346" y="1510" type="line" smooth="no"/>
      <point x="491" y="1510" type="line" smooth="no"/>
      <point x="393" y="1016" type="line" smooth="no"/>
    </contour>
    <contour>
      <point x="571" y="1016" type="line" smooth="no"/>
      <point x="620" y="1510" type="line" smooth="no"/>
      <point x="765" y="1510" type="line" smooth="no"/>
      <point x="668" y="1016" type="line" smooth="no"/>
    </contour>
  </outline>
</glyph>
<glyph name="numbersign" format="1">
  <advance width="1070"/>
  <unicode hex="0023"/>
  <outline>
    <contour>
      <point x="830" y="931" type="line" smooth="no"/>
      <point x="606" y="931" type="line" smooth="no"/>
      <point x="474" y="536" type="line" smooth="no"/>
      <point x="700" y="536" type="line" smooth="no"/>
    </contour>
    <contour>
      <point x="1126" y="1055" type="line" smooth="no"/>
      <point x="1095" y="931" type="line" smooth="no"/>
      <point x="956" y="931" type="line" smooth="no"/>
      <point x="837" y="536" type="line" smooth="no"/>
      <point x="977" y="536" type="line" smooth="no"/>
      <point x="950" y="410" type="line" smooth="no"/>
      <point x="803" y="410" type="line" smooth="no"/>
      <point x="662" y="-23" type="line" smooth="no"/>
      <point x="517" y="-23" type="line" smooth="no"/>
      <point x="658" y="410" type="line" smooth="no"/>
      <point x="434" y="410" type="line" smooth="no"/>
      <point x="299" y="-23" type="line" smooth="no"/>
      <point x="175" y="-23" type="line" smooth="no"/>
      <point x="306" y="410" type="line" smooth="no"/>
      <point x="145" y="410" type="line" smooth="no"/>
      <point x="172" y="536" type="line" smooth="no"/>
      <point x="345" y="536" type="line" smooth="no"/>
      <point x="458" y="930" type="line" smooth="no"/>
      <point x="290" y="930" type="line" smooth="no"/>
      <point x="316" y="1055" type="line" smooth="no"/>
      <point x="499" y="1055" type="line" smooth="no"/>
      <point x="633" y="1462" type="line" smooth="no"/>
      <point x="780" y="1462" type="line" smooth="no"/>
      <point x="647" y="1055" type="line" smooth="no"/>
      <point x="870" y="1055" type="line" smooth="no"/>
      <point x="993" y="1462" type="line" smooth="no"/>
      <point x="1116" y="1462" type="line" smooth="no"/>
      <point x="996" y="1055" type="line" smooth="no"/>
    </contour>
  </outline>
</glyph>
<glyph name="dollar" format="1">
  <advance width="1241"/>
  <unicode hex="0024"/>
  <outline>
    <contour>
      <point x="650" y="131" type="line" smooth="no"/>
      <point x="840" y="141"/>
      <point x="970" y="255"/>
      <point x="970" y="477" type="curve" smooth="yes"/>
      <point x="970" y="569"/>
      <point x="924" y="634"/>
      <point x="778" y="675" type="curve" smooth="yes"/>
      <point x="728" y="689" type="line" smooth="no"/>
    </contour>
    <contour>
      <point x="733" y="1370" type="line" smooth="no"/>
      <point x="542" y="1355"/>
      <point x="420" y="1268"/>
      <point x="420" y="1087" type="curve" smooth="yes"/>
      <point x="420" y="991"/>
      <point x="483" y="937"/>
      <point x="600" y="906" type="curve" smooth="yes"/>
      <point x="665" y="889" type="line" smooth="no"/>
    </contour>
    <contour>
      <point x="778" y="1693" type="line" smooth="no"/>
      <point x="869" y="1693" type="line" smooth="no"/>
      <point x="845" y="1525" type="line" smooth="no"/>
      <point x="1006" y="1521"/>
      <point x="1141" y="1479"/>
      <point x="1224" y="1418" type="curve" smooth="no"/>
      <point x="1156" y="1277" type="line" smooth="no"/>
      <point x="1092" y="1318"/>
      <point x="964" y="1365"/>
      <point x="824" y="1371" type="curve" smooth="no"/>
      <point x="753" y="865" type="line" smooth="no"/>
      <point x="854" y="838" type="line" smooth="yes"/>
      <point x="1033" y="790"/>
      <point x="1145" y="700"/>
      <point x="1145" y="511" type="curve" smooth="yes"/>
      <point x="1145" y="165"/>
      <point x="913" y="-8"/>
      <point x="628" y="-22" type="curve" smooth="no"/>
      <point x="604" y="-195" type="line" smooth="no"/>
      <point x="513" y="-195" type="line" smooth="no"/>
      <point x="537" y="-22" type="line" smooth="no"/>
      <point x="322" y="-13"/>
      <point x="176" y="48"/>
      <point x="104" y="100" type="curve" smooth="no"/>
      <point x="174" y="244" type="line" smooth="no"/>
      <point x="276" y="186"/>
      <point x="407" y="142"/>
      <point x="559" y="132" type="curve" smooth="no"/>
      <point x="641" y="713" type="line" smooth="no"/>
      <point x="513" y="749" type="line" smooth="yes"/>
      <point x="347" y="795"/>
      <point x="244" y="888"/>
      <point x="244" y="1049" type="curve" smooth="yes"/>
      <point x="244" y="1361"/>
      <point x="468" y="1505"/>
      <point x="754" y="1523" type="curve" smooth="no"/>
    </contour>
  </outline>
</glyph>
<glyph name="percent" format="1">
  <advance width="1762"/>
  <unicode hex="0025"/>
  <outline>
    <contour>
      <point x="516" y="844" type="curve" smooth="yes"/>
      <point x="650" y="844"/>
      <point x="735" y="1002"/>
      <point x="735" y="1172" type="curve" smooth="yes"/>
      <point x="735" y="1288"/>
      <point x="688" y="1378"/>
      <point x="591" y="1378" type="curve" smooth="yes"/>
      <point x="458" y="1378"/>
      <point x="371" y="1206"/>
      <point x="371" y="1037" type="curve" smooth="yes"/>
      <point x="371" y="924"/>
      <point x="418" y="844"/>
    </contour>
    <contour>
      <point x="379" y="-4" type="line" smooth="no"/>
      <point x="1332" y="1462" type="line" smooth="no"/>
      <point x="1483" y="1462" type="line" smooth="no"/>
      <point x="505" y="-4" type="line" smooth="no"/>
    </contour>
    <contour>
      <point x="248" y="1025" type="curve" smooth="yes"/>
      <point x="248" y="1283"/>
      <point x="406" y="1489"/>
      <point x="607" y="1489" type="curve" smooth="yes"/>
      <point x="768" y="1489"/>
      <point x="860" y="1364"/>
      <point x="860" y="1185" type="curve" smooth="yes"/>
      <point x="860" y="927"/>
      <point x="704" y="728"/>
      <point x="500" y="728" type="curve" smooth="yes"/>
      <point x="338" y="728"/>
      <point x="248" y="850"/>
    </contour>
    <contour>
      <point x="1359" y="98" type="curve" smooth="yes"/>
      <point x="1513" y="98"/>
      <point x="1611" y="256"/>
      <point x="1611" y="428" type="curve" smooth="yes"/>
      <point x="1611" y="547"/>
      <point x="1554" y="640"/>
      <point x="1435" y="640" type="curve" smooth="yes"/>
      <point x="1281" y="640"/>
      <point x="1183" y="482"/>
      <point x="1183" y="310" type="curve" smooth="yes"/>
      <point x="1183" y="191"/>
      <point x="1240" y="98"/>
    </contour>
    <contour>
      <point x="1060" y="291" type="curve" smooth="yes"/>
      <point x="1060" y="553"/>
      <point x="1219" y="754"/>
      <point x="1451" y="754" type="curve" smooth="yes"/>
      <point x="1641" y="754"/>
      <point x="1735" y="629"/>
      <point x="1735" y="450" type="curve" smooth="yes"/>
      <point x="1735" y="188"/>
      <point x="1578" y="-15"/>
      <point x="1343" y="-15" type="curve" smooth="yes"/>
      <point x="1153" y="-15"/>
      <point x="1060" y="114"/>
    </contour>
  </outline>
</glyph>
<glyph name="ampersand" format="1">
  <advance width="1391"/>
  <unicode hex="0026"/>
  <outline>
    <contour>
      <point x="816" y="1345" type="curve" smooth="yes"/>
      <point x="694" y="1345"/>
      <point x="599" y="1268"/>
      <point x="599" y="1131" type="curve" smooth="yes"/>
      <point x="599" y="1049"/>
      <point x="642" y="985"/>
      <point x="704" y="910" type="curve" smooth="no"/>
      <point x="840" y="977"/>
      <point x="958" y="1043"/>
      <point x="976" y="1171" type="curve" smooth="yes"/>
      <point x="977" y="1181"/>
      <point x="978" y="1191"/>
      <point x="978" y="1200" type="curve" smooth="yes"/>
      <point x="978" y="1296"/>
      <point x="905" y="1345"/>
    </contour>
    <contour>
      <point x="622" y="726" type="curve" smooth="no"/>
      <point x="467" y="649"/>
      <point x="348" y="554"/>
      <point x="327" y="406" type="curve" smooth="yes"/>
      <point x="325" y="390"/>
      <point x="324" y="375"/>
      <point x="324" y="360" type="curve" smooth="yes"/>
      <point x="324" y="217"/>
      <point x="429" y="132"/>
      <point x="616" y="132" type="curve" smooth="yes"/>
      <point x="751" y="132"/>
      <point x="868" y="182"/>
      <point x="970" y="259" type="curve" smooth="no"/>
      <point x="852" y="418"/>
      <point x="740" y="567"/>
    </contour>
    <contour>
      <point x="541" y="839" type="curve" smooth="no"/>
      <point x="469" y="937"/>
      <point x="418" y="1013"/>
      <point x="418" y="1117" type="curve" smooth="yes"/>
      <point x="418" y="1132"/>
      <point x="419" y="1148"/>
      <point x="421" y="1165" type="curve" smooth="yes"/>
      <point x="449" y="1365"/>
      <point x="611" y="1489"/>
      <point x="834" y="1489" type="curve" smooth="yes"/>
      <point x="1012" y="1489"/>
      <point x="1161" y="1404"/>
      <point x="1161" y="1229" type="curve" smooth="yes"/>
      <point x="1161" y="1214"/>
      <point x="1160" y="1198"/>
      <point x="1158" y="1182" type="curve" smooth="yes"/>
      <point x="1133" y="1006"/>
      <point x="975" y="892"/>
      <point x="784" y="804" type="curve" smooth="no"/>
      <point x="1102" y="375" type="line" smooth="no"/>
      <point x="1163" y="435"/>
      <point x="1221" y="518"/>
      <point x="1266" y="599" type="curve" smooth="no"/>
      <point x="1366" y="507" type="line" smooth="no"/>
      <point x="1316" y="419"/>
      <point x="1253" y="332"/>
      <point x="1183" y="257" type="curve" smooth="no"/>
      <point x="1321" y="41" type="line" smooth="no"/>
      <point x="1271" y="22"/>
      <point x="1217" y="4"/>
      <point x="1167" y="-11" type="curve" smooth="no"/>
      <point x="1062" y="143" type="line" smooth="no"/>
      <point x="931" y="43"/>
      <point x="774" y="-23"/>
      <point x="585" y="-23" type="curve" smooth="yes"/>
      <point x="293" y="-23"/>
      <point x="150" y="107"/>
      <point x="150" y="320" type="curve" smooth="yes"/>
      <point x="150" y="344"/>
      <point x="151" y="369"/>
      <point x="155" y="395" type="curve" smooth="yes"/>
      <point x="185" y="612"/>
      <point x="335" y="738"/>
    </contour>
  </outline>
</glyph>
<glyph name="quotesingle" format="1">
  <advance width="371"/>
  <unicode hex="0027"/>
  <outline>
    <contour>
      <point x="381" y="1016" type="line" smooth="no"/>
      <point x="280" y="1016" type="line" smooth="no"/>
      <point x="329" y="1510" type="line" smooth="no"/>
      <point x="478" y="1510" type="line" smooth="no"/>
    </contour>
  </outline>
</glyph>
<glyph name="parenright" format="1">
  <advance width="574"/>
  <unicode hex="0029"/>
  <outline>
    <contour>
      <point x="193" y="-218" type="curve" smooth="no"/>
      <point x="59" y="-218" type="line" smooth="no"/>
      <point x="224" y="33"/>
      <point x="352" y="356"/>
      <point x="392" y="642" type="curve" smooth="yes"/>
      <point x="404" y="728"/>
      <point x="410" y="813"/>
      <point x="410" y="896" type="curve" smooth="yes"/>
      <point x="410" y="1112"/>
      <point x="371" y="1317"/>
      <point x="301" y="1510" type="curve" smooth="no"/>
      <point x="439" y="1510" type="line" smooth="no"/>
      <point x="516" y="1305"/>
      <point x="567" y="1091"/>
      <point x="567" y="860" type="curve" smooth="yes"/>
      <point x="567" y="787"/>
      <point x="562" y="713"/>
      <point x="551" y="636" type="curve" smooth="yes"/>
      <point x="508" y="329"/>
      <point x="360" y="24"/>
    </contour>
  </outline>
</glyph>
<glyph name="asterisk" format="1">
  <advance width="1006"/>
  <unicode hex="002a"/>
  <outline>
    <contour>
      <point x="782" y="1489" type="line" smooth="no"/>
      <point x="703" y="1076" type="line" smooth="no"/>
      <point x="1034" y="1250" type="line" smooth="no"/>
      <point x="1081" y="1133" type="line" smooth="no"/>
      <point x="729" y="1001" type="line" smooth="yes"/>
      <point x="728" y="1001"/>
      <point x="931" y="670"/>
      <point x="931" y="670" type="curve" smooth="no"/>
      <point x="801" y="596" type="line" smooth="no"/>
      <point x="631" y="955" type="line" smooth="no"/>
      <point x="366" y="597" type="line" smooth="no"/>
      <point x="261" y="677" type="line" smooth="no"/>
      <point x="548" y="1005" type="line" smooth="no"/>
      <point x="239" y="1133" type="line" smooth="no"/>
      <point x="304" y="1251" type="line" smooth="no"/>
      <point x="604" y="1076" type="line" smooth="no"/>
      <point x="631" y="1489" type="line" smooth="no"/>
    </contour>
  </outline>
</glyph>
<glyph name="plus" format="1">
  <advance width="1006"/>
  <unicode hex="002b"/>
  <outline>
    <contour>
      <point x="188" y="646" type="line" smooth="no"/>
      <point x="547" y="646" type="line" smooth="no"/>
      <point x="606" y="1065" type="line" smooth="no"/>
      <point x="730" y="1065" type="line" smooth="no"/>
      <point x="671" y="646" type="line" smooth="no"/>
      <point x="1014" y="646" type="line" smooth="no"/>
      <point x="995" y="512" type="line" smooth="no"/>
      <point x="651" y="512" type="line" smooth="no"/>
      <point x="590" y="80" type="line" smooth="no"/>
      <point x="464" y="80" type="line" smooth="no"/>
      <point x="525" y="512" type="line" smooth="no"/>
      <point x="169" y="512" type="line" smooth="no"/>
    </contour>
  </outline>
</glyph>
<glyph name="comma" format="1">
  <advance width="480"/>
  <unicode hex="002c"/>
  <outline>
    <contour>
      <point x="385" y="230" type="line" smooth="no"/>
      <point x="190" y="-292" type="line" smooth="no"/>
      <point x="89" y="-292" type="line" smooth="no"/>
      <point x="181" y="230" type="line" smooth="no"/>
    </contour>
  </outline>
</glyph>
<glyph name="slash" format="1">
  <advance width="885"/>
  <unicode hex="002f"/>
  <outline>
    <contour>
      <point x="151" y="-218" type="line" smooth="no"/>
      <point x="17" y="-218" type="line" smooth="no"/>
      <point x="883" y="1466" type="line" smooth="no"/>
      <point x="1018" y="1466" type="line" smooth="no"/>
    </contour>
  </outline>
</glyph>
<glyph name="one" format="1">
  <advance width="585"/>
  <unicode hex="0031"/>
  <outline>
    <contour>
      <point x="493" y="1496" type="curve" smooth="no"/>
      <point x="645" y="1496" type="line" smooth="no"/>
      <point x="435" y="0" type="line" smooth="no"/>
      <point x="265" y="0" type="line" smooth="no"/>
      <point x="449" y="1311" type="line" smooth="no"/>
      <point x="368" y="1259"/>
      <point x="274" y="1221"/>
      <point x="204" y="1198" type="curve" smooth="no"/>
      <point x="227" y="1365" type="line" smooth="no"/>
      <point x="315" y="1404"/>
      <point x="411" y="1440"/>
    </contour>
  </outline>
</glyph>
<glyph name="four" format="1">
  <advance width="1133"/>
  <unicode hex="0034"/>
  <outline>
    <contour>
      <point x="911" y="1269" type="line" smooth="no"/>
      <point x="340" y="516" type="line" smooth="no"/>
      <point x="805" y="516" type="line" smooth="no"/>
    </contour>
    <contour>
      <point x="1104" y="371" type="line" smooth="no"/>
      <point x="946" y="371" type="line" smooth="no"/>
      <point x="894" y="0" type="line" smooth="no"/>
      <point x="732" y="0" type="line" smooth="no"/>
      <point x="785" y="371" type="line" smooth="no"/>
      <point x="156" y="371" type="line" smooth="no"/>
      <point x="177" y="524" type="line" smooth="no"/>
      <point x="925" y="1496" type="line" smooth="no"/>
      <point x="1104" y="1496" type="line" smooth="no"/>
      <point x="966" y="516" type="line" smooth="no"/>
      <point x="1137" y="516" type="line" smooth="no"/>
    </contour>
  </outline>
</glyph>
<glyph name="six" format="1">
  <advance width="1133"/>
  <unicode hex="0036"/>
  <outline>
    <contour>
      <point x="589" y="129" type="curve" smooth="yes"/>
      <point x="798" y="129"/>
      <point x="936" y="297"/>
      <point x="936" y="507" type="curve" smooth="yes"/>
      <point x="936" y="660"/>
      <point x="847" y="771"/>
      <point x="679" y="771" type="curve" smooth="yes"/>
      <point x="470" y="771"/>
      <point x="368" y="625"/>
      <point x="344" y="453" type="curve" smooth="yes"/>
      <point x="341" y="432"/>
      <point x="340" y="412"/>
      <point x="340" y="392" type="curve" smooth="yes"/>
      <point x="340" y="246"/>
      <point x="418" y="129"/>
    </contour>
    <contour>
      <point x="734" y="921" type="curve" smooth="yes"/>
      <point x="951" y="921"/>
      <point x="1118" y="759"/>
      <point x="1118" y="523" type="curve" smooth="yes"/>
      <point x="1118" y="499"/>
      <point x="1117" y="475"/>
      <point x="1113" y="449" type="curve" smooth="yes"/>
      <point x="1075" y="182"/>
      <point x="863" y="-23"/>
      <point x="573" y="-23" type="curve" smooth="yes"/>
      <point x="302" y="-23"/>
      <point x="159" y="157"/>
      <point x="159" y="388" type="curve" smooth="yes"/>
      <point x="159" y="415"/>
      <point x="161" y="443"/>
      <point x="165" y="472" type="curve" smooth="yes"/>
      <point x="197" y="697"/>
      <point x="287" y="837"/>
      <point x="510" y="1089" type="curve" smooth="yes"/>
      <point x="605" y="1197"/>
      <point x="876" y="1489"/>
      <point x="876" y="1489" type="curve" smooth="no"/>
      <point x="1097" y="1489" type="line" smooth="no"/>
      <point x="513" y="861" type="line" smooth="no"/>
      <point x="578" y="895"/>
      <point x="658" y="921"/>
    </contour>
  </outline>
</glyph>
<glyph name="seven" format="1">
  <advance width="979"/>
  <unicode hex="0037"/>
  <outline>
    <contour>
      <point x="246" y="0" type="line" smooth="no"/>
      <point x="912" y="1341" type="line" smooth="no"/>
      <point x="284" y="1341" type="line" smooth="no"/>
      <point x="316" y="1496" type="line" smooth="no"/>
      <point x="1123" y="1496" type="line" smooth="no"/>
      <point x="1104" y="1360" type="line" smooth="no"/>
      <point x="415" y="0" type="line" smooth="no"/>
    </contour>
  </outline>
</glyph>
<glyph name="colon" format="1">
  <advance width="467"/>
  <unicode hex="003a"/>
  <outline>
    <contour>
      <point x="137" y="-25" type="line" smooth="no"/>
      <point x="169" y="208" type="line" smooth="no"/>
      <point x="367" y="208" type="line" smooth="no"/>
      <point x="334" y="-25" type="line" smooth="no"/>
    </contour>
    <contour>
      <point x="266" y="893" type="line" smooth="no"/>
      <point x="298" y="1124" type="line" smooth="no"/>
      <point x="496" y="1124" type="line" smooth="no"/>
      <point x="463" y="893" type="line" smooth="no"/>
    </contour>
  </outline>
</glyph>
<glyph name="semicolon" format="1">
  <advance width="489"/>
  <unicode hex="003b"/>
  <outline>
    <contour>
      <point x="388" y="197" type="line" smooth="no"/>
      <point x="196" y="-310" type="line" smooth="no"/>
      <point x="89" y="-310" type="line" smooth="no"/>
      <point x="213" y="197" type="line" smooth="no"/>
    </contour>
    <contour>
      <point x="291" y="893" type="line" smooth="no"/>
      <point x="324" y="1124" type="line" smooth="no"/>
      <point x="522" y="1124" type="line" smooth="no"/>
      <point x="489" y="893" type="line" smooth="no"/>
    </contour>
  </outline>
</glyph>
<glyph name="less" format="1">
  <advance width="1097"/>
  <unicode hex="003c"/>
  <outline>
    <contour>
      <point x="1128" y="982" type="line" smooth="no"/>
      <point x="360" y="596" type="line" smooth="no"/>
      <point x="1016" y="216" type="line" smooth="no"/>
      <point x="993" y="50" type="line" smooth="no"/>
      <point x="176" y="547" type="line" smooth="no"/>
      <point x="189" y="642" type="line" smooth="no"/>
      <point x="1151" y="1149" type="line" smooth="no"/>
    </contour>
  </outline>
</glyph>
<glyph name="equal" format="1">
  <advance width="1197"/>
  <unicode hex="003d"/>
  <outline>
    <contour>
      <point x="203" y="452" type="line" smooth="no"/>
      <point x="1134" y="452" type="line" smooth="no"/>
      <point x="1113" y="305" type="line" smooth="no"/>
      <point x="182" y="305" type="line" smooth="no"/>
    </contour>
    <contour>
      <point x="263" y="891" type="line" smooth="no"/>
      <point x="1195" y="891" type="line" smooth="no"/>
      <point x="1174" y="741" type="line" smooth="no"/>
      <point x="241" y="741" type="line" smooth="no"/>
    </contour>
  </outline>
</glyph>
<glyph name="at" format="1">
  <advance width="1675"/>
  <unicode hex="0040"/>
  <outline>
    <contour>
      <point x="830" y="442" type="curve" smooth="yes"/>
      <point x="996" y="442"/>
      <point x="1081" y="742"/>
      <point x="1162" y="998" type="curve" smooth="no"/>
      <point x="1139" y="1012"/>
      <point x="1075" y="1019"/>
      <point x="1039" y="1019" type="curve" smooth="yes"/>
      <point x="846" y="1019"/>
      <point x="753" y="810"/>
      <point x="726" y="621" type="curve" smooth="yes"/>
      <point x="724" y="605"/>
      <point x="723" y="590"/>
      <point x="723" y="576" type="curve" smooth="yes"/>
      <point x="723" y="494"/>
      <point x="759" y="442"/>
    </contour>
    <contour>
      <point x="1181" y="297" type="curve" smooth="yes"/>
      <point x="1088" y="297"/>
      <point x="1030" y="344"/>
      <point x="1031" y="455" type="curve" smooth="no"/>
      <point x="953" y="356"/>
      <point x="872" y="316"/>
      <point x="788" y="316" type="curve" smooth="yes"/>
      <point x="671" y="316"/>
      <point x="594" y="405"/>
      <point x="594" y="557" type="curve" smooth="yes"/>
      <point x="594" y="580"/>
      <point x="596" y="605"/>
      <point x="600" y="631" type="curve" smooth="yes"/>
      <point x="637" y="891"/>
      <point x="785" y="1137"/>
      <point x="1052" y="1137" type="curve" smooth="yes"/>
      <point x="1149" y="1137"/>
      <point x="1251" y="1104"/>
      <point x="1324" y="1075" type="curve" smooth="no"/>
      <point x="1247" y="843"/>
      <point x="1159" y="603"/>
      <point x="1148" y="524" type="curve" smooth="yes"/>
      <point x="1146" y="513"/>
      <point x="1146" y="502"/>
      <point x="1146" y="493" type="curve" smooth="yes"/>
      <point x="1146" y="440"/>
      <point x="1172" y="418"/>
      <point x="1216" y="418" type="curve" smooth="yes"/>
      <point x="1337" y="418"/>
      <point x="1547" y="605"/>
      <point x="1580" y="841" type="curve" smooth="yes"/>
      <point x="1584" y="873"/>
      <point x="1587" y="904"/>
      <point x="1587" y="934" type="curve" smooth="yes"/>
      <point x="1587" y="1230"/>
      <point x="1370" y="1405"/>
      <point x="1054" y="1405" type="curve" smooth="yes"/>
      <point x="704" y="1405"/>
      <point x="376" y="1105"/>
      <point x="322" y="720" type="curve" smooth="yes"/>
      <point x="316" y="677"/>
      <point x="313" y="635"/>
      <point x="313" y="596" type="curve" smooth="yes"/>
      <point x="313" y="250"/>
      <point x="538" y="46"/>
      <point x="842" y="46" type="curve" smooth="yes"/>
      <point x="1013" y="46"/>
      <point x="1169" y="92"/>
      <point x="1287" y="185" type="curve" smooth="no"/>
      <point x="1340" y="97" type="line" smooth="no"/>
      <point x="1207" y="-18"/>
      <point x="1020" y="-75"/>
      <point x="821" y="-75" type="curve" smooth="yes"/>
      <point x="448" y="-75"/>
      <point x="188" y="175"/>
      <point x="188" y="577" type="curve" smooth="yes"/>
      <point x="188" y="623"/>
      <point x="191" y="671"/>
      <point x="198" y="720" type="curve" smooth="yes"/>
      <point x="261" y="1168"/>
      <point x="649" y="1525"/>
      <point x="1075" y="1525" type="curve" smooth="yes"/>
      <point x="1441" y="1525"/>
      <point x="1710" y="1304"/>
      <point x="1710" y="947" type="curve" smooth="yes"/>
      <point x="1710" y="912"/>
      <point x="1707" y="876"/>
      <point x="1702" y="839" type="curve" smooth="yes"/>
      <point x="1653" y="492"/>
      <point x="1374" y="297"/>
    </contour>
  </outline>
</glyph>
<glyph name="A" format="1">
  <advance width="1264"/>
  <unicode hex="0041"/>
  <outline>
    <contour>
      <point x="503" y="606" type="line" smooth="no"/>
      <point x="973" y="606" type="line" smooth="no"/>
      <point x="841" y="1345" type="line" smooth="no"/>
    </contour>
    <contour>
      <point x="1089" y="0" type="line" smooth="no"/>
      <point x="995" y="483" type="line" smooth="no"/>
      <point x="436" y="483" type="line" smooth="no"/>
      <point x="204" y="0" type="line" smooth="no"/>
      <point x="36" y="0" type="line" smooth="no"/>
      <point x="766" y="1492" type="line" smooth="no"/>
      <point x="958" y="1492" type="line" smooth="no"/>
      <point x="1242" y="0" type="line" smooth="no"/>
    </contour>
  </outline>
</glyph>
<glyph name="B" format="1">
  <advance width="1224"/>
  <unicode hex="0042"/>
  <outline>
    <contour>
      <point x="1048" y="457" type="curve" smooth="yes"/>
      <point x="1048" y="631"/>
      <point x="957" y="722"/>
      <point x="728" y="722" type="curve" smooth="yes"/>
      <point x="401" y="722" type="line" smooth="no"/>
      <point x="318" y="136" type="line" smooth="no"/>
      <point x="621" y="136" type="line" smooth="yes"/>
      <point x="885" y="136"/>
      <point x="1048" y="231"/>
    </contour>
    <contour>
      <point x="1097" y="1157" type="curve" smooth="yes"/>
      <point x="1097" y="1341"/>
      <point x="939" y="1360"/>
      <point x="718" y="1360" type="curve" smooth="yes"/>
      <point x="491" y="1360" type="line" smooth="no"/>
      <point x="417" y="844" type="line" smooth="no"/>
      <point x="697" y="844" type="line" smooth="yes"/>
      <point x="919" y="844"/>
      <point x="1097" y="905"/>
    </contour>
    <contour>
      <point x="632" y="1" type="curve" smooth="yes"/>
      <point x="142" y="1" type="line" smooth="no"/>
      <point x="350" y="1492" type="line" smooth="no"/>
      <point x="762" y="1492" type="line" smooth="yes"/>
      <point x="1077" y="1492"/>
      <point x="1249" y="1400"/>
      <point x="1249" y="1166" type="curve" smooth="yes"/>
      <point x="1249" y="977"/>
      <point x="1142" y="840"/>
      <point x="955" y="785" type="curve" smooth="no"/>
      <point x="1130" y="747"/>
      <point x="1208" y="626"/>
      <point x="1208" y="471" type="curve" smooth="yes"/>
      <point x="1208" y="173"/>
      <point x="1013" y="1"/>
    </contour>
  </outline>
</glyph>
<glyph name="C" format="1">
  <advance width="1245"/>
  <unicode hex="0043"/>
  <outline>
    <contour>
      <point x="360" y="611" type="curve" smooth="yes"/>
      <point x="360" y="262"/>
      <point x="574" y="125"/>
      <point x="804" y="125" type="curve" smooth="yes"/>
      <point x="937" y="125"/>
      <point x="1075" y="170"/>
      <point x="1180" y="247" type="curve" smooth="no"/>
      <point x="1180" y="105" type="line" smooth="no"/>
      <point x="1069" y="29"/>
      <point x="925" y="-13"/>
      <point x="782" y="-13" type="curve" smooth="yes"/>
      <point x="481" y="-13"/>
      <point x="188" y="169"/>
      <point x="188" y="595" type="curve" smooth="yes"/>
      <point x="188" y="1118"/>
      <point x="515" y="1515"/>
      <point x="983" y="1515" type="curve" smooth="yes"/>
      <point x="1148" y="1515"/>
      <point x="1280" y="1464"/>
      <point x="1363" y="1383" type="curve" smooth="no"/>
      <point x="1291" y="1265" type="line" smooth="no"/>
      <point x="1186" y="1349"/>
      <point x="1071" y="1379"/>
      <point x="963" y="1379" type="curve" smooth="yes"/>
      <point x="624" y="1379"/>
      <point x="360" y="1037"/>
    </contour>
  </outline>
</glyph>
<glyph name="F" format="1">
  <advance width="985"/>
  <unicode hex="0046"/>
  <outline>
    <contour>
      <point x="1000" y="833" type="line" smooth="no"/>
      <point x="981" y="700" type="line" smooth="no"/>
      <point x="400" y="700" type="line" smooth="no"/>
      <point x="301" y="0" type="line" smooth="no"/>
      <point x="142" y="0" type="line" smooth="no"/>
      <point x="350" y="1492" type="line" smooth="no"/>
      <point x="1124" y="1492" type="line" smooth="no"/>
      <point x="1091" y="1360" type="line" smooth="no"/>
      <point x="492" y="1360" type="line" smooth="no"/>
      <point x="419" y="833" type="line" smooth="no"/>
    </contour>
  </outline>
</glyph>
<glyph name="G" format="1">
  <advance width="1321"/>
  <unicode hex="0047"/>
  <outline>
    <contour>
      <point x="962" y="1379" type="curve" smooth="yes"/>
      <point x="577" y="1379"/>
      <point x="364" y="1010"/>
      <point x="364" y="605" type="curve" smooth="yes"/>
      <point x="364" y="335"/>
      <point x="488" y="123"/>
      <point x="789" y="123" type="curve" smooth="yes"/>
      <point x="906" y="123"/>
      <point x="1046" y="174"/>
      <point x="1114" y="215" type="curve" smooth="no"/>
      <point x="1170" y="615" type="line" smooth="no"/>
      <point x="829" y="615" type="line" smooth="no"/>
      <point x="860" y="758" type="line" smooth="no"/>
      <point x="1328" y="758" type="line" smooth="no"/>
      <point x="1239" y="122" type="line" smooth="no"/>
      <point x="1057" y="14"/>
      <point x="923" y="-23"/>
      <point x="747" y="-23" type="curve" smooth="yes"/>
      <point x="365" y="-23"/>
      <point x="188" y="250"/>
      <point x="188" y="593" type="curve" smooth="yes"/>
      <point x="188" y="1099"/>
      <point x="489" y="1525"/>
      <point x="968" y="1525" type="curve" smooth="yes"/>
      <point x="1144" y="1525"/>
      <point x="1277" y="1472"/>
      <point x="1370" y="1383" type="curve" smooth="no"/>
      <point x="1344" y="1337"/>
      <point x="1320" y="1295"/>
      <point x="1295" y="1251" type="curve" smooth="no"/>
      <point x="1226" y="1317"/>
      <point x="1096" y="1379"/>
    </contour>
  </outline>
</glyph>
<glyph name="H" format="1">
  <advance width="1393"/>
  <unicode hex="0048"/>
  <outline>
    <contour>
      <point x="1178" y="701" type="line" smooth="no"/>
      <point x="400" y="701" type="line" smooth="no"/>
      <point x="301" y="0" type="line" smooth="no"/>
      <point x="142" y="0" type="line" smooth="no"/>
      <point x="350" y="1492" type="line" smooth="no"/>
      <point x="511" y="1492" type="line" smooth="no"/>
      <point x="419" y="843" type="line" smooth="no"/>
      <point x="1198" y="843" type="line" smooth="no"/>
      <point x="1289" y="1492" type="line" smooth="no"/>
      <point x="1449" y="1492" type="line" smooth="no"/>
      <point x="1240" y="0" type="line" smooth="no"/>
      <point x="1079" y="0" type="line" smooth="no"/>
    </contour>
  </outline>
</glyph>
<glyph name="J" format="1">
  <advance width="521"/>
  <unicode hex="004a"/>
  <outline>
    <contour>
      <point x="404" y="247" type="line" smooth="yes"/>
      <point x="358" y="-77"/>
      <point x="303" y="-204"/>
      <point x="-48" y="-204" type="curve" smooth="no"/>
      <point x="-48" y="-72" type="line" smooth="no"/>
      <point x="174" y="-72"/>
      <point x="208" y="-2"/>
      <point x="234" y="185" type="curve" smooth="yes"/>
      <point x="419" y="1492" type="line" smooth="no"/>
      <point x="579" y="1492" type="line" smooth="no"/>
    </contour>
  </outline>
</glyph>
<glyph name="K" format="1">
  <advance width="1176"/>
  <unicode hex="004b"/>
  <outline>
    <contour>
      <point x="656" y="800" type="line" smooth="no"/>
      <point x="1188" y="0" type="line" smooth="no"/>
      <point x="985" y="0" type="line" smooth="no"/>
      <point x="517" y="710" type="line" smooth="no"/>
      <point x="386" y="605" type="line" smooth="no"/>
      <point x="301" y="0" type="line" smooth="no"/>
      <point x="142" y="0" type="line" smooth="no"/>
      <point x="350" y="1492" type="line" smooth="no"/>
      <point x="512" y="1492" type="line" smooth="no"/>
      <point x="407" y="755" type="line" smooth="no"/>
      <point x="1121" y="1492" type="line" smooth="no"/>
      <point x="1330" y="1492" type="line" smooth="no"/>
    </contour>
  </outline>
</glyph>
<glyph name="L" format="1">
  <advance width="934"/>
  <unicode hex="004c"/>
  <outline>
    <contour>
      <point x="350" y="1492" type="line" smooth="no"/>
      <point x="514" y="1492" type="line" smooth="no"/>
      <point x="322" y="145" type="line" smooth="no"/>
      <point x="942" y="145" type="line" smooth="no"/>
      <point x="911" y="0" type="line" smooth="no"/>
      <point x="142" y="0" type="line" smooth="no"/>
    </contour>
  </outline>
</glyph>
<glyph name="M" format="1">
  <advance width="1686"/>
  <unicode hex="004d"/>
  <outline>
    <contour>
      <point x="461" y="1208" type="line" smooth="no"/>
      <point x="291" y="0" type="line" smooth="no"/>
      <point x="142" y="0" type="line" smooth="no"/>
      <point x="350" y="1492" type="line" smooth="no"/>
      <point x="527" y="1492" type="line" smooth="no"/>
      <point x="890" y="337" type="line" smooth="no"/>
      <point x="1576" y="1492" type="line" smooth="no"/>
      <point x="1742" y="1492" type="line" smooth="no"/>
      <point x="1533" y="0" type="line" smooth="no"/>
      <point x="1384" y="0" type="line" smooth="no"/>
      <point x="1552" y="1203" type="line" smooth="no"/>
      <point x="958" y="193" type="line" smooth="no"/>
      <point x="776" y="193" type="line" smooth="no"/>
    </contour>
  </outline>
</glyph>
<glyph name="N" format="1">
  <advance width="1414"/>
  <unicode hex="004e"/>
  <outline>
    <contour>
      <point x="1260" y="0" type="line" smooth="no"/>
      <point x="1078" y="0" type="line" smooth="no"/>
      <point x="469" y="1260" type="line" smooth="no"/>
      <point x="291" y="0" type="line" smooth="no"/>
      <point x="142" y="0" type="line" smooth="no"/>
      <point x="350" y="1492" type="line" smooth="no"/>
      <point x="530" y="1492" type="line" smooth="no"/>
      <point x="1147" y="228" type="line" smooth="no"/>
      <point x="1323" y="1492" type="line" smooth="no"/>
      <point x="1470" y="1492" type="line" smooth="no"/>
    </contour>
  </outline>
</glyph>
<glyph name="R" format="1">
  <advance width="1264"/>
  <unicode hex="0052"/>
  <outline>
    <contour>
      <point x="1143" y="1150" type="curve" smooth="yes"/>
      <point x="1143" y="1277"/>
      <point x="1020" y="1360"/>
      <point x="829" y="1360" type="curve" smooth="yes"/>
      <point x="492" y="1360" type="line" smooth="no"/>
      <point x="419" y="836" type="line" smooth="no"/>
      <point x="529" y="825"/>
      <point x="638" y="820"/>
      <point x="716" y="820" type="curve" smooth="yes"/>
      <point x="1056" y="820"/>
      <point x="1143" y="973"/>
    </contour>
    <contour>
      <point x="409" y="718" type="curve" smooth="no"/>
      <point x="301" y="0" type="line" smooth="no"/>
      <point x="142" y="0" type="line" smooth="no"/>
      <point x="350" y="1492" type="line" smooth="no"/>
      <point x="696" y="1492" type="line" smooth="yes"/>
      <point x="1020" y="1492"/>
      <point x="1296" y="1438"/>
      <point x="1296" y="1150" type="curve" smooth="yes"/>
      <point x="1296" y="1005"/>
      <point x="1240" y="799"/>
      <point x="960" y="731" type="curve" smooth="no"/>
      <point x="995" y="508"/>
      <point x="1132" y="160"/>
      <point x="1245" y="0" type="curve" smooth="no"/>
      <point x="1071" y="0" type="line" smooth="no"/>
      <point x="953" y="188"/>
      <point x="883" y="390"/>
      <point x="812" y="700" type="curve" smooth="no"/>
      <point x="531" y="700"/>
      <point x="417" y="718"/>
    </contour>
  </outline>
</glyph>
<glyph name="W" format="1">
  <advance width="2010"/>
  <unicode hex="0057"/>
  <outline>
    <contour>
      <point x="1463" y="169" type="line" smooth="no"/>
      <point x="2060" y="1492" type="line" smooth="no"/>
      <point x="2223" y="1492" type="line" smooth="no"/>
      <point x="1533" y="0" type="line" smooth="no"/>
      <point x="1343" y="0" type="line" smooth="no"/>
      <point x="1187" y="1241" type="line" smooth="no"/>
      <point x="634" y="0" type="line" smooth="no"/>
      <point x="446" y="0" type="line" smooth="no"/>
      <point x="185" y="1492" type="line" smooth="no"/>
      <point x="350" y="1492" type="line" smooth="no"/>
      <point x="570" y="171" type="line" smooth="no"/>
      <point x="1117" y="1432" type="line" smooth="no"/>
      <point x="1305" y="1432" type="line" smooth="no"/>
    </contour>
  </outline>
</glyph>
<glyph name="X" format="1">
  <advance width="1239"/>
  <unicode hex="0058"/>
  <outline>
    <contour>
      <point x="12" y="0" type="line" smooth="no"/>
      <point x="616" y="780" type="line" smooth="no"/>
      <point x="251" y="1492" type="line" smooth="no"/>
      <point x="447" y="1492" type="line" smooth="no"/>
      <point x="742" y="883" type="line" smooth="no"/>
      <point x="1234" y="1492" type="line" smooth="no"/>
      <point x="1403" y="1492" type="line" smooth="no"/>
      <point x="835" y="782" type="line" smooth="no"/>
      <point x="1204" y="0" type="line" smooth="no"/>
      <point x="1017" y="0" type="line" smooth="no"/>
      <point x="707" y="690" type="line" smooth="no"/>
      <point x="186" y="0" type="line" smooth="no"/>
    </contour>
  </outline>
</glyph>
<glyph name="Y" format="1">
  <advance width="1184"/>
  <unicode hex="0059"/>
  <outline>
    <contour>
      <point x="1362" y="1492" type="line" smooth="no"/>
      <point x="722" y="616" type="line" smooth="no"/>
      <point x="635" y="0" type="line" smooth="no"/>
      <point x="473" y="0" type="line" smooth="no"/>
      <point x="561" y="615" type="line" smooth="no"/>
      <point x="210" y="1492" type="line" smooth="no"/>
      <point x="365" y="1492" type="line" smooth="no"/>
      <point x="654" y="748" type="line" smooth="no"/>
      <point x="1182" y="1492" type="line" smooth="no"/>
    </contour>
  </outline>
</glyph>
<glyph name="Z" format="1">
  <advance width="1143"/>
  <unicode hex="005a"/>
  <outline>
    <contour>
      <point x="1282" y="1492" type="line" smooth="no"/>
      <point x="1266" y="1371" type="line" smooth="no"/>
      <point x="297" y="145" type="line" smooth="no"/>
      <point x="1086" y="145" type="line" smooth="no"/>
      <point x="1055" y="0" type="line" smooth="no"/>
      <point x="83" y="0" type="line" smooth="no"/>
      <point x="102" y="130" type="line" smooth="no"/>
      <point x="1058" y="1360" type="line" smooth="no"/>
      <point x="303" y="1360" type="line" smooth="no"/>
      <point x="323" y="1492" type="line" smooth="no"/>
    </contour>
  </outline>
</glyph>
<glyph name="bracketleft" format="1">
  <advance width="645"/>
  <unicode hex="005b"/>
  <outline>
    <contour>
      <point x="528" y="-139" type="line" smooth="no"/>
      <point x="511" y="-261" type="line" smooth="no"/>
      <point x="79" y="-261" type="line" smooth="no"/>
      <point x="328" y="1505" type="line" smooth="no"/>
      <point x="759" y="1505" type="line" smooth="no"/>
      <point x="741" y="1381" type="line" smooth="no"/>
      <point x="481" y="1381" type="line" smooth="no"/>
      <point x="268" y="-139" type="line" smooth="no"/>
    </contour>
  </outline>
</glyph>
<glyph name="backslash" format="1">
  <advance width="870"/>
  <unicode hex="005c"/>
  <outline>
    <contour>
      <point x="805" y="-120" type="line" smooth="no"/>
      <point x="669" y="-120" type="line" smooth="no"/>
      <point x="285" y="1466" type="line" smooth="no"/>
      <point x="422" y="1466" type="line" smooth="no"/>
    </contour>
  </outline>
</glyph>
<glyph name="bracketright" format="1">
  <advance width="644"/>
  <unicode hex="005d"/>
  <outline>
    <contour>
      <point x="85" y="-139" type="line" smooth="no"/>
      <point x="345" y="-139" type="line" smooth="no"/>
      <point x="559" y="1381" type="line" smooth="no"/>
      <point x="299" y="1381" type="line" smooth="no"/>
      <point x="316" y="1505" type="line" smooth="no"/>
      <point x="747" y="1505" type="line" smooth="no"/>
      <point x="499" y="-261" type="line" smooth="no"/>
      <point x="68" y="-261" type="line" smooth="no"/>
    </contour>
  </outline>
</glyph>
<glyph name="asciicircum" format="1">
  <advance width="1120"/>
  <unicode hex="005e"/>
  <outline>
    <contour>
      <point x="302" y="627" type="line" smooth="no"/>
      <point x="175" y="627" type="line" smooth="no"/>
      <point x="730" y="1559" type="line" smooth="no"/>
      <point x="827" y="1559" type="line" smooth="no"/>
      <point x="1126" y="627" type="line" smooth="no"/>
      <point x="1001" y="627" type="line" smooth="no"/>
      <point x="749" y="1375" type="line" smooth="no"/>
    </contour>
  </outline>
</glyph>
<glyph name="underscore" format="1">
  <advance width="1165"/>
  <unicode hex="005f"/>
  <outline>
    <contour>
      <point x="1007" y="-156" type="line" smooth="no"/>
      <point x="988" y="-292" type="line" smooth="no"/>
      <point x="103" y="-292" type="line" smooth="no"/>
      <point x="122" y="-156" type="line" smooth="no"/>
    </contour>
  </outline>
</glyph>
<glyph name="grave" format="1">
  <advance width="611"/>
  <unicode hex="0060"/>
  <outline>
    <contour>
      <point x="597" y="1251" type="line" smooth="no"/>
      <point x="342" y="1638" type="line" smooth="no"/>
      <point x="552" y="1638" type="line" smooth="no"/>
      <point x="675" y="1251" type="line" smooth="no"/>
    </contour>
  </outline>
</glyph>
<glyph name="a" format="1">
  <advance width="910"/>
  <unicode hex="0061"/>
  <outline>
    <contour>
      <point x="357" y="-25" type="curve" smooth="yes"/>
      <point x="215" y="-25"/>
      <point x="107" y="66"/>
      <point x="107" y="224" type="curve" smooth="yes"/>
      <point x="107" y="525"/>
      <point x="379" y="587"/>
      <point x="640" y="615" type="curve" smooth="yes"/>
      <point x="641" y="615"/>
      <point x="742" y="625"/>
      <point x="742" y="625" type="curve" smooth="no"/>
      <point x="759" y="741" type="line" smooth="yes"/>
      <point x="761" y="757"/>
      <point x="762" y="772"/>
      <point x="762" y="786" type="curve" smooth="yes"/>
      <point x="762" y="899"/>
      <point x="691" y="938"/>
      <point x="593" y="938" type="curve" smooth="yes"/>
      <point x="498" y="938"/>
      <point x="378" y="901"/>
      <point x="274" y="859" type="curve" smooth="no"/>
      <point x="274" y="986" type="line" smooth="no"/>
      <point x="352" y="1032"/>
      <point x="483" y="1069"/>
      <point x="616" y="1069" type="curve" smooth="yes"/>
      <point x="782" y="1069"/>
      <point x="905" y="998"/>
      <point x="905" y="810" type="curve" smooth="yes"/>
      <point x="905" y="788"/>
      <point x="903" y="765"/>
      <point x="900" y="740" type="curve" smooth="yes"/>
      <point x="797" y="0" type="line" smooth="no"/>
      <point x="710" y="0" type="line" smooth="no"/>
      <point x="708.304" y="1.23134"/>
      <point x="697" y="165"/>
      <point x="697" y="165" type="curve" smooth="no"/>
      <point x="609" y="24"/>
      <point x="470.333" y="-25"/>
    </contour>
    <contour>
      <point x="726" y="514" type="line" smooth="yes"/>
      <point x="726.142" y="514.99"/>
      <point x="654" y="505"/>
      <point x="651" y="505" type="curve" smooth="yes"/>
      <point x="370" y="466"/>
      <point x="253" y="409"/>
      <point x="253" y="232" type="curve" smooth="yes"/>
      <point x="253" y="146"/>
      <point x="306" y="96"/>
      <point x="383" y="96" type="curve" smooth="yes"/>
      <point x="529.465" y="96"/>
      <point x="692.579" y="209.681"/>
      <point x="711" y="409" type="curve" smooth="yes"/>
    </contour>
  </outline>
</glyph>
<glyph name="b" format="1">
  <advance width="1010"/>
  <unicode hex="0062"/>
  <outline>
    <contour>
      <point x="536" y="-25" type="curve" smooth="yes"/>
      <point x="410" y="-25"/>
      <point x="310" y="44"/>
      <point x="269" y="160" type="curve" smooth="no"/>
      <point x="246" y="0" type="line" smooth="no"/>
      <point x="104" y="0" type="line" smooth="no"/>
      <point x="313" y="1487" type="line" smooth="no"/>
      <point x="460" y="1510" type="line" smooth="no"/>
      <point x="371" y="879" type="line" smooth="no"/>
      <point x="463" y="1017"/>
      <point x="592" y="1069"/>
      <point x="694" y="1069" type="curve" smooth="yes"/>
      <point x="918" y="1069"/>
      <point x="1022" y="879"/>
      <point x="1022" y="649" type="curve" smooth="yes"/>
      <point x="1022" y="291"/>
      <point x="826" y="-25"/>
    </contour>
    <contour>
      <point x="874" y="636" type="curve" smooth="yes"/>
      <point x="874" y="795"/>
      <point x="825" y="944"/>
      <point x="664" y="944" type="curve" smooth="yes"/>
      <point x="472" y="944"/>
      <point x="312" y="712"/>
      <point x="312" y="416" type="curve" smooth="yes"/>
      <point x="312" y="238"/>
      <point x="380" y="102"/>
      <point x="546" y="102" type="curve" smooth="yes"/>
      <point x="776" y="102"/>
      <point x="874" y="393"/>
    </contour>
  </outline>
</glyph>
<glyph name="c" format="1">
  <advance width="825"/>
  <unicode hex="0063"/>
  <outline>
    <contour>
      <point x="914" y="974" type="curve" smooth="no"/>
      <point x="862" y="860" type="line" smooth="no"/>
      <point x="802" y="918"/>
      <point x="734" y="945"/>
      <point x="668" y="945" type="curve" smooth="yes"/>
      <point x="474" y="945"/>
      <point x="284" y="724"/>
      <point x="284" y="433" type="curve" smooth="yes"/>
      <point x="284" y="189"/>
      <point x="407" y="103"/>
      <point x="542" y="103" type="curve" smooth="yes"/>
      <point x="630" y="103"/>
      <point x="722" y="139"/>
      <point x="789" y="192" type="curve" smooth="no"/>
      <point x="789" y="64" type="line" smooth="no"/>
      <point x="718" y="-3"/>
      <point x="614" y="-25"/>
      <point x="521" y="-25" type="curve" smooth="yes"/>
      <point x="265" y="-25"/>
      <point x="136" y="172"/>
      <point x="136" y="417" type="curve" smooth="yes"/>
      <point x="136" y="765"/>
      <point x="368" y="1069"/>
      <point x="672" y="1069" type="curve" smooth="yes"/>
      <point x="782" y="1069"/>
      <point x="869" y="1033"/>
    </contour>
  </outline>
</glyph>
<glyph name="e" format="1">
  <advance width="941"/>
  <unicode hex="0065"/>
  <outline>
    <contour>
      <point x="309" y="602" type="curve" smooth="no"/>
      <point x="811" y="602" type="line" smooth="no"/>
      <point x="815" y="632"/>
      <point x="817" y="661"/>
      <point x="817" y="687" type="curve" smooth="yes"/>
      <point x="817" y="857"/>
      <point x="738" y="943"/>
      <point x="617" y="943" type="curve" smooth="yes"/>
      <point x="475" y="943"/>
      <point x="354" y="810"/>
    </contour>
    <contour>
      <point x="636" y="1069" type="curve" smooth="no"/>
      <point x="838" y="1069"/>
      <point x="952" y="924"/>
      <point x="952" y="686" type="curve" smooth="yes"/>
      <point x="952" y="622"/>
      <point x="941" y="554"/>
      <point x="931" y="494" type="curve" smooth="no"/>
      <point x="288" y="494" type="line" smooth="no"/>
      <point x="284" y="465"/>
      <point x="282" y="438"/>
      <point x="282" y="412" type="curve" smooth="yes"/>
      <point x="282" y="176"/>
      <point x="398" y="102"/>
      <point x="532" y="102" type="curve" smooth="yes"/>
      <point x="655" y="102"/>
      <point x="792" y="165"/>
      <point x="866" y="223" type="curve" smooth="no"/>
      <point x="866" y="98" type="line" smooth="no"/>
      <point x="778" y="21"/>
      <point x="651" y="-25"/>
      <point x="500" y="-25" type="curve" smooth="yes"/>
      <point x="267" y="-25"/>
      <point x="136" y="135"/>
      <point x="136" y="397" type="curve" smooth="yes"/>
      <point x="136" y="772"/>
      <point x="359" y="1060"/>
    </contour>
  </outline>
</glyph>
<glyph name="f" format="1">
  <advance width="552"/>
  <unicode hex="0066"/>
  <outline>
    <contour>
      <point x="166" y="925" type="line" smooth="no"/>
      <point x="182" y="1043" type="line" smooth="no"/>
      <point x="320" y="1043" type="line" smooth="no"/>
      <point x="326" y="1079" type="line" smooth="no"/>
      <point x="382" y="1445"/>
      <point x="470" y="1536"/>
      <point x="696" y="1536" type="curve" smooth="yes"/>
      <point x="758" y="1536" type="line" smooth="no"/>
      <point x="758" y="1408" type="line" smooth="no"/>
      <point x="677" y="1408" type="line" smooth="yes"/>
      <point x="515" y="1408"/>
      <point x="502" y="1291"/>
      <point x="464" y="1043" type="curve" smooth="no"/>
      <point x="677" y="1043" type="line" smooth="no"/>
      <point x="661" y="925" type="line" smooth="no"/>
      <point x="448" y="925" type="line" smooth="no"/>
      <point x="318" y="0" type="line" smooth="no"/>
      <point x="174" y="0" type="line" smooth="no"/>
      <point x="304" y="925" type="line" smooth="no"/>
    </contour>
  </outline>
</glyph>
<glyph name="g" format="1">
  <advance width="1010"/>
  <unicode hex="0067"/>
  <outline>
    <contour>
      <point x="857" y="656" type="curve" smooth="yes"/>
      <point x="857" y="820"/>
      <point x="793" y="946"/>
      <point x="629" y="946" type="curve" smooth="yes"/>
      <point x="409" y="946"/>
      <point x="289" y="674"/>
      <point x="289" y="447" type="curve" smooth="yes"/>
      <point x="289" y="283"/>
      <point x="354" y="123"/>
      <point x="518" y="123" type="curve" smooth="yes"/>
      <point x="769" y="123"/>
      <point x="857" y="393"/>
    </contour>
    <contour>
      <point x="477" y="0" type="curve" smooth="yes"/>
      <point x="237" y="0"/>
      <point x="139" y="209"/>
      <point x="139" y="420" type="curve" smooth="yes"/>
      <point x="139" y="767"/>
      <point x="336" y="1069"/>
      <point x="638" y="1069" type="curve" smooth="yes"/>
      <point x="761.046" y="1069"/>
      <point x="841.423" y="1005.86"/>
      <point x="896" y="886" type="curve" smooth="no"/>
      <point x="918" y="1043" type="line" smooth="no"/>
      <point x="1057" y="1043" type="line" smooth="no"/>
      <point x="918" y="59" type="line" smooth="yes"/>
      <point x="879" y="-216"/>
      <point x="805" y="-483"/>
      <point x="214" y="-483" type="curve" smooth="no"/>
      <point x="214" y="-351" type="line" smooth="no"/>
      <point x="685" y="-351"/>
      <point x="733.623" y="-193.328"/>
      <point x="778" y="81" type="curve" smooth="yes"/>
      <point x="789" y="149" type="line" smooth="no"/>
      <point x="714" y="63.0385"/>
      <point x="624" y="0"/>
    </contour>
  </outline>
</glyph>
<glyph name="i" format="1">
  <advance width="420"/>
  <unicode hex="0069"/>
  <outline>
    <contour>
      <point x="490" y="1441" type="line" smooth="no"/>
      <point x="462" y="1243" type="line" smooth="no"/>
      <point x="318" y="1243" type="line" smooth="no"/>
      <point x="346" y="1441" type="line" smooth="no"/>
    </contour>
    <contour>
      <point x="434" y="1043" type="line" smooth="no"/>
      <point x="287" y="0" type="line" smooth="no"/>
      <point x="144" y="0" type="line" smooth="no"/>
      <point x="290" y="1043" type="line" smooth="no"/>
    </contour>
  </outline>
</glyph>
<glyph name="k" format="1">
  <advance width="917"/>
  <unicode hex="006b"/>
  <outline>
    <contour>
      <point x="313" y="1490" type="line" smooth="no"/>
      <point x="460" y="1510" type="line" smooth="no"/>
      <point x="335" y="627" type="line" smooth="no"/>
      <point x="821" y="1043" type="line" smooth="no"/>
      <point x="1016" y="1043" type="line" smooth="no"/>
      <point x="534" y="634" type="line" smooth="no"/>
      <point x="911" y="0" type="line" smooth="no"/>
      <point x="754" y="0" type="line" smooth="no"/>
      <point x="424" y="563" type="line" smooth="no"/>
      <point x="314" y="475" type="line" smooth="no"/>
      <point x="247" y="0" type="line" smooth="no"/>
      <point x="104" y="0" type="line" smooth="no"/>
    </contour>
  </outline>
</glyph>
<glyph name="l" format="1">
  <advance width="508"/>
  <unicode hex="006c"/>
  <outline>
    <contour>
      <point x="474" y="1510" type="line" smooth="no"/>
      <point x="306" y="313" type="line" smooth="no"/>
      <point x="302" y="273"/>
      <point x="300" y="244"/>
      <point x="300" y="223" type="curve" smooth="yes"/>
      <point x="300" y="133"/>
      <point x="322" y="104"/>
      <point x="374" y="104" type="curve" smooth="yes"/>
      <point x="412.664" y="104"/>
      <point x="461.873" y="116"/>
      <point x="531" y="130" type="curve" smooth="no"/>
      <point x="531" y="9" type="line" smooth="no"/>
      <point x="459.624" y="-10"/>
      <point x="392.78" y="-21"/>
      <point x="335" y="-21" type="curve" smooth="yes"/>
      <point x="226" y="-21"/>
      <point x="153" y="30"/>
      <point x="153" y="171" type="curve" smooth="yes"/>
      <point x="153" y="215"/>
      <point x="157" y="274"/>
      <point x="168" y="350" type="curve" smooth="yes"/>
      <point x="328" y="1490" type="line" smooth="no"/>
    </contour>
  </outline>
</glyph>
<glyph name="m" format="1">
  <advance width="1537"/>
  <unicode hex="006d"/>
  <outline>
    <contour>
      <point x="1537" y="787" type="curve" smooth="no"/>
      <point x="1537" y="749"/>
      <point x="1534" y="707"/>
      <point x="1528" y="663" type="curve" smooth="yes"/>
      <point x="1435" y="0" type="line" smooth="no"/>
      <point x="1293" y="0" type="line" smooth="no"/>
      <point x="1369" y="541" type="line" smooth="yes"/>
      <point x="1381" y="623"/>
      <point x="1390" y="695"/>
      <point x="1390" y="753" type="curve" smooth="yes"/>
      <point x="1390" y="874"/>
      <point x="1359" y="944"/>
      <point x="1254" y="944" type="curve" smooth="yes"/>
      <point x="1138.4" y="944"/>
      <point x="1026.72" y="868.062"/>
      <point x="965" y="755" type="curve" smooth="no"/>
      <point x="857" y="0" type="line" smooth="no"/>
      <point x="714" y="0" type="line" smooth="no"/>
      <point x="800" y="604" type="line" smooth="yes"/>
      <point x="808" y="661"/>
      <point x="813" y="713"/>
      <point x="813" y="758" type="curve" smooth="yes"/>
      <point x="813" y="874"/>
      <point x="776" y="944"/>
      <point x="669" y="944" type="curve" smooth="yes"/>
      <point x="524" y="944"/>
      <point x="397" y="840"/>
      <point x="352" y="740" type="curve" smooth="no"/>
      <point x="248" y="0" type="line" smooth="no"/>
      <point x="104" y="0" type="line" smooth="no"/>
      <point x="248" y="1043" type="line" smooth="no"/>
      <point x="372" y="1043" type="line" smooth="no"/>
      <point x="367" y="915" type="line" smooth="no"/>
      <point x="467" y="1020"/>
      <point x="589" y="1069"/>
      <point x="707" y="1069" type="curve" smooth="yes"/>
      <point x="833.578" y="1069"/>
      <point x="899.573" y="1018.5"/>
      <point x="936" y="900" type="curve" smooth="no"/>
      <point x="1024.03" y="998.499"/>
      <point x="1168.12" y="1067.57"/>
      <point x="1293.16" y="1067.57" type="curve" smooth="yes"/>
      <point x="1425.81" y="1067.57"/>
      <point x="1537" y="989.825"/>
    </contour>
  </outline>
</glyph>
<glyph name="s" format="1">
  <advance width="813"/>
  <unicode hex="0073"/>
  <outline>
    <contour>
      <point x="641" y="313" type="curve" smooth="yes"/>
      <point x="641" y="370"/>
      <point x="608.297" y="425.072"/>
      <point x="521" y="458" type="curve" smooth="yes"/>
      <point x="407" y="501" type="line" smooth="yes"/>
      <point x="251.049" y="559.823"/>
      <point x="195" y="627"/>
      <point x="195" y="731" type="curve" smooth="yes"/>
      <point x="195" y="910.808"/>
      <point x="332" y="1069"/>
      <point x="554" y="1069" type="curve" smooth="yes"/>
      <point x="675" y="1069"/>
      <point x="764" y="1041"/>
      <point x="830" y="998" type="curve" smooth="no"/>
      <point x="779" y="881" type="line" smooth="no"/>
      <point x="731" y="907"/>
      <point x="649" y="946"/>
      <point x="546" y="946" type="curve" smooth="yes"/>
      <point x="440" y="945"/>
      <point x="342" y="877"/>
      <point x="342" y="750" type="curve" smooth="yes"/>
      <point x="342" y="697"/>
      <point x="373.493" y="662.055"/>
      <point x="457" y="629" type="curve" smooth="yes"/>
      <point x="601" y="572"/>
      <point x="785" y="531.632"/>
      <point x="785" y="344" type="curve" smooth="yes"/>
      <point x="785" y="106"/>
      <point x="613" y="-25"/>
      <point x="421" y="-25" type="curve" smooth="yes"/>
      <point x="277" y="-25"/>
      <point x="160" y="33"/>
      <point x="110" y="82" type="curve" smooth="no"/>
      <point x="144" y="204" type="line" smooth="no"/>
      <point x="176" y="177"/>
      <point x="292" y="100"/>
      <point x="420" y="100" type="curve" smooth="yes"/>
      <point x="538" y="100"/>
      <point x="641" y="169"/>
    </contour>
  </outline>
</glyph>
<glyph name="t" format="1">
  <advance width="621"/>
  <unicode hex="0074"/>
  <outline>
    <contour>
      <point x="430" y="925" type="line" smooth="no"/>
      <point x="351" y="351" type="line" smooth="yes"/>
      <point x="343.084" y="292.197"/>
      <point x="337.803" y="246.033"/>
      <point x="337.803" y="210.569" type="curve" smooth="yes"/>
      <point x="337.803" y="138.565"/>
      <point x="359.575" y="110.673"/>
      <point x="425.278" y="110.673" type="curve" smooth="yes"/>
      <point x="465.256" y="110.673"/>
      <point x="521.5" y="121"/>
      <point x="599" y="138" type="curve" smooth="no"/>
      <point x="599" y="19" type="line" smooth="no"/>
      <point x="516.164" y="-2.17647"/>
      <point x="438.925" y="-17"/>
      <point x="374" y="-17" type="curve" smooth="yes"/>
      <point x="264" y="-17"/>
      <point x="193" y="33"/>
      <point x="193" y="182" type="curve" smooth="yes"/>
      <point x="193" y="244"/>
      <point x="203" y="323"/>
      <point x="216" y="419" type="curve" smooth="yes"/>
      <point x="286" y="925" type="line" smooth="no"/>
      <point x="143" y="925" type="line" smooth="no"/>
      <point x="158" y="1043" type="line" smooth="no"/>
      <point x="310" y="1043" type="line" smooth="no"/>
      <point x="371" y="1293" type="line" smooth="no"/>
      <point x="485" y="1320" type="line" smooth="no"/>
      <point x="447" y="1043" type="line" smooth="no"/>
      <point x="696" y="1043" type="line" smooth="no"/>
      <point x="679" y="925" type="line" smooth="no"/>
    </contour>
  </outline>
</glyph>
<glyph name="u" format="1">
  <advance width="948"/>
  <unicode hex="0075"/>
  <outline>
    <contour>
      <point x="142" y="347" type="curve" smooth="yes"/>
      <point x="240" y="1043" type="line" smooth="no"/>
      <point x="384" y="1043" type="line" smooth="no"/>
      <point x="286" y="350" type="line" smooth="yes"/>
      <point x="283" y="329"/>
      <point x="282" y="309"/>
      <point x="282" y="291" type="curve" smooth="yes"/>
      <point x="282" y="145"/>
      <point x="368" y="103"/>
      <point x="488" y="103" type="curve" smooth="yes"/>
      <point x="622" y="103"/>
      <point x="728" y="158"/>
      <point x="754" y="350" type="curve" smooth="yes"/>
      <point x="851" y="1043" type="line" smooth="no"/>
      <point x="994" y="1043" type="line" smooth="no"/>
      <point x="896" y="347" type="line" smooth="yes"/>
      <point x="858" y="73"/>
      <point x="667" y="-25"/>
      <point x="468" y="-25" type="curve" smooth="yes"/>
      <point x="288" y="-25"/>
      <point x="137" y="56"/>
      <point x="137" y="272" type="curve" smooth="yes"/>
      <point x="137" y="295"/>
      <point x="138" y="320"/>
    </contour>
  </outline>
</glyph>
<glyph name="v" format="1">
  <advance width="907"/>
  <unicode hex="0076"/>
  <outline>
    <contour>
      <point x="371" y="0" type="line" smooth="no"/>
      <point x="146" y="1043" type="line" smooth="no"/>
      <point x="300" y="1043" type="line" smooth="no"/>
      <point x="474" y="175" type="line" smooth="no"/>
      <point x="877" y="1043" type="line" smooth="no"/>
      <point x="1030" y="1043" type="line" smooth="no"/>
      <point x="516" y="0" type="line" smooth="no"/>
    </contour>
  </outline>
</glyph>
<glyph name="w" format="1">
  <advance width="1409"/>
  <unicode hex="0077"/>
  <outline>
    <contour>
      <point x="160" y="1043" type="line" smooth="no"/>
      <point x="304" y="1043" type="line" smooth="no"/>
      <point x="402" y="212" type="line" smooth="no"/>
      <point x="766" y="1043" type="line" smooth="no"/>
      <point x="934" y="1043" type="line" smooth="no"/>
      <point x="1053" y="216" type="line" smooth="no"/>
      <point x="1373" y="1043" type="line" smooth="no"/>
      <point x="1521" y="1043" type="line" smooth="no"/>
      <point x="1092" y="0" type="line" smooth="no"/>
      <point x="950" y="0" type="line" smooth="no"/>
      <point x="825" y="882" type="line" smooth="no"/>
      <point x="439" y="0" type="line" smooth="no"/>
      <point x="294" y="0" type="line" smooth="no"/>
    </contour>
  </outline>
</glyph>
<glyph name="y" format="1">
  <advance width="913"/>
  <unicode hex="0079"/>
  <outline>
    <contour>
      <point x="315" y="1043" type="line" smooth="no"/>
      <point x="491" y="186" type="line" smooth="no"/>
      <point x="601" y="439"/>
      <point x="859" y="1044"/>
      <point x="860" y="1043" type="curve" smooth="no"/>
      <point x="1011" y="1043" type="line" smooth="no"/>
      <point x="513" y="-64" type="line" smooth="no"/>
      <point x="398" y="-370"/>
      <point x="286" y="-483"/>
      <point x="-22" y="-483" type="curve" smooth="no"/>
      <point x="-22" y="-351" type="line" smooth="no"/>
      <point x="206" y="-351"/>
      <point x="260" y="-304"/>
      <point x="384" y="9" type="curve" smooth="no"/>
      <point x="164" y="1043" type="line" smooth="no"/>
    </contour>
  </outline>
</glyph>
<glyph name="z" format="1">
  <advance width="757"/>
  <unicode hex="007a"/>
  <outline>
    <contour>
      <point x="97" y="132" type="line" smooth="no"/>
      <point x="656" y="916" type="line" smooth="no"/>
      <point x="202" y="916" type="line" smooth="no"/>
      <point x="220" y="1043" type="line" smooth="no"/>
      <point x="838" y="1043" type="line" smooth="no"/>
      <point x="820" y="916" type="line" smooth="no"/>
      <point x="256" y="129" type="line" smooth="no"/>
      <point x="726" y="129" type="line" smooth="no"/>
      <point x="708" y="0" type="line" smooth="no"/>
      <point x="78" y="0" type="line" smooth="no"/>
    </contour>
  </outline>
</glyph>
<glyph name="braceleft" format="1">
  <advance width="652"/>
  <unicode hex="007b"/>
  <outline>
    <contour>
      <point x="371" y="689" type="curve" smooth="no"/>
      <point x="453" y="644"/>
      <point x="475" y="548"/>
      <point x="475" y="463" type="curve" smooth="yes"/>
      <point x="475" y="437"/>
      <point x="473" y="412"/>
      <point x="470" y="390" type="curve" smooth="yes"/>
      <point x="438" y="156" type="line" smooth="yes"/>
      <point x="428" y="88"/>
      <point x="421" y="36"/>
      <point x="421" y="-2" type="curve" smooth="yes"/>
      <point x="421" y="-76"/>
      <point x="448" y="-101"/>
      <point x="536" y="-101" type="curve" smooth="no"/>
      <point x="517" y="-238" type="line" smooth="no"/>
      <point x="341" y="-238"/>
      <point x="263" y="-177"/>
      <point x="263" y="-27" type="curve" smooth="yes"/>
      <point x="263" y="-3"/>
      <point x="265" y="24"/>
      <point x="269" y="53" type="curve" smooth="yes"/>
      <point x="308" y="335" type="line" smooth="yes"/>
      <point x="314" y="382"/>
      <point x="321" y="431"/>
      <point x="321" y="475" type="curve" smooth="yes"/>
      <point x="321" y="553"/>
      <point x="301" y="614"/>
      <point x="229" y="614" type="curve" smooth="yes"/>
      <point x="172" y="614" type="line" smooth="no"/>
      <point x="193" y="764" type="line" smooth="no"/>
      <point x="250" y="764" type="line" smooth="yes"/>
      <point x="363" y="764"/>
      <point x="390" y="913"/>
      <point x="408" y="1043" type="curve" smooth="yes"/>
      <point x="447" y="1326" type="line" smooth="yes"/>
      <point x="476" y="1534"/>
      <point x="574" y="1616"/>
      <point x="778" y="1616" type="curve" smooth="no"/>
      <point x="758" y="1479" type="line" smooth="no"/>
      <point x="625" y="1479"/>
      <point x="616" y="1424"/>
      <point x="588" y="1223" type="curve" smooth="yes"/>
      <point x="555" y="988" type="line" smooth="yes"/>
      <point x="542" y="892"/>
      <point x="494" y="748"/>
    </contour>
  </outline>
</glyph>
<glyph name="bar" format="1">
  <advance width="443"/>
  <unicode hex="007c"/>
  <outline>
    <contour>
      <point x="523" y="1603" type="line" smooth="no"/>
      <point x="255" y="-303" type="line" smooth="no"/>
      <point x="111" y="-303" type="line" smooth="no"/>
      <point x="379" y="1603" type="line" smooth="no"/>
    </contour>
  </outline>
</glyph>
<glyph name="exclamdown" format="1">
  <advance width="469"/>
  <unicode hex="00a1"/>
  <outline>
    <contour>
      <point x="424" y="747" type="line" smooth="no"/>
      <point x="260" y="-415" type="line" smooth="no"/>
      <point x="130" y="-415" type="line" smooth="no"/>
      <point x="293" y="747" type="line" smooth="no"/>
    </contour>
    <contour>
      <point x="280" y="953" type="line" smooth="no"/>
      <point x="311" y="1174" type="line" smooth="no"/>
      <point x="492" y="1174" type="line" smooth="no"/>
      <point x="461" y="953" type="line" smooth="no"/>
    </contour>
  </outline>
</glyph>
<glyph name="sterling" format="1">
  <advance width="1024"/>
  <unicode hex="00a3"/>
  <outline>
    <contour>
      <point x="192" y="707" type="line" smooth="no"/>
      <point x="212" y="849" type="line" smooth="no"/>
      <point x="374" y="849" type="line" smooth="no"/>
      <point x="386" y="935" type="line" smooth="yes"/>
      <point x="430" y="1245"/>
      <point x="515" y="1525"/>
      <point x="880" y="1525" type="curve" smooth="yes"/>
      <point x="1042" y="1525"/>
      <point x="1138" y="1446"/>
      <point x="1187" y="1349" type="curve" smooth="no"/>
      <point x="1084" y="1242" type="line" smooth="no"/>
      <point x="1029" y="1325"/>
      <point x="965" y="1373"/>
      <point x="861" y="1373" type="curve" smooth="yes"/>
      <point x="679" y="1373"/>
      <point x="596" y="1222"/>
      <point x="566" y="1008" type="curve" smooth="yes"/>
      <point x="543" y="849" type="line" smooth="no"/>
      <point x="913" y="849" type="line" smooth="no"/>
      <point x="893" y="707" type="line" smooth="no"/>
      <point x="523" y="707" type="line" smooth="no"/>
      <point x="498" y="530" type="line" smooth="yes"/>
      <point x="478" y="390"/>
      <point x="439" y="240"/>
      <point x="344" y="152" type="curve" smooth="no"/>
      <point x="374" y="156"/>
      <point x="399" y="162"/>
      <point x="429" y="162" type="curve" smooth="yes"/>
      <point x="1003" y="162" type="line" smooth="no"/>
      <point x="980" y="0" type="line" smooth="no"/>
      <point x="123" y="0" type="line" smooth="no"/>
      <point x="122" y="137" type="line" smooth="no"/>
      <point x="259" y="209"/>
      <point x="299" y="311"/>
      <point x="321" y="467" type="curve" smooth="yes"/>
      <point x="354" y="707" type="line" smooth="no"/>
    </contour>
  </outline>
</glyph>
<glyph name="currency" format="1">
  <advance width="958"/>
  <unicode hex="00a4"/>
  <outline>
    <contour>
      <point x="682" y="1086" type="curve" smooth="yes"/>
      <point x="495" y="1086"/>
      <point x="309" y="912"/>
      <point x="309" y="689" type="curve" smooth="yes"/>
      <point x="309" y="524"/>
      <point x="425" y="396"/>
      <point x="585" y="396" type="curve" smooth="yes"/>
      <point x="772" y="396"/>
      <point x="958" y="570"/>
      <point x="958" y="793" type="curve" smooth="yes"/>
      <point x="958" y="958"/>
      <point x="842" y="1086"/>
    </contour>
    <contour>
      <point x="222" y="679" type="curve" smooth="yes"/>
      <point x="222" y="819"/>
      <point x="277" y="923"/>
      <point x="354" y="1010" type="curve" smooth="no"/>
      <point x="161" y="1229" type="line" smooth="no"/>
      <point x="218" y="1280" type="line" smooth="no"/>
      <point x="407" y="1064" type="line" smooth="no"/>
      <point x="489" y="1134"/>
      <point x="591" y="1176"/>
      <point x="695" y="1176" type="curve" smooth="yes"/>
      <point x="801" y="1176"/>
      <point x="891" y="1133"/>
      <point x="953" y="1061" type="curve" smooth="no"/>
      <point x="1207" y="1280" type="line" smooth="no"/>
      <point x="1241" y="1224" type="line" smooth="no"/>
      <point x="991" y="1008" type="line" smooth="no"/>
      <point x="1026" y="950"/>
      <point x="1046" y="880"/>
      <point x="1046" y="805" type="curve" smooth="yes"/>
      <point x="1046" y="666"/>
      <point x="993" y="562"/>
      <point x="916" y="475" type="curve" smooth="no"/>
      <point x="1105" y="259" type="line" smooth="no"/>
      <point x="1056" y="203" type="line" smooth="no"/>
      <point x="863" y="422" type="line" smooth="no"/>
      <point x="781" y="350"/>
      <point x="678" y="306"/>
      <point x="572" y="306" type="curve" smooth="yes"/>
      <point x="467" y="306"/>
      <point x="378" y="349"/>
      <point x="316" y="419" type="curve" smooth="no"/>
      <point x="66" y="203" type="line" smooth="no"/>
      <point x="24" y="254" type="line" smooth="no"/>
      <point x="278" y="472" type="line" smooth="no"/>
      <point x="242" y="531"/>
      <point x="222" y="602"/>
    </contour>
  </outline>
</glyph>
<glyph name="yen" format="1">
  <advance width="1026"/>
  <unicode hex="00a5"/>
  <outline>
    <contour>
      <point x="633" y="330" type="line" smooth="no"/>
      <point x="586" y="0" type="line" smooth="no"/>
      <point x="440" y="0" type="line" smooth="no"/>
      <point x="487" y="330" type="line" smooth="no"/>
      <point x="123" y="330" type="line" smooth="no"/>
      <point x="140" y="452" type="line" smooth="no"/>
      <point x="503" y="452" type="line" smooth="no"/>
      <point x="530" y="646" type="line" smooth="no"/>
      <point x="170" y="646" type="line" smooth="no"/>
      <point x="187" y="767" type="line" smooth="no"/>
      <point x="514" y="767" type="line" smooth="no"/>
      <point x="228" y="1496" type="line" smooth="no"/>
      <point x="395" y="1496" type="line" smooth="no"/>
      <point x="637" y="875" type="line" smooth="no"/>
      <point x="1062" y="1496" type="line" smooth="no"/>
      <point x="1220" y="1496" type="line" smooth="no"/>
      <point x="717" y="767" type="line" smooth="no"/>
      <point x="1042" y="767" type="line" smooth="no"/>
      <point x="1025" y="646" type="line" smooth="no"/>
      <point x="676" y="646" type="line" smooth="no"/>
      <point x="649" y="452" type="line" smooth="no"/>
      <point x="1001" y="452" type="line" smooth="no"/>
      <point x="983" y="330" type="line" smooth="no"/>
    </contour>
  </outline>
</glyph>
<glyph name="brokenbar" format="1">
  <advance width="423"/>
  <unicode hex="00a6"/>
  <outline>
    <contour>
      <point x="247" y="-301" type="line" smooth="no"/>
      <point x="103" y="-301" type="line" smooth="no"/>
      <point x="193" y="339" type="line" smooth="no"/>
      <point x="337" y="339" type="line" smooth="no"/>
    </contour>
    <contour>
      <point x="424" y="964" type="line" smooth="no"/>
      <point x="280" y="964" type="line" smooth="no"/>
      <point x="370" y="1603" type="line" smooth="no"/>
      <point x="514" y="1603" type="line" smooth="no"/>
    </contour>
  </outline>
</glyph>
<glyph name="dieresis" format="1">
  <advance width="726"/>
  <unicode hex="00a8"/>
  <outline>
    <contour>
      <point x="437" y="1254" type="line" smooth="no"/>
      <point x="290" y="1254" type="line" smooth="no"/>
      <point x="319" y="1466" type="line" smooth="no"/>
      <point x="467" y="1466" type="line" smooth="no"/>
    </contour>
    <contour>
      <point x="806" y="1254" type="line" smooth="no"/>
      <point x="657" y="1254" type="line" smooth="no"/>
      <point x="687" y="1466" type="line" smooth="no"/>
      <point x="835" y="1466" type="line" smooth="no"/>
    </contour>
  </outline>
</glyph>
<glyph name="copyright" format="1">
  <advance width="1723"/>
  <unicode hex="00a9"/>
  <outline>
    <contour>
      <point x="1023" y="1182" type="curve" smooth="yes"/>
      <point x="781" y="1182"/>
      <point x="645" y="954"/>
      <point x="645" y="697" type="curve" smooth="yes"/>
      <point x="645" y="517"/>
      <point x="731" y="387"/>
      <point x="929" y="387" type="curve" smooth="yes"/>
      <point x="1015" y="387"/>
      <point x="1125" y="420"/>
      <point x="1183" y="459" type="curve" smooth="no"/>
      <point x="1204" y="352" type="line" smooth="no"/>
      <point x="1132" y="307"/>
      <point x="1009" y="270"/>
      <point x="893" y="270" type="curve" smooth="yes"/>
      <point x="663" y="270"/>
      <point x="514" y="444"/>
      <point x="514" y="691" type="curve" smooth="yes"/>
      <point x="514" y="721"/>
      <point x="516" y="753"/>
      <point x="521" y="785" type="curve" smooth="yes"/>
      <point x="563" y="1081"/>
      <point x="773" y="1301"/>
      <point x="1047" y="1301" type="curve" smooth="yes"/>
      <point x="1159" y="1301"/>
      <point x="1253" y="1268"/>
      <point x="1322" y="1211" type="curve" smooth="no"/>
      <point x="1253" y="1114" type="line" smooth="no"/>
      <point x="1202" y="1158"/>
      <point x="1109" y="1182"/>
    </contour>
    <contour>
      <point x="857" y="67" type="curve" smooth="yes"/>
      <point x="1278" y="67"/>
      <point x="1542" y="387"/>
      <point x="1597" y="778" type="curve" smooth="yes"/>
      <point x="1604" y="824"/>
      <point x="1607" y="870"/>
      <point x="1607" y="914" type="curve" smooth="yes"/>
      <point x="1607" y="1241"/>
      <point x="1426" y="1493"/>
      <point x="1053" y="1493" type="curve" smooth="yes"/>
      <point x="653" y="1493"/>
      <point x="385" y="1169"/>
      <point x="331" y="783" type="curve" smooth="yes"/>
      <point x="324" y="736"/>
      <point x="321" y="690"/>
      <point x="321" y="646" type="curve" smooth="yes"/>
      <point x="321" y="317"/>
      <point x="501" y="67"/>
    </contour>
    <contour>
      <point x="1706" y="781" type="curve" smooth="yes"/>
      <point x="1630" y="242"/>
      <point x="1233" y="-26"/>
      <point x="844" y="-26" type="curve" smooth="yes"/>
      <point x="513" y="-26"/>
      <point x="211" y="192"/>
      <point x="211" y="631" type="curve" smooth="yes"/>
      <point x="211" y="678"/>
      <point x="215" y="728"/>
      <point x="222" y="781" type="curve" smooth="yes"/>
      <point x="297" y="1318"/>
      <point x="699" y="1586"/>
      <point x="1066" y="1586" type="curve" smooth="yes"/>
      <point x="1417" y="1586"/>
      <point x="1717" y="1366"/>
      <point x="1717" y="930" type="curve" smooth="yes"/>
      <point x="1717" y="883"/>
      <point x="1713" y="833"/>
    </contour>
  </outline>
</glyph>
<glyph name="guillemotleft" format="1">
  <advance width="920"/>
  <unicode hex="00ab"/>
  <outline>
    <contour>
      <point x="518" y="583" type="line" smooth="no"/>
      <point x="822" y="982" type="line" smooth="no"/>
      <point x="950" y="982" type="line" smooth="no"/>
      <point x="679" y="583" type="line" smooth="no"/>
      <point x="832" y="182" type="line" smooth="no"/>
      <point x="706" y="182" type="line" smooth="no"/>
    </contour>
    <contour>
      <point x="196" y="583" type="line" smooth="no"/>
      <point x="479" y="982" type="line" smooth="no"/>
      <point x="639" y="982" type="line" smooth="no"/>
      <point x="337" y="583" type="line" smooth="no"/>
      <point x="517" y="182" type="line" smooth="no"/>
      <point x="361" y="182" type="line" smooth="no"/>
    </contour>
  </outline>
</glyph>
<glyph name="logicalnot" format="1">
  <advance width="1194"/>
  <unicode hex="00ac"/>
  <outline>
    <contour>
      <point x="1100" y="256" type="line" smooth="no"/>
      <point x="972" y="256" type="line" smooth="no"/>
      <point x="1036" y="709" type="line" smooth="no"/>
      <point x="210" y="709" type="line" smooth="no"/>
      <point x="231" y="860" type="line" smooth="no"/>
      <point x="1185" y="860" type="line" smooth="no"/>
    </contour>
  </outline>
</glyph>
<glyph name="uni00AD" format="1">
  <advance width="1149"/>
  <unicode hex="00ad"/>
  <outline>
    <contour>
      <point x="1037" y="0" type="line" smooth="no"/>
      <point x="128" y="0" type="line" smooth="no"/>
      <point x="148" y="148" type="line" smooth="no"/>
      <point x="1058" y="148" type="line" smooth="no"/>
    </contour>
  </outline>
</glyph>
<glyph name="macron" format="1">
  <advance width="770"/>
  <unicode hex="00af"/>
  <outline>
    <contour>
      <point x="637" y="1275" type="line" smooth="no"/>
      <point x="136" y="1275" type="line" smooth="no"/>
      <point x="136" y="1418" type="line" smooth="no"/>
      <point x="637" y="1418" type="line" smooth="no"/>
    </contour>
    <contour>
      <point x="386.5" y="1043" type="move" smooth="yes"/>
    </contour>
  </outline>
</glyph>
<glyph name="uni00AF" format="1">
  <advance width="989"/>
  <unicode hex="00af"/>
  <outline>
    <contour>
      <point x="861" y="1343" type="line" smooth="no"/>
      <point x="842" y="1234" type="line" smooth="no"/>
      <point x="178" y="1234" type="line" smooth="no"/>
      <point x="197" y="1343" type="line" smooth="no"/>
    </contour>
  </outline>
</glyph>
<glyph name="plusminus" format="1">
  <advance width="1153"/>
  <unicode hex="00b1"/>
  <outline>
    <contour>
      <point x="239" y="789" type="line" smooth="no"/>
      <point x="626" y="789" type="line" smooth="no"/>
      <point x="683" y="1193" type="line" smooth="no"/>
      <point x="811" y="1193" type="line" smooth="no"/>
      <point x="754" y="789" type="line" smooth="no"/>
      <point x="1149" y="789" type="line" smooth="no"/>
      <point x="1129" y="642" type="line" smooth="no"/>
      <point x="737" y="642" type="line" smooth="no"/>
      <point x="681" y="240" type="line" smooth="no"/>
      <point x="552" y="240" type="line" smooth="no"/>
      <point x="609" y="642" type="line" smooth="no"/>
      <point x="218" y="642" type="line" smooth="no"/>
    </contour>
    <contour>
      <point x="1041" y="0" type="line" smooth="no"/>
      <point x="128" y="0" type="line" smooth="no"/>
      <point x="148" y="148" type="line" smooth="no"/>
      <point x="1062" y="148" type="line" smooth="no"/>
    </contour>
  </outline>
</glyph>
<glyph name="twosuperior" format="1">
  <advance width="714"/>
  <unicode hex="00b2"/>
  <outline>
    <contour>
      <point x="671" y="650" type="line" smooth="no"/>
      <point x="220" y="650" type="line" smooth="no"/>
      <point x="237" y="769" type="line" smooth="no"/>
      <point x="470" y="1010"/>
      <point x="639" y="1183"/>
      <point x="656" y="1303" type="curve" smooth="yes"/>
      <point x="657" y="1311"/>
      <point x="658" y="1319"/>
      <point x="658" y="1327" type="curve" smooth="yes"/>
      <point x="658" y="1387"/>
      <point x="623" y="1424"/>
      <point x="558" y="1424" type="curve" smooth="yes"/>
      <point x="487" y="1424"/>
      <point x="431" y="1371"/>
      <point x="386" y="1282" type="curve" smooth="no"/>
      <point x="329" y="1367" type="line" smooth="no"/>
      <point x="383" y="1484"/>
      <point x="479" y="1551"/>
      <point x="584" y="1551" type="curve" smooth="yes"/>
      <point x="694" y="1551"/>
      <point x="768" y="1474"/>
      <point x="768" y="1352" type="curve" smooth="yes"/>
      <point x="768" y="1337"/>
      <point x="767" y="1321"/>
      <point x="765" y="1305" type="curve" smooth="yes"/>
      <point x="739" y="1122"/>
      <point x="585" y="965"/>
      <point x="390" y="778" type="curve" smooth="no"/>
      <point x="689" y="778" type="line" smooth="no"/>
    </contour>
  </outline>
</glyph>
<glyph name="acute" format="1">
  <advance width="609"/>
  <unicode hex="00b4"/>
  <outline>
    <contour>
      <point x="751" y="1638" type="line" smooth="no"/>
      <point x="384" y="1250" type="line" smooth="no"/>
      <point x="299" y="1250" type="line" smooth="no"/>
      <point x="532" y="1638" type="line" smooth="no"/>
    </contour>
  </outline>
</glyph>
<glyph name="paragraph" format="1">
  <advance width="1009"/>
  <unicode hex="00b6"/>
  <outline>
    <contour>
      <point x="259" y="1146" type="curve" smooth="yes"/>
      <point x="259" y="1469"/>
      <point x="497" y="1561"/>
      <point x="753" y="1561" type="curve" smooth="yes"/>
      <point x="1100" y="1561" type="line" smooth="no"/>
      <point x="1082" y="1430" type="line" smooth="no"/>
      <point x="1012" y="1430" type="line" smooth="no"/>
      <point x="789" y="-158" type="line" smooth="no"/>
      <point x="679" y="-158" type="line" smooth="no"/>
      <point x="902" y="1430" type="line" smooth="no"/>
      <point x="698" y="1430" type="line" smooth="no"/>
      <point x="475" y="-158" type="line" smooth="no"/>
      <point x="355" y="-158" type="line" smooth="no"/>
      <point x="496" y="847" type="line" smooth="no"/>
      <point x="362" y="850"/>
      <point x="259" y="966"/>
    </contour>
  </outline>
</glyph>
<glyph name="onesuperior" format="1">
  <advance width="574"/>
  <unicode hex="00b9"/>
  <outline>
    <contour>
      <point x="574" y="1538" type="line" smooth="no"/>
      <point x="467" y="775" type="line" smooth="no"/>
      <point x="565" y="775" type="line" smooth="no"/>
      <point x="548" y="650" type="line" smooth="no"/>
      <point x="247" y="650" type="line" smooth="no"/>
      <point x="265" y="778" type="line" smooth="no"/>
      <point x="365" y="778" type="line" smooth="no"/>
      <point x="421" y="1179"/>
      <point x="432" y="1263"/>
      <point x="447" y="1369" type="curve" smooth="no"/>
      <point x="407" y="1344"/>
      <point x="357" y="1317"/>
      <point x="312" y="1294" type="curve" smooth="no"/>
      <point x="332" y="1436" type="line" smooth="no"/>
      <point x="392" y="1461"/>
      <point x="441" y="1487"/>
      <point x="483" y="1519" type="curve" smooth="no"/>
    </contour>
  </outline>
</glyph>
<glyph name="guillemotright" format="1">
  <advance width="937"/>
  <unicode hex="00bb"/>
  <outline>
    <contour>
      <point x="577" y="585" type="line" smooth="no"/>
      <point x="274" y="182" type="line" smooth="no"/>
      <point x="145" y="182" type="line" smooth="no"/>
      <point x="417" y="585" type="line" smooth="no"/>
      <point x="262" y="982" type="line" smooth="no"/>
      <point x="389" y="982" type="line" smooth="no"/>
    </contour>
    <contour>
      <point x="918" y="585" type="line" smooth="no"/>
      <point x="637" y="182" type="line" smooth="no"/>
      <point x="486" y="182" type="line" smooth="no"/>
      <point x="778" y="585" type="line" smooth="no"/>
      <point x="608" y="982" type="line" smooth="no"/>
      <point x="755" y="982" type="line" smooth="no"/>
    </contour>
  </outline>
</glyph>
<glyph name="onehalf" format="1">
  <advance width="1488"/>
  <unicode hex="00bd"/>
  <outline>
    <contour>
      <point x="1361" y="-30" type="line" smooth="no"/>
      <point x="872" y="-30" type="line" smooth="no"/>
      <point x="889" y="93" type="line" smooth="no"/>
      <point x="1158" y="333"/>
      <point x="1353" y="508"/>
      <point x="1370" y="627" type="curve" smooth="yes"/>
      <point x="1371" y="634"/>
      <point x="1371" y="640"/>
      <point x="1371" y="647" type="curve" smooth="yes"/>
      <point x="1371" y="708"/>
      <point x="1330" y="745"/>
      <point x="1252" y="745" type="curve" smooth="yes"/>
      <point x="1170" y="745"/>
      <point x="1101" y="693"/>
      <point x="1051" y="604" type="curve" smooth="no"/>
      <point x="982" y="689" type="line" smooth="no"/>
      <point x="1043" y="806"/>
      <point x="1152" y="872"/>
      <point x="1276" y="872" type="curve" smooth="yes"/>
      <point x="1402" y="872"/>
      <point x="1482" y="796"/>
      <point x="1482" y="673" type="curve" smooth="yes"/>
      <point x="1482" y="659"/>
      <point x="1481" y="644"/>
      <point x="1479" y="629" type="curve" smooth="yes"/>
      <point x="1453" y="445"/>
      <point x="1274" y="287"/>
      <point x="1066" y="99" type="curve" smooth="no"/>
      <point x="1379" y="99" type="line" smooth="no"/>
    </contour>
    <contour>
      <point x="1309" y="1547" type="line" smooth="no"/>
      <point x="1452" y="1547" type="line" smooth="no"/>
      <point x="360" y="0" type="line" smooth="no"/>
      <point x="232" y="0" type="line" smooth="no"/>
    </contour>
    <contour>
      <point x="299" y="1294" type="curve" smooth="no"/>
      <point x="319" y="1436" type="line" smooth="no"/>
      <point x="380" y="1461"/>
      <point x="428" y="1487"/>
      <point x="470" y="1519" type="curve" smooth="no"/>
      <point x="561" y="1538" type="line" smooth="no"/>
      <point x="454" y="775" type="line" smooth="no"/>
      <point x="570" y="775" type="line" smooth="no"/>
      <point x="552" y="650" type="line" smooth="no"/>
      <point x="234" y="650" type="line" smooth="no"/>
      <point x="252" y="778" type="line" smooth="no"/>
      <point x="352" y="778" type="line" smooth="no"/>
      <point x="408" y="1179"/>
      <point x="419" y="1263"/>
      <point x="434" y="1369" type="curve" smooth="no"/>
      <point x="394" y="1344"/>
      <point x="344" y="1317"/>
    </contour>
  </outline>
</glyph>
<glyph name="questiondown" format="1">
  <advance width="818"/>
  <unicode hex="00bf"/>
  <outline>
    <contour>
      <point x="778" y="1464" type="line" smooth="no"/>
      <point x="745" y="1234" type="line" smooth="no"/>
      <point x="534" y="1234" type="line" smooth="no"/>
      <point x="566" y="1464" type="line" smooth="no"/>
    </contour>
    <contour>
      <point x="717" y="207" type="curve" smooth="no"/>
      <point x="739" y="81" type="line" smooth="no"/>
      <point x="647" y="13"/>
      <point x="540" y="-25"/>
      <point x="439" y="-25" type="curve" smooth="yes"/>
      <point x="251" y="-25"/>
      <point x="122" y="70"/>
      <point x="122" y="250" type="curve" smooth="yes"/>
      <point x="122" y="269"/>
      <point x="123" y="289"/>
      <point x="126" y="310" type="curve" smooth="yes"/>
      <point x="171" y="628"/>
      <point x="502" y="660"/>
      <point x="538" y="917" type="curve" smooth="no"/>
      <point x="553" y="1028" type="line" smooth="no"/>
      <point x="682" y="1028" type="line" smooth="no"/>
      <point x="676" y="963" type="line" smooth="no"/>
      <point x="674" y="927"/>
      <point x="670" y="883"/>
      <point x="666" y="854" type="curve" smooth="yes"/>
      <point x="636" y="641"/>
      <point x="311" y="566"/>
      <point x="276" y="317" type="curve" smooth="yes"/>
      <point x="274" y="306"/>
      <point x="274" y="295"/>
      <point x="274" y="285" type="curve" smooth="yes"/>
      <point x="274" y="175"/>
      <point x="365" y="121"/>
      <point x="480" y="121" type="curve" smooth="yes"/>
      <point x="593" y="121"/>
      <point x="667" y="177"/>
    </contour>
  </outline>
</glyph>
<glyph name="AE" format="1">
  <advance width="1945"/>
  <unicode hex="00c6"/>
  <outline>
    <contour>
      <point x="82" y="0" type="line" smooth="no"/>
      <point x="1065" y="1568" type="line" smooth="no"/>
      <point x="2033" y="1568" type="line" smooth="no"/>
      <point x="2010" y="1409" type="line" smooth="no"/>
      <point x="1355" y="1409" type="line" smooth="no"/>
      <point x="1317" y="882" type="line" smooth="no"/>
      <point x="1904" y="882" type="line" smooth="no"/>
      <point x="1882" y="724" type="line" smooth="no"/>
      <point x="1313" y="724" type="line" smooth="no"/>
      <point x="1273" y="158" type="line" smooth="no"/>
      <point x="1853" y="158" type="line" smooth="no"/>
      <point x="1831" y="0" type="line" smooth="no"/>
      <point x="1103" y="0" type="line" smooth="no"/>
      <point x="1134" y="427" type="line" smooth="no"/>
      <point x="509" y="427" type="line" smooth="no"/>
      <point x="242" y="0" type="line" smooth="no"/>
    </contour>
    <contour>
      <point x="1195" y="1409" type="line" smooth="no"/>
      <point x="1146" y="1409" type="line" smooth="no"/>
      <point x="610" y="589" type="line" smooth="no"/>
      <point x="1136" y="589" type="line" smooth="no"/>
    </contour>
  </outline>
</glyph>
<glyph name="multiply" format="1">
  <advance width="924"/>
  <unicode hex="00d7"/>
  <outline>
    <contour>
      <point x="932" y="915" type="line" smooth="no"/>
      <point x="641" y="598" type="line" smooth="no"/>
      <point x="842" y="278" type="line" smooth="no"/>
      <point x="740" y="166" type="line" smooth="no"/>
      <point x="526" y="486" type="line" smooth="no"/>
      <point x="218" y="166" type="line" smooth="no"/>
      <point x="149" y="276" type="line" smooth="no"/>
      <point x="442" y="598" type="line" smooth="no"/>
      <point x="239" y="917" type="line" smooth="no"/>
      <point x="339" y="1027" type="line" smooth="no"/>
      <point x="557" y="707" type="line" smooth="no"/>
      <point x="861" y="1027" type="line" smooth="no"/>
    </contour>
  </outline>
</glyph>
<glyph name="Oslash" format="1">
  <advance width="1571"/>
  <unicode hex="00d8"/>
  <outline>
    <contour>
      <point x="1353" y="1723" type="line" smooth="no"/>
      <point x="1444" y="1673" type="line" smooth="no"/>
      <point x="1321" y="1437" type="line" smooth="no"/>
      <point x="1491" y="1338"/>
      <point x="1580" y="1152"/>
      <point x="1580" y="908" type="curve" smooth="yes"/>
      <point x="1580" y="381"/>
      <point x="1266" y="-13"/>
      <point x="775" y="-13" type="curve" smooth="yes"/>
      <point x="704" y="-13"/>
      <point x="639" y="-5"/>
      <point x="581" y="10" type="curve" smooth="no"/>
      <point x="469" y="-206" type="line" smooth="no"/>
      <point x="383" y="-159" type="line" smooth="no"/>
      <point x="488" y="44" type="line" smooth="no"/>
      <point x="287" y="137"/>
      <point x="188" y="336"/>
      <point x="188" y="590" type="curve" smooth="yes"/>
      <point x="188" y="1138"/>
      <point x="524" y="1515"/>
      <point x="995" y="1515" type="curve" smooth="yes"/>
      <point x="1082" y="1515"/>
      <point x="1159" y="1502"/>
      <point x="1227" y="1479" type="curve" smooth="no"/>
    </contour>
    <contour>
      <point x="652" y="147" type="line" smooth="no"/>
      <point x="695" y="135"/>
      <point x="743" y="129"/>
      <point x="797" y="129" type="curve" smooth="yes"/>
      <point x="1194" y="129"/>
      <point x="1408" y="473"/>
      <point x="1408" y="896" type="curve" smooth="yes"/>
      <point x="1408" y="1073"/>
      <point x="1355" y="1212"/>
      <point x="1247" y="1293" type="curve" smooth="no"/>
    </contour>
    <contour>
      <point x="560" y="185" type="curve" smooth="no"/>
      <point x="1157" y="1342" type="line" smooth="no"/>
      <point x="1105" y="1362"/>
      <point x="1044" y="1373"/>
      <point x="974" y="1373" type="curve" smooth="yes"/>
      <point x="600" y="1373"/>
      <point x="362" y="1054"/>
      <point x="362" y="605" type="curve" smooth="yes"/>
      <point x="362" y="417"/>
      <point x="423" y="263"/>
    </contour>
  </outline>
</glyph>
<glyph name="ae" format="1">
  <advance width="1451"/>
  <unicode hex="00e6"/>
  <outline>
    <contour>
      <point x="872" y="595" type="line" smooth="no"/>
      <point x="910" y="801"/>
      <point x="1000" y="948"/>
      <point x="1173" y="948" type="curve" smooth="yes"/>
      <point x="1248" y="948"/>
      <point x="1326" y="899"/>
      <point x="1326" y="802" type="curve" smooth="yes"/>
      <point x="1326" y="649"/>
      <point x="1184" y="613"/>
      <point x="920" y="597" type="curve" smooth="no"/>
    </contour>
    <contour>
      <point x="380" y="93" type="line" smooth="yes"/>
      <point x="322" y="93"/>
      <point x="244" y="130"/>
      <point x="244" y="223" type="curve" smooth="yes"/>
      <point x="244" y="393"/>
      <point x="401" y="479"/>
      <point x="705" y="479" type="curve" smooth="no"/>
      <point x="675" y="195"/>
      <point x="511" y="102"/>
      <point x="385" y="93" type="curve" smooth="yes"/>
    </contour>
    <contour>
      <point x="743" y="227" type="curve" smooth="no"/>
      <point x="766" y="64"/>
      <point x="912" y="-25"/>
      <point x="1035" y="-25" type="curve" smooth="yes"/>
      <point x="1185" y="-25"/>
      <point x="1289" y="24"/>
      <point x="1348" y="83" type="curve" smooth="no"/>
      <point x="1348" y="209" type="line" smooth="no"/>
      <point x="1281" y="160"/>
      <point x="1172" y="101"/>
      <point x="1061" y="101" type="curve" smooth="yes"/>
      <point x="902" y="101"/>
      <point x="848" y="237"/>
      <point x="848" y="421" type="curve" smooth="yes"/>
      <point x="848" y="449"/>
      <point x="850" y="458"/>
      <point x="852" y="489" type="curve" smooth="no"/>
      <point x="1029" y="500" type="line" smooth="yes"/>
      <point x="1240" y="513"/>
      <point x="1462" y="578"/>
      <point x="1462" y="791" type="curve" smooth="yes"/>
      <point x="1462" y="800" type="line" smooth="no"/>
      <point x="1458" y="958"/>
      <point x="1350" y="1069"/>
      <point x="1178" y="1069" type="curve" smooth="yes"/>
      <point x="1054" y="1069"/>
      <point x="932" y="1003"/>
      <point x="864" y="886" type="curve" smooth="no"/>
      <point x="847" y="986"/>
      <point x="765" y="1069"/>
      <point x="629" y="1069" type="curve" smooth="yes"/>
      <point x="500" y="1069"/>
      <point x="348" y="1023"/>
      <point x="273" y="977" type="curve" smooth="no"/>
      <point x="273" y="846" type="line" smooth="no"/>
      <point x="344" y="887"/>
      <point x="482" y="938"/>
      <point x="593" y="938" type="curve" smooth="yes"/>
      <point x="713" y="938"/>
      <point x="746" y="866"/>
      <point x="746" y="783" type="curve" smooth="yes"/>
      <point x="746" y="746"/>
      <point x="724" y="596"/>
      <point x="724" y="596" type="curve" smooth="no"/>
      <point x="711" y="595"/>
      <point x="614" y="586"/>
      <point x="614" y="586" type="curve" smooth="no"/>
      <point x="324" y="567"/>
      <point x="107" y="469"/>
      <point x="107" y="231" type="curve" smooth="yes"/>
      <point x="107" y="57"/>
      <point x="219" y="-26"/>
      <point x="369" y="-26" type="curve" smooth="yes"/>
      <point x="503" y="-26"/>
      <point x="668" y="74"/>
    </contour>
  </outline>
</glyph>
<glyph name="eth" format="1">
  <advance width="1044"/>
  <unicode hex="00f0"/>
  <outline>
    <contour>
      <point x="1042" y="623" type="curve" smooth="yes"/>
      <point x="1042" y="259"/>
      <point x="847" y="-25"/>
      <point x="519" y="-25" type="curve" smooth="yes"/>
      <point x="268" y="-25"/>
      <point x="141" y="159"/>
      <point x="141" y="390" type="curve" smooth="yes"/>
      <point x="141" y="421"/>
      <point x="143" y="453"/>
      <point x="148" y="486" type="curve" smooth="yes"/>
      <point x="189" y="777"/>
      <point x="381" y="972"/>
      <point x="629" y="972" type="curve" smooth="yes"/>
      <point x="741" y="972"/>
      <point x="809" y="919"/>
      <point x="852" y="877" type="curve" smooth="no"/>
      <point x="825" y="964"/>
      <point x="759" y="1096"/>
      <point x="646" y="1257" type="curve" smooth="no"/>
      <point x="397" y="1145" type="line" smooth="no"/>
      <point x="379" y="1277" type="line" smooth="no"/>
      <point x="580" y="1364" type="line" smooth="no"/>
      <point x="409" y="1588" type="line" smooth="no"/>
      <point x="600" y="1588" type="line" smooth="no"/>
      <point x="722" y="1431" type="line" smooth="no"/>
      <point x="966" y="1542" type="line" smooth="no"/>
      <point x="987" y="1413" type="line" smooth="no"/>
      <point x="786" y="1322" type="line" smooth="no"/>
      <point x="888" y="1151"/>
      <point x="959" y="1014"/>
      <point x="1000" y="884" type="curve" smooth="yes"/>
      <point x="1028" y="796"/>
      <point x="1042" y="712"/>
    </contour>
    <contour>
      <point x="640" y="833" type="curve" smooth="yes"/>
      <point x="439" y="833"/>
      <point x="299" y="640"/>
      <point x="299" y="409" type="curve" smooth="yes"/>
      <point x="299" y="249"/>
      <point x="375" y="114"/>
      <point x="544" y="114" type="curve" smooth="yes"/>
      <point x="729" y="114"/>
      <point x="854" y="271"/>
      <point x="882" y="472" type="curve" smooth="yes"/>
      <point x="885" y="494"/>
      <point x="887" y="516"/>
      <point x="887" y="538" type="curve" smooth="yes"/>
      <point x="887" y="694"/>
      <point x="807" y="833"/>
    </contour>
  </outline>
</glyph>
<glyph name="divide" format="1">
  <advance width="1133"/>
  <unicode hex="00f7"/>
  <outline>
    <contour>
      <point x="678" y="249" type="line" smooth="no"/>
      <point x="646" y="22" type="line" smooth="no"/>
      <point x="463" y="22" type="line" smooth="no"/>
      <point x="495" y="249" type="line" smooth="no"/>
    </contour>
    <contour>
      <point x="839" y="1166" type="line" smooth="no"/>
      <point x="808" y="939" type="line" smooth="no"/>
      <point x="592" y="939" type="line" smooth="no"/>
      <point x="623" y="1166" type="line" smooth="no"/>
    </contour>
    <contour>
      <point x="1104" y="523" type="line" smooth="no"/>
      <point x="167" y="523" type="line" smooth="no"/>
      <point x="188" y="672" type="line" smooth="no"/>
      <point x="1125" y="672" type="line" smooth="no"/>
    </contour>
  </outline>
</glyph>
<glyph name="thorn" format="1">
  <advance width="1049"/>
  <unicode hex="00fe"/>
  <outline>
    <contour>
      <point x="322" y="416" type="curve" smooth="yes"/>
      <point x="322" y="247"/>
      <point x="388" y="113"/>
      <point x="558" y="113" type="curve" smooth="yes"/>
      <point x="759" y="113"/>
      <point x="850" y="344"/>
      <point x="875" y="523" type="curve" smooth="yes"/>
      <point x="880" y="559"/>
      <point x="883" y="597"/>
      <point x="883" y="635" type="curve" smooth="yes"/>
      <point x="883" y="785"/>
      <point x="836" y="931"/>
      <point x="679" y="931" type="curve" smooth="yes"/>
      <point x="457" y="931"/>
      <point x="322" y="682"/>
    </contour>
    <contour>
      <point x="280" y="159" type="curve" smooth="no"/>
      <point x="193" y="-459" type="line" smooth="no"/>
      <point x="49" y="-459" type="line" smooth="no"/>
      <point x="326" y="1510" type="line" smooth="no"/>
      <point x="470" y="1510" type="line" smooth="no"/>
      <point x="381" y="881" type="line" smooth="no"/>
      <point x="472" y="1006"/>
      <point x="581" y="1069"/>
      <point x="708" y="1069" type="curve" smooth="no"/>
      <point x="913" y="1067"/>
      <point x="1032" y="893"/>
      <point x="1032" y="649" type="curve" smooth="yes"/>
      <point x="1032" y="612"/>
      <point x="1029" y="572"/>
      <point x="1023" y="532" type="curve" smooth="yes"/>
      <point x="984" y="254"/>
      <point x="819" y="-25"/>
      <point x="555" y="-25" type="curve" smooth="yes"/>
      <point x="425" y="-25"/>
      <point x="327" y="33"/>
    </contour>
  </outline>
</glyph>
<glyph name="Hbar" format="1">
  <advance width="1371"/>
  <unicode hex="0126"/>
  <outline>
    <contour>
      <point x="1166" y="696" type="line" smooth="no"/>
      <point x="406" y="696" type="line" smooth="no"/>
      <point x="308" y="0" type="line" smooth="no"/>
      <point x="138" y="0" type="line" smooth="no"/>
      <point x="299" y="1146" type="line" smooth="no"/>
      <point x="216" y="1146" type="line" smooth="no"/>
      <point x="231" y="1251" type="line" smooth="no"/>
      <point x="314" y="1251" type="line" smooth="no"/>
      <point x="349" y="1496" type="line" smooth="no"/>
      <point x="519" y="1496" type="line" smooth="no"/>
      <point x="484" y="1251" type="line" smooth="no"/>
      <point x="1244" y="1251" type="line" smooth="no"/>
      <point x="1278" y="1496" type="line" smooth="no"/>
      <point x="1448" y="1496" type="line" smooth="no"/>
      <point x="1414" y="1251" type="line" smooth="no"/>
      <point x="1498" y="1251" type="line" smooth="no"/>
      <point x="1483" y="1146" type="line" smooth="no"/>
      <point x="1399" y="1146" type="line" smooth="no"/>
      <point x="1238" y="0" type="line" smooth="no"/>
      <point x="1068" y="0" type="line" smooth="no"/>
    </contour>
    <contour>
      <point x="469" y="1146" type="line" smooth="no"/>
      <point x="428" y="848" type="line" smooth="no"/>
      <point x="1187" y="848" type="line" smooth="no"/>
      <point x="1229" y="1146" type="line" smooth="no"/>
    </contour>
  </outline>
</glyph>
<glyph name="hbar" format="1">
  <advance width="1079"/>
  <unicode hex="0127"/>
  <outline>
    <contour>
      <point x="248" y="0" type="line" smooth="no"/>
      <point x="105" y="0" type="line" smooth="no"/>
      <point x="284" y="1270" type="line" smooth="no"/>
      <point x="166" y="1270" type="line" smooth="no"/>
      <point x="183" y="1386" type="line" smooth="no"/>
      <point x="300" y="1386" type="line" smooth="no"/>
      <point x="314" y="1487" type="line" smooth="no"/>
      <point x="461" y="1510" type="line" smooth="no"/>
      <point x="443" y="1386" type="line" smooth="no"/>
      <point x="780" y="1386" type="line" smooth="no"/>
      <point x="763" y="1270" type="line" smooth="no"/>
      <point x="427" y="1270" type="line" smooth="no"/>
      <point x="374" y="896" type="line" smooth="no"/>
      <point x="469" y="1007"/>
      <point x="591" y="1069"/>
      <point x="734" y="1069" type="curve" smooth="yes"/>
      <point x="895" y="1069"/>
      <point x="968" y="959"/>
      <point x="968" y="768" type="curve" smooth="yes"/>
      <point x="968" y="726"/>
      <point x="965" y="681"/>
      <point x="958" y="632" type="curve" smooth="yes"/>
      <point x="869" y="0" type="line" smooth="no"/>
      <point x="726" y="0" type="line" smooth="no"/>
      <point x="808" y="582" type="line" smooth="yes"/>
      <point x="817" y="646"/>
      <point x="823" y="701"/>
      <point x="823" y="747" type="curve" smooth="yes"/>
      <point x="823" y="881"/>
      <point x="784" y="945"/>
      <point x="668" y="945" type="curve" smooth="yes"/>
      <point x="521" y="945"/>
      <point x="385" y="813"/>
      <point x="348" y="706" type="curve" smooth="no"/>
    </contour>
  </outline>
</glyph>
<glyph name="dotlessi" format="1">
  <advance width="388"/>
  <unicode hex="0131"/>
  <outline>
    <contour>
      <point x="415" y="1043" type="line" smooth="no"/>
      <point x="268" y="0" type="line" smooth="no"/>
      <point x="124" y="0" type="line" smooth="no"/>
      <point x="270" y="1043" type="line" smooth="no"/>
    </contour>
  </outline>
</glyph>
<glyph name="Lslash" format="1">
  <advance width="960"/>
  <unicode hex="0141"/>
  <outline>
    <contour>
      <point x="352" y="1496" type="line" smooth="no"/>
      <point x="522" y="1496" type="line" smooth="no"/>
      <point x="432" y="857" type="line" smooth="no"/>
      <point x="781" y="1045" type="line" smooth="no"/>
      <point x="759" y="889" type="line" smooth="no"/>
      <point x="411" y="705" type="line" smooth="no"/>
      <point x="334" y="155" type="line" smooth="no"/>
      <point x="945" y="155" type="line" smooth="no"/>
      <point x="912" y="0" type="line" smooth="no"/>
      <point x="142" y="0" type="line" smooth="no"/>
      <point x="227" y="608" type="line" smooth="no"/>
      <point x="74" y="527" type="line" smooth="no"/>
      <point x="95" y="675" type="line" smooth="no"/>
      <point x="248" y="758" type="line" smooth="no"/>
    </contour>
  </outline>
</glyph>
<glyph name="Tbar" format="1">
  <advance width="1050"/>
  <unicode hex="0166"/>
  <outline>
    <contour>
      <point x="186" y="1341" type="line" smooth="no"/>
      <point x="207" y="1496" type="line" smooth="no"/>
      <point x="1210" y="1496" type="line" smooth="no"/>
      <point x="1188" y="1341" type="line" smooth="no"/>
      <point x="771" y="1341" type="line" smooth="no"/>
      <point x="675" y="654" type="line" smooth="no"/>
      <point x="809" y="654" type="line" smooth="no"/>
      <point x="791" y="531" type="line" smooth="no"/>
      <point x="657" y="531" type="line" smooth="no"/>
      <point x="583" y="0" type="line" smooth="no"/>
      <point x="413" y="0" type="line" smooth="no"/>
      <point x="487" y="531" type="line" smooth="no"/>
      <point x="313" y="531" type="line" smooth="no"/>
      <point x="330" y="654" type="line" smooth="no"/>
      <point x="505" y="654" type="line" smooth="no"/>
      <point x="601" y="1341" type="line" smooth="no"/>
    </contour>
  </outline>
</glyph>
<glyph name="tbar" format="1">
  <advance width="650"/>
  <unicode hex="0167"/>
  <outline>
    <contour>
      <point x="122" y="638" type="line" smooth="no"/>
      <point x="140" y="764" type="line" smooth="no"/>
      <point x="271" y="764" type="line" smooth="no"/>
      <point x="294" y="925" type="line" smooth="no"/>
      <point x="151" y="925" type="line" smooth="no"/>
      <point x="179" y="1043" type="line" smooth="no"/>
      <point x="311" y="1043" type="line" smooth="no"/>
      <point x="406" y="1452" type="line" smooth="no"/>
      <point x="514" y="1462" type="line" smooth="no"/>
      <point x="455" y="1043" type="line" smooth="no"/>
      <point x="704" y="1043" type="line" smooth="no"/>
      <point x="687" y="925" type="line" smooth="no"/>
      <point x="438" y="925" type="line" smooth="no"/>
      <point x="416" y="764" type="line" smooth="no"/>
      <point x="593" y="764" type="line" smooth="no"/>
      <point x="575" y="638" type="line" smooth="no"/>
      <point x="398" y="638" type="line" smooth="no"/>
      <point x="358" y="351" type="line" smooth="yes"/>
      <point x="351" y="299"/>
      <point x="346" y="258"/>
      <point x="346" y="226" type="curve" smooth="yes"/>
      <point x="346" y="136"/>
      <point x="379" y="109"/>
      <point x="431" y="109" type="curve" smooth="yes"/>
      <point x="472" y="109"/>
      <point x="525" y="126"/>
      <point x="582" y="142" type="curve" smooth="no"/>
      <point x="581" y="17" type="line" smooth="no"/>
      <point x="507" y="-3"/>
      <point x="439" y="-17"/>
      <point x="381" y="-17" type="curve" smooth="yes"/>
      <point x="271" y="-17"/>
      <point x="200" y="33"/>
      <point x="200" y="182" type="curve" smooth="yes"/>
      <point x="200" y="244"/>
      <point x="210" y="323"/>
      <point x="223" y="419" type="curve" smooth="yes"/>
      <point x="254" y="638" type="line" smooth="no"/>
    </contour>
  </outline>
</glyph>
<glyph name="uni018F" format="1">
  <advance width="1336"/>
  <unicode hex="018f"/>
  <outline>
    <contour>
      <point x="616" y="-23" type="curve" smooth="yes"/>
      <point x="240" y="-23"/>
      <point x="120" y="265"/>
      <point x="120" y="544" type="curve" smooth="yes"/>
      <point x="120" y="576"/>
      <point x="122" y="609"/>
      <point x="125" y="641" type="curve" smooth="no"/>
      <point x="131" y="686"/>
      <point x="151" y="777"/>
      <point x="151" y="777" type="curve" smooth="no"/>
      <point x="1164" y="777" type="line" smooth="no"/>
      <point x="1169" y="817"/>
      <point x="1171" y="856"/>
      <point x="1171" y="895" type="curve" smooth="yes"/>
      <point x="1171" y="1155"/>
      <point x="1057" y="1373"/>
      <point x="745" y="1373" type="curve" smooth="yes"/>
      <point x="600" y="1373"/>
      <point x="483" y="1316"/>
      <point x="380" y="1250" type="curve" smooth="no"/>
      <point x="336" y="1384" type="line" smooth="no"/>
      <point x="469" y="1479"/>
      <point x="589" y="1525"/>
      <point x="781" y="1525" type="curve" smooth="yes"/>
      <point x="1166" y="1525"/>
      <point x="1354" y="1259"/>
      <point x="1354" y="908" type="curve" smooth="yes"/>
      <point x="1354" y="859"/>
      <point x="1350" y="809"/>
      <point x="1343" y="757" type="curve" smooth="yes"/>
      <point x="1280" y="309"/>
      <point x="983" y="-23"/>
    </contour>
    <contour>
      <point x="1136" y="631" type="curve" smooth="no"/>
      <point x="292" y="631" type="line" smooth="no"/>
      <point x="290" y="603"/>
      <point x="288" y="574"/>
      <point x="288" y="544" type="curve" smooth="yes"/>
      <point x="288" y="347"/>
      <point x="350" y="129"/>
      <point x="638" y="129" type="curve" smooth="yes"/>
      <point x="883" y="129"/>
      <point x="1066" y="351"/>
    </contour>
  </outline>
</glyph>
<glyph name="florin" format="1">
  <advance width="842"/>
  <unicode hex="0192"/>
  <outline>
    <contour>
      <point x="475" y="865" type="curve" smooth="no"/>
      <point x="340" y="865" type="line" smooth="no"/>
      <point x="371" y="1015" type="line" smooth="no"/>
      <point x="519" y="1015" type="line" smooth="no"/>
      <point x="560" y="1178" type="line" smooth="no"/>
      <point x="610" y="1370"/>
      <point x="701" y="1547"/>
      <point x="888" y="1547" type="curve" smooth="yes"/>
      <point x="921" y="1547"/>
      <point x="960" y="1537"/>
      <point x="995" y="1525" type="curve" smooth="no"/>
      <point x="966" y="1369" type="line" smooth="no"/>
      <point x="937" y="1385"/>
      <point x="911" y="1393"/>
      <point x="887" y="1393" type="curve" smooth="yes"/>
      <point x="798" y="1393"/>
      <point x="762" y="1334"/>
      <point x="733" y="1227" type="curve" smooth="no"/>
      <point x="670" y="1015" type="line" smooth="no"/>
      <point x="829" y="1015" type="line" smooth="no"/>
      <point x="799" y="865" type="line" smooth="no"/>
      <point x="630" y="865" type="line" smooth="no"/>
      <point x="413" y="130" type="line" smooth="no"/>
      <point x="336" y="-127"/>
      <point x="248" y="-358"/>
      <point x="53" y="-358" type="curve" smooth="yes"/>
      <point x="32" y="-358"/>
      <point x="7" y="-350"/>
      <point x="-22" y="-339" type="curve" smooth="no"/>
      <point x="8" y="-192" type="line" smooth="no"/>
      <point x="30" y="-203"/>
      <point x="48" y="-210"/>
      <point x="64" y="-210" type="curve" smooth="yes"/>
      <point x="137" y="-210"/>
      <point x="183" y="-110"/>
      <point x="220" y="6" type="curve" smooth="no"/>
      <point x="313" y="281"/>
      <point x="390" y="583"/>
    </contour>
  </outline>
</glyph>
<glyph name="scommaaccent" format="1">
  <advance width="909"/>
  <unicode hex="0219"/>
  <outline>
    <contour>
      <point x="333" y="-645" type="line" smooth="no"/>
      <point x="428" y="-147" type="line" smooth="no"/>
      <point x="593" y="-147" type="line" smooth="no"/>
      <point x="449" y="-645" type="line" smooth="no"/>
    </contour>
    <contour>
      <point x="647" y="312" type="curve" smooth="yes"/>
      <point x="647" y="369"/>
      <point x="614" y="421"/>
      <point x="525" y="449" type="curve" smooth="yes"/>
      <point x="407" y="487" type="line" smooth="no"/>
      <point x="248" y="537"/>
      <point x="197" y="621"/>
      <point x="197" y="725" type="curve" smooth="yes"/>
      <point x="197" y="908"/>
      <point x="334" y="1069"/>
      <point x="556" y="1069" type="curve" smooth="yes"/>
      <point x="677" y="1069"/>
      <point x="766" y="1041"/>
      <point x="832" y="998" type="curve" smooth="no"/>
      <point x="781" y="881" type="line" smooth="no"/>
      <point x="733" y="907"/>
      <point x="651" y="946"/>
      <point x="548" y="946" type="curve" smooth="yes"/>
      <point x="442" y="945"/>
      <point x="344" y="877"/>
      <point x="344" y="750" type="curve" smooth="yes"/>
      <point x="344" y="697"/>
      <point x="374" y="656"/>
      <point x="459" y="629" type="curve" smooth="yes"/>
      <point x="581" y="590" type="line" smooth="no"/>
      <point x="710" y="550"/>
      <point x="782" y="478"/>
      <point x="782" y="345" type="curve" smooth="yes"/>
      <point x="782" y="107"/>
      <point x="615" y="-25"/>
      <point x="423" y="-25" type="curve" smooth="yes"/>
      <point x="279" y="-25"/>
      <point x="162" y="29"/>
      <point x="112" y="78" type="curve" smooth="no"/>
      <point x="166" y="200" type="line" smooth="no"/>
      <point x="198" y="173"/>
      <point x="294" y="103"/>
      <point x="422" y="103" type="curve" smooth="yes"/>
      <point x="540" y="103"/>
      <point x="647" y="168"/>
    </contour>
  </outline>
</glyph>
<glyph name="afii57929" format="1">
  <advance width="477"/>
  <unicode hex="02bc"/>
  <outline>
    <contour>
      <point x="283" y="1102" type="line" smooth="no"/>
      <point x="438" y="1574" type="line" smooth="no"/>
      <point x="589" y="1574" type="line" smooth="no"/>
      <point x="394" y="1102" type="line" smooth="no"/>
    </contour>
  </outline>
</glyph>
<glyph name="circumflex" format="1">
  <advance width="762"/>
  <unicode hex="02c6"/>
  <outline>
    <contour>
      <point x="279" y="1251" type="line" smooth="no"/>
      <point x="514" y="1639" type="line" smooth="no"/>
      <point x="718" y="1639" type="line" smooth="no"/>
      <point x="843" y="1251" type="line" smooth="no"/>
      <point x="714" y="1251" type="line" smooth="no"/>
      <point x="598" y="1523" type="line" smooth="no"/>
      <point x="405" y="1251" type="line" smooth="no"/>
    </contour>
  </outline>
</glyph>
<glyph name="caron" format="1">
  <advance width="762"/>
  <unicode hex="02c7"/>
  <outline>
    <contour>
      <point x="334" y="1639" type="line" smooth="no"/>
      <point x="460" y="1639" type="line" smooth="no"/>
      <point x="570" y="1327" type="line" smooth="no"/>
      <point x="769" y="1639" type="line" smooth="no"/>
      <point x="898" y="1639" type="line" smooth="no"/>
      <point x="663" y="1251" type="line" smooth="no"/>
      <point x="459" y="1251" type="line" smooth="no"/>
    </contour>
  </outline>
</glyph>
<glyph name="breve" format="1">
  <advance width="709"/>
  <unicode hex="02d8"/>
  <outline>
    <contour>
      <point x="540" y="1299" type="curve" smooth="yes"/>
      <point x="435" y="1299"/>
      <point x="339" y="1370"/>
      <point x="339" y="1510" type="curve" smooth="yes"/>
      <point x="339" y="1525"/>
      <point x="340" y="1540"/>
      <point x="342" y="1557" type="curve" smooth="no"/>
      <point x="453" y="1557" type="line" smooth="no"/>
      <point x="452" y="1547"/>
      <point x="451" y="1536"/>
      <point x="451" y="1527" type="curve" smooth="yes"/>
      <point x="451" y="1451"/>
      <point x="496" y="1416"/>
      <point x="557" y="1416" type="curve" smooth="yes"/>
      <point x="625" y="1416"/>
      <point x="690" y="1461"/>
      <point x="703" y="1557" type="curve" smooth="no"/>
      <point x="816" y="1557" type="line" smooth="no"/>
      <point x="792" y="1385"/>
      <point x="657" y="1299"/>
    </contour>
  </outline>
</glyph>
<glyph name="dotaccent" format="1">
  <advance width="391"/>
  <unicode hex="02d9"/>
  <outline>
    <contour>
      <point x="269" y="1387" type="curve" smooth="yes"/>
      <point x="269" y="1467"/>
      <point x="327" y="1539"/>
      <point x="416" y="1539" type="curve" smooth="yes"/>
      <point x="492" y="1539"/>
      <point x="526" y="1486"/>
      <point x="526" y="1428" type="curve" smooth="yes"/>
      <point x="526" y="1348"/>
      <point x="469" y="1275"/>
      <point x="379" y="1275" type="curve" smooth="yes"/>
      <point x="304" y="1275"/>
      <point x="269" y="1328"/>
    </contour>
  </outline>
</glyph>
<glyph name="ring" format="1">
  <advance width="596"/>
  <unicode hex="02da"/>
  <outline>
    <contour>
      <point x="483" y="1257" type="curve" smooth="yes"/>
      <point x="394" y="1257"/>
      <point x="321" y="1316"/>
      <point x="321" y="1413" type="curve" smooth="yes"/>
      <point x="321" y="1550"/>
      <point x="434" y="1638"/>
      <point x="534" y="1638" type="curve" smooth="yes"/>
      <point x="623" y="1638"/>
      <point x="692" y="1569"/>
      <point x="692" y="1472" type="curve" smooth="yes"/>
      <point x="692" y="1338"/>
      <point x="583" y="1257"/>
    </contour>
    <contour>
      <point x="598" y="1463" type="curve" smooth="yes"/>
      <point x="598" y="1515"/>
      <point x="568" y="1557"/>
      <point x="523" y="1557" type="curve" smooth="yes"/>
      <point x="470" y="1557"/>
      <point x="413" y="1492"/>
      <point x="413" y="1418" type="curve" smooth="yes"/>
      <point x="413" y="1364"/>
      <point x="441" y="1330"/>
      <point x="491" y="1330" type="curve" smooth="yes"/>
      <point x="543" y="1330"/>
      <point x="598" y="1391"/>
    </contour>
  </outline>
</glyph>
<glyph name="ogonek" format="1">
  <advance width="553"/>
  <unicode hex="02db"/>
  <outline>
    <contour>
      <point x="401" y="5" type="line" smooth="no"/>
      <point x="292" y="-72"/>
      <point x="202" y="-147"/>
      <point x="202" y="-226" type="curve" smooth="yes"/>
      <point x="202" y="-272"/>
      <point x="238" y="-303"/>
      <point x="273" y="-303" type="curve" smooth="yes"/>
      <point x="323" y="-303"/>
      <point x="355" y="-291"/>
      <point x="405" y="-270" type="curve" smooth="no"/>
      <point x="388" y="-387" type="line" smooth="no"/>
      <point x="350" y="-403"/>
      <point x="287" y="-419"/>
      <point x="236" y="-419" type="curve" smooth="yes"/>
      <point x="144" y="-419"/>
      <point x="77" y="-368"/>
      <point x="77" y="-274" type="curve" smooth="yes"/>
      <point x="77" y="-140"/>
      <point x="206" y="-55"/>
      <point x="326" y="5" type="curve" smooth="no"/>
    </contour>
  </outline>
</glyph>
<glyph name="tilde" format="1">
  <advance width="830"/>
  <unicode hex="02dc"/>
  <outline>
    <contour>
      <point x="395" y="1291" type="curve" smooth="no"/>
      <point x="292" y="1291" type="line" smooth="no"/>
      <point x="313" y="1441"/>
      <point x="384" y="1510"/>
      <point x="484" y="1510" type="curve" smooth="yes"/>
      <point x="600" y="1510"/>
      <point x="710" y="1416"/>
      <point x="745" y="1416" type="curve" smooth="yes"/>
      <point x="747" y="1416" type="line" smooth="no"/>
      <point x="785" y="1419"/>
      <point x="795" y="1468"/>
      <point x="804" y="1510" type="curve" smooth="no"/>
      <point x="908" y="1510" type="line" smooth="no"/>
      <point x="889" y="1373"/>
      <point x="837" y="1291"/>
      <point x="738" y="1291" type="curve" smooth="yes"/>
      <point x="654" y="1291"/>
      <point x="534" y="1388"/>
      <point x="461" y="1388" type="curve" smooth="yes"/>
      <point x="459" y="1388" type="line" smooth="no"/>
      <point x="428" y="1387"/>
      <point x="406" y="1346"/>
    </contour>
  </outline>
</glyph>
<glyph name="hungarumlaut" format="1">
  <advance width="779"/>
  <unicode hex="02dd"/>
  <outline>
    <contour>
      <point x="909" y="1594" type="line" smooth="no"/>
      <point x="621" y="1259" type="line" smooth="no"/>
      <point x="524" y="1259" type="line" smooth="no"/>
      <point x="765" y="1594" type="line" smooth="no"/>
    </contour>
    <contour>
      <point x="684" y="1594" type="line" smooth="no"/>
      <point x="395" y="1259" type="line" smooth="no"/>
      <point x="300" y="1259" type="line" smooth="no"/>
      <point x="537" y="1594" type="line" smooth="no"/>
    </contour>
  </outline>
</glyph>
<glyph name="uni030F" format="1">
  <advance width="814"/>
  <unicode hex="030f"/>
  <outline>
    <contour>
      <point x="779" y="1259" type="line" smooth="no"/>
      <point x="589" y="1594" type="line" smooth="no"/>
      <point x="734" y="1594" type="line" smooth="no"/>
      <point x="877" y="1259" type="line" smooth="no"/>
    </contour>
    <contour>
      <point x="522" y="1259" type="line" smooth="no"/>
      <point x="329" y="1594" type="line" smooth="no"/>
      <point x="473" y="1594" type="line" smooth="no"/>
      <point x="620" y="1259" type="line" smooth="no"/>
    </contour>
  </outline>
</glyph>
<glyph name="uni0311" format="1">
  <advance width="721"/>
  <unicode hex="0311"/>
  <outline>
    <contour>
      <point x="582" y="1557" type="curve" smooth="yes"/>
      <point x="688" y="1557"/>
      <point x="788" y="1486"/>
      <point x="788" y="1345" type="curve" smooth="yes"/>
      <point x="788" y="1330"/>
      <point x="787" y="1315"/>
      <point x="785" y="1299" type="curve" smooth="no"/>
      <point x="673" y="1299" type="line" smooth="no"/>
      <point x="674" y="1309"/>
      <point x="675" y="1318"/>
      <point x="675" y="1327" type="curve" smooth="yes"/>
      <point x="675" y="1404"/>
      <point x="627" y="1440"/>
      <point x="566" y="1440" type="curve" smooth="yes"/>
      <point x="498" y="1440"/>
      <point x="436" y="1395"/>
      <point x="423" y="1299" type="curve" smooth="no"/>
      <point x="311" y="1299" type="line" smooth="no"/>
      <point x="335" y="1471"/>
      <point x="466" y="1557"/>
    </contour>
  </outline>
</glyph>
<glyph name="Epsilontonos" format="1">
  <advance width="444"/>
  <unicode hex="0388"/>
  <outline>
    <contour>
      <point x="192" y="644" type="curve" smooth="yes"/>
      <point x="192" y="724"/>
      <point x="250" y="796"/>
      <point x="339" y="796" type="curve" smooth="yes"/>
      <point x="415" y="796"/>
      <point x="450" y="743"/>
      <point x="450" y="684" type="curve" smooth="yes"/>
      <point x="450" y="604"/>
      <point x="392" y="532"/>
      <point x="302" y="532" type="curve" smooth="yes"/>
      <point x="227" y="532"/>
      <point x="192" y="585"/>
    </contour>
  </outline>
</glyph>
<glyph name="Gamma" format="1">
  <advance width="1094"/>
  <unicode hex="0393"/>
  <outline>
    <contour>
      <point x="1131" y="1341" type="line" smooth="no"/>
      <point x="499" y="1341" type="line" smooth="no"/>
      <point x="310" y="0" type="line" smooth="no"/>
      <point x="140" y="0" type="line" smooth="no"/>
      <point x="350" y="1496" type="line" smooth="no"/>
      <point x="1167" y="1496" type="line" smooth="no"/>
    </contour>
  </outline>
</glyph>
<glyph name="Delta" format="1">
  <advance width="1176"/>
  <unicode hex="0394"/>
  <outline>
    <contour>
      <point x="987" y="155" type="line" smooth="no"/>
      <point x="771" y="1306" type="line" smooth="no"/>
      <point x="236" y="155" type="line" smooth="no"/>
    </contour>
    <contour>
      <point x="-10" y="0" type="line" smooth="no"/>
      <point x="711" y="1496" type="line" smooth="no"/>
      <point x="883" y="1496" type="line" smooth="no"/>
      <point x="1185" y="0" type="line" smooth="no"/>
    </contour>
  </outline>
</glyph>
<glyph name="Eta" format="1">
  <advance width="1465"/>
  <unicode hex="0397"/>
  <outline>
    <contour>
      <point x="1169" y="696" type="line" smooth="no"/>
      <point x="409" y="696" type="line" smooth="no"/>
      <point x="311" y="0" type="line" smooth="no"/>
      <point x="141" y="0" type="line" smooth="no"/>
      <point x="351" y="1496" type="line" smooth="no"/>
      <point x="521" y="1496" type="line" smooth="no"/>
      <point x="430" y="848" type="line" smooth="no"/>
      <point x="1190" y="848" type="line" smooth="no"/>
      <point x="1281" y="1496" type="line" smooth="no"/>
      <point x="1451" y="1496" type="line" smooth="no"/>
      <point x="1241" y="0" type="line" smooth="no"/>
      <point x="1071" y="0" type="line" smooth="no"/>
    </contour>
  </outline>
</glyph>
<glyph name="Kappa" format="1">
  <advance width="1228"/>
  <unicode hex="039a"/>
  <outline>
    <contour>
      <point x="663" y="799" type="line" smooth="no"/>
      <point x="1193" y="0" type="line" smooth="no"/>
      <point x="979" y="0" type="line" smooth="no"/>
      <point x="518" y="703" type="line" smooth="no"/>
      <point x="395" y="602" type="line" smooth="no"/>
      <point x="310" y="0" type="line" smooth="no"/>
      <point x="140" y="0" type="line" smooth="no"/>
      <point x="350" y="1496" type="line" smooth="no"/>
      <point x="520" y="1496" type="line" smooth="no"/>
      <point x="418" y="770" type="line" smooth="no"/>
      <point x="1114" y="1496" type="line" smooth="no"/>
      <point x="1337" y="1496" type="line" smooth="no"/>
    </contour>
  </outline>
</glyph>
<glyph name="Lambda" format="1">
  <advance width="1176"/>
  <unicode hex="039b"/>
  <outline>
    <contour>
      <point x="771" y="1306" type="line" smooth="no"/>
      <point x="164" y="0" type="line" smooth="no"/>
      <point x="-10" y="0" type="line" smooth="no"/>
      <point x="711" y="1496" type="line" smooth="no"/>
      <point x="883" y="1496" type="line" smooth="no"/>
      <point x="1185" y="0" type="line" smooth="no"/>
      <point x="1016" y="0" type="line" smooth="no"/>
    </contour>
  </outline>
</glyph>
<glyph name="Nu" format="1">
  <advance width="1488"/>
  <unicode hex="039d"/>
  <outline>
    <contour>
      <point x="1261" y="0" type="line" smooth="no"/>
      <point x="1073" y="0" type="line" smooth="no"/>
      <point x="476" y="1239" type="line" smooth="no"/>
      <point x="301" y="0" type="line" smooth="no"/>
      <point x="141" y="0" type="line" smooth="no"/>
      <point x="351" y="1496" type="line" smooth="no"/>
      <point x="537" y="1496" type="line" smooth="no"/>
      <point x="1141" y="253" type="line" smooth="no"/>
      <point x="1315" y="1496" type="line" smooth="no"/>
      <point x="1472" y="1496" type="line" smooth="no"/>
    </contour>
  </outline>
</glyph>
<glyph name="Omicron" format="1">
  <advance width="1661"/>
  <unicode hex="039f"/>
  <outline>
    <contour>
      <point x="973" y="1373" type="curve" smooth="yes"/>
      <point x="638" y="1373"/>
      <point x="434" y="1123"/>
      <point x="381" y="746" type="curve" smooth="yes"/>
      <point x="374" y="697"/>
      <point x="371" y="650"/>
      <point x="371" y="604" type="curve" smooth="yes"/>
      <point x="371" y="330"/>
      <point x="498" y="129"/>
      <point x="798" y="129" type="curve" smooth="yes"/>
      <point x="1148" y="129"/>
      <point x="1339" y="402"/>
      <point x="1387" y="746" type="curve" smooth="yes"/>
      <point x="1394" y="799"/>
      <point x="1398" y="849"/>
      <point x="1398" y="897" type="curve" smooth="yes"/>
      <point x="1398" y="1186"/>
      <point x="1261" y="1373"/>
    </contour>
    <contour>
      <point x="776" y="-23" type="curve" smooth="yes"/>
      <point x="382" y="-23"/>
      <point x="188" y="231"/>
      <point x="188" y="589" type="curve" smooth="yes"/>
      <point x="188" y="639"/>
      <point x="192" y="692"/>
      <point x="200" y="746" type="curve" smooth="yes"/>
      <point x="265" y="1211"/>
      <point x="560" y="1525"/>
      <point x="994" y="1525" type="curve" smooth="yes"/>
      <point x="1375" y="1525"/>
      <point x="1580" y="1283"/>
      <point x="1580" y="909" type="curve" smooth="yes"/>
      <point x="1580" y="857"/>
      <point x="1576" y="802"/>
      <point x="1568" y="746" type="curve" smooth="yes"/>
      <point x="1506" y="308"/>
      <point x="1225" y="-23"/>
    </contour>
  </outline>
</glyph>
<glyph name="Pi" format="1">
  <advance width="1374"/>
  <unicode hex="03a0"/>
  <outline>
    <contour>
      <point x="1260" y="1344" type="line" smooth="no"/>
      <point x="500" y="1344" type="line" smooth="no"/>
      <point x="311" y="0" type="line" smooth="no"/>
      <point x="141" y="0" type="line" smooth="no"/>
      <point x="351" y="1496" type="line" smooth="no"/>
      <point x="1451" y="1496" type="line" smooth="no"/>
      <point x="1241" y="0" type="line" smooth="no"/>
      <point x="1071" y="0" type="line" smooth="no"/>
    </contour>
  </outline>
</glyph>
<glyph name="Upsilon" format="1">
  <advance width="1242"/>
  <unicode hex="03a5"/>
  <outline>
    <contour>
      <point x="1377" y="1496" type="line" smooth="no"/>
      <point x="730" y="614" type="line" smooth="no"/>
      <point x="644" y="0" type="line" smooth="no"/>
      <point x="474" y="0" type="line" smooth="no"/>
      <point x="561" y="614" type="line" smooth="no"/>
      <point x="209" y="1496" type="line" smooth="no"/>
      <point x="384" y="1496" type="line" smooth="no"/>
      <point x="680" y="778" type="line" smooth="no"/>
      <point x="1193" y="1496" type="line" smooth="no"/>
    </contour>
  </outline>
</glyph>
<glyph name="Chi" format="1">
  <advance width="1299"/>
  <unicode hex="03a7"/>
  <outline>
    <contour>
      <point x="11" y="0" type="line" smooth="no"/>
      <point x="616" y="781" type="line" smooth="no"/>
      <point x="252" y="1496" type="line" smooth="no"/>
      <point x="457" y="1496" type="line" smooth="no"/>
      <point x="747" y="892" type="line" smooth="no"/>
      <point x="1232" y="1496" type="line" smooth="no"/>
      <point x="1414" y="1496" type="line" smooth="no"/>
      <point x="844" y="781" type="line" smooth="no"/>
      <point x="1212" y="0" type="line" smooth="no"/>
      <point x="1015" y="0" type="line" smooth="no"/>
      <point x="711" y="680" type="line" smooth="no"/>
      <point x="198" y="0" type="line" smooth="no"/>
    </contour>
  </outline>
</glyph>
<glyph name="Iotadieresis" format="1">
  <advance width="509"/>
  <unicode hex="03aa"/>
  <outline>
    <contour>
      <point x="350" y="1627" type="line" smooth="no"/>
      <point x="203" y="1627" type="line" smooth="no"/>
      <point x="232" y="1839" type="line" smooth="no"/>
      <point x="380" y="1839" type="line" smooth="no"/>
    </contour>
    <contour>
      <point x="719" y="1627" type="line" smooth="no"/>
      <point x="570" y="1627" type="line" smooth="no"/>
      <point x="600" y="1839" type="line" smooth="no"/>
      <point x="748" y="1839" type="line" smooth="no"/>
    </contour>
    <contour>
      <point x="537" y="1496" type="line" smooth="no"/>
      <point x="326" y="0" type="line" smooth="no"/>
      <point x="156" y="0" type="line" smooth="no"/>
      <point x="367" y="1496" type="line" smooth="no"/>
    </contour>
  </outline>
</glyph>
<glyph name="Upsilondieresis" format="1">
  <advance width="1242"/>
  <unicode hex="03ab"/>
  <outline>
    <contour>
      <point x="720" y="1627" type="line" smooth="no"/>
      <point x="573" y="1627" type="line" smooth="no"/>
      <point x="602" y="1839" type="line" smooth="no"/>
      <point x="750" y="1839" type="line" smooth="no"/>
    </contour>
    <contour>
      <point x="1089" y="1627" type="line" smooth="no"/>
      <point x="940" y="1627" type="line" smooth="no"/>
      <point x="970" y="1839" type="line" smooth="no"/>
      <point x="1118" y="1839" type="line" smooth="no"/>
    </contour>
    <contour>
      <point x="1377" y="1496" type="line" smooth="no"/>
      <point x="730" y="614" type="line" smooth="no"/>
      <point x="644" y="0" type="line" smooth="no"/>
      <point x="474" y="0" type="line" smooth="no"/>
      <point x="561" y="614" type="line" smooth="no"/>
      <point x="209" y="1496" type="line" smooth="no"/>
      <point x="384" y="1496" type="line" smooth="no"/>
      <point x="680" y="778" type="line" smooth="no"/>
      <point x="1193" y="1496" type="line" smooth="no"/>
    </contour>
  </outline>
</glyph>
<glyph name="pi" format="1">
  <advance width="1271"/>
  <unicode hex="03c0"/>
  <outline>
    <contour>
      <point x="1268" y="1065" type="line" smooth="no"/>
      <point x="1248" y="921" type="line" smooth="no"/>
      <point x="1092" y="921" type="line" smooth="no"/>
      <point x="1005" y="302" type="line" smooth="yes"/>
      <point x="1002" y="282"/>
      <point x="999" y="259"/>
      <point x="999" y="237" type="curve" smooth="yes"/>
      <point x="999" y="195"/>
      <point x="1011" y="158"/>
      <point x="1060" y="158" type="curve" smooth="yes"/>
      <point x="1076" y="158"/>
      <point x="1098" y="164"/>
      <point x="1124" y="171" type="curve" smooth="no"/>
      <point x="1121" y="148"/>
      <point x="1113" y="130"/>
      <point x="1110" y="107" type="curve" smooth="yes"/>
      <point x="1107" y="87"/>
      <point x="1106" y="70"/>
      <point x="1106" y="51" type="curve" smooth="yes"/>
      <point x="1106" y="37"/>
      <point x="1107" y="22"/>
      <point x="1108" y="6" type="curve" smooth="no"/>
      <point x="1069" y="-2"/>
      <point x="1032" y="-8"/>
      <point x="1002" y="-8" type="curve" smooth="yes"/>
      <point x="912" y="-8"/>
      <point x="875" y="39"/>
      <point x="875" y="153" type="curve" smooth="yes"/>
      <point x="875" y="190"/>
      <point x="879" y="233"/>
      <point x="886" y="284" type="curve" smooth="yes"/>
      <point x="976" y="921" type="line" smooth="no"/>
      <point x="627" y="921" type="line" smooth="no"/>
      <point x="602" y="778"/>
      <point x="575" y="647"/>
      <point x="549" y="525" type="curve" smooth="yes"/>
      <point x="504" y="316"/>
      <point x="445" y="86"/>
      <point x="392" y="0" type="curve" smooth="no"/>
      <point x="264" y="0" type="line" smooth="no"/>
      <point x="365" y="178"/>
      <point x="451" y="626"/>
      <point x="499" y="921" type="curve" smooth="no"/>
      <point x="407" y="918"/>
      <point x="343" y="900"/>
      <point x="281" y="860" type="curve" smooth="no"/>
      <point x="286" y="998" type="line" smooth="no"/>
      <point x="344" y="1054"/>
      <point x="427" y="1065"/>
      <point x="561" y="1065" type="curve" smooth="yes"/>
    </contour>
  </outline>
</glyph>
<glyph name="chi" format="1">
  <advance width="1030"/>
  <unicode hex="03c7"/>
  <outline>
    <contour>
      <point x="853" y="1043" type="line" smooth="no"/>
      <point x="1020" y="1043" type="line" smooth="no"/>
      <point x="610" y="524" type="line" smooth="no"/>
      <point x="874" y="0" type="line" smooth="no"/>
      <point x="718" y="0" type="line" smooth="no"/>
      <point x="511" y="417" type="line" smooth="no"/>
      <point x="188" y="0" type="line" smooth="no"/>
      <point x="22" y="0" type="line" smooth="no"/>
      <point x="441" y="528" type="line" smooth="no"/>
      <point x="177" y="1043" type="line" smooth="no"/>
      <point x="343" y="1043" type="line" smooth="no"/>
      <point x="541" y="648" type="line" smooth="no"/>
    </contour>
  </outline>
</glyph>
<glyph name="iotadieresis" format="1">
  <advance width="468"/>
  <unicode hex="03ca"/>
  <outline>
    <contour>
      <point x="281" y="1254" type="line" smooth="no"/>
      <point x="134" y="1254" type="line" smooth="no"/>
      <point x="163" y="1466" type="line" smooth="no"/>
      <point x="311" y="1466" type="line" smooth="no"/>
    </contour>
    <contour>
      <point x="650" y="1254" type="line" smooth="no"/>
      <point x="501" y="1254" type="line" smooth="no"/>
      <point x="531" y="1466" type="line" smooth="no"/>
      <point x="679" y="1466" type="line" smooth="no"/>
    </contour>
    <contour>
      <point x="187" y="640" type="curve" smooth="yes"/>
      <point x="187" y="720"/>
      <point x="239" y="796"/>
      <point x="321" y="796" type="curve" smooth="yes"/>
      <point x="388" y="796"/>
      <point x="419" y="744"/>
      <point x="419" y="687" type="curve" smooth="yes"/>
      <point x="419" y="607"/>
      <point x="366" y="532"/>
      <point x="284" y="532" type="curve" smooth="yes"/>
      <point x="217" y="532"/>
      <point x="187" y="583"/>
    </contour>
  </outline>
</glyph>
<glyph name="afii10023" format="1">
  <advance width="1096"/>
  <unicode hex="0401"/>
  <outline>
    <contour>
      <point x="1046" y="845" type="line" smooth="no"/>
      <point x="1025" y="692" type="line" smooth="no"/>
      <point x="408" y="692" type="line" smooth="no"/>
      <point x="333" y="155" type="line" smooth="no"/>
      <point x="1015" y="155" type="line" smooth="no"/>
      <point x="980" y="0" type="line" smooth="no"/>
      <point x="141" y="0" type="line" smooth="no"/>
      <point x="351" y="1496" type="line" smooth="no"/>
      <point x="1177" y="1496" type="line" smooth="no"/>
      <point x="1142" y="1341" type="line" smooth="no"/>
      <point x="500" y="1341" type="line" smooth="no"/>
      <point x="430" y="845" type="line" smooth="no"/>
    </contour>
    <contour>
      <point x="691" y="1627" type="line" smooth="no"/>
      <point x="544" y="1627" type="line" smooth="no"/>
      <point x="573" y="1839" type="line" smooth="no"/>
      <point x="721" y="1839" type="line" smooth="no"/>
    </contour>
    <contour>
      <point x="1060" y="1627" type="line" smooth="no"/>
      <point x="911" y="1627" type="line" smooth="no"/>
      <point x="941" y="1839" type="line" smooth="no"/>
      <point x="1089" y="1839" type="line" smooth="no"/>
    </contour>
  </outline>
</glyph>
<glyph name="afii10051" format="1">
  <advance width="959"/>
  <unicode hex="0402"/>
  <outline>
    <contour>
      <point x="166" y="1341" type="line" smooth="no"/>
      <point x="188" y="1496" type="line" smooth="no"/>
      <point x="1190" y="1496" type="line" smooth="no"/>
      <point x="1169" y="1341" type="line" smooth="no"/>
      <point x="752" y="1341" type="line" smooth="no"/>
      <point x="564" y="0" type="line" smooth="no"/>
      <point x="394" y="0" type="line" smooth="no"/>
      <point x="582" y="1341" type="line" smooth="no"/>
    </contour>
  </outline>
</glyph>
<glyph name="afii10053" format="1">
  <advance width="1238"/>
  <unicode hex="0404"/>
  <outline>
    <contour>
      <point x="348" y="664" type="line" smooth="no"/>
      <point x="347" y="649"/>
      <point x="347" y="635"/>
      <point x="347" y="620" type="curve" smooth="yes"/>
      <point x="347" y="346"/>
      <point x="473" y="129"/>
      <point x="756" y="129" type="curve" smooth="yes"/>
      <point x="898" y="129"/>
      <point x="1036" y="184"/>
      <point x="1122" y="248" type="curve" smooth="no"/>
      <point x="1162" y="113" type="line" smooth="no"/>
      <point x="1054" y="29"/>
      <point x="908" y="-23"/>
      <point x="724" y="-23" type="curve" smooth="yes"/>
      <point x="348" y="-23"/>
      <point x="164" y="234"/>
      <point x="164" y="593" type="curve" smooth="yes"/>
      <point x="164" y="646"/>
      <point x="168" y="700"/>
      <point x="176" y="757" type="curve" smooth="yes"/>
      <point x="235" y="1180"/>
      <point x="508" y="1525"/>
      <point x="947" y="1525" type="curve" smooth="yes"/>
      <point x="1128" y="1525"/>
      <point x="1258" y="1483"/>
      <point x="1338" y="1395" type="curve" smooth="no"/>
      <point x="1263" y="1250" type="line" smooth="no"/>
      <point x="1196" y="1316"/>
      <point x="1081" y="1373"/>
      <point x="941" y="1373" type="curve" smooth="yes"/>
      <point x="599" y="1373"/>
      <point x="425" y="1111"/>
      <point x="367" y="818" type="curve" smooth="no"/>
      <point x="1010" y="818" type="line" smooth="no"/>
      <point x="988" y="664" type="line" smooth="no"/>
    </contour>
  </outline>
</glyph>
<glyph name="uni0409" format="1">
  <advance width="1713"/>
  <unicode hex="0409"/>
  <outline>
    <contour>
      <point x="1221" y="155" type="line" smooth="yes"/>
      <point x="1387" y="155"/>
      <point x="1530" y="277"/>
      <point x="1530" y="486" type="curve" smooth="yes"/>
      <point x="1530" y="630"/>
      <point x="1440" y="717"/>
      <point x="1300" y="717" type="curve" smooth="yes"/>
      <point x="1059" y="717" type="line" smooth="no"/>
      <point x="980" y="155" type="line" smooth="no"/>
    </contour>
    <contour>
      <point x="1707" y="526" type="curve" smooth="yes"/>
      <point x="1707" y="177"/>
      <point x="1493" y="0"/>
      <point x="1199" y="0" type="curve" smooth="yes"/>
      <point x="789" y="0" type="line" smooth="no"/>
      <point x="977" y="1341" type="line" smooth="no"/>
      <point x="621" y="1341" type="line" smooth="no"/>
      <point x="493" y="433" type="line" smooth="yes"/>
      <point x="450" y="125"/>
      <point x="397" y="-26"/>
      <point x="65" y="-26" type="curve" smooth="yes"/>
      <point x="39" y="-26" type="line" smooth="no"/>
      <point x="61" y="131" type="line" smooth="no"/>
      <point x="103" y="131" type="line" smooth="yes"/>
      <point x="271" y="131"/>
      <point x="296" y="236"/>
      <point x="317" y="384" type="curve" smooth="yes"/>
      <point x="473" y="1496" type="line" smooth="no"/>
      <point x="1169" y="1496" type="line" smooth="no"/>
      <point x="1081" y="871" type="line" smooth="no"/>
      <point x="1324" y="871" type="line" smooth="yes"/>
      <point x="1554" y="871"/>
      <point x="1707" y="770"/>
    </contour>
  </outline>
</glyph>
<glyph name="uni0413" format="1">
  <advance width="947"/>
  <unicode hex="0413"/>
  <outline>
    <contour>
      <point x="1131" y="1341" type="line" smooth="no"/>
      <point x="499" y="1341" type="line" smooth="no"/>
      <point x="310" y="0" type="line" smooth="no"/>
      <point x="140" y="0" type="line" smooth="no"/>
      <point x="350" y="1496" type="line" smooth="no"/>
      <point x="1167" y="1496" type="line" smooth="no"/>
    </contour>
  </outline>
</glyph>
<glyph name="uni0414" format="1">
  <advance width="1302"/>
  <unicode hex="0414"/>
  <outline>
    <contour>
      <point x="972" y="152" type="line" smooth="no"/>
      <point x="1141" y="1354" type="line" smooth="no"/>
      <point x="816" y="1354" type="line" smooth="no"/>
      <point x="368" y="152" type="line" smooth="no"/>
    </contour>
    <contour>
      <point x="702" y="1496" type="line" smooth="no"/>
      <point x="1331" y="1496" type="line" smooth="no"/>
      <point x="1142" y="152" type="line" smooth="no"/>
      <point x="1253" y="152" type="line" smooth="no"/>
      <point x="1195" y="-265" type="line" smooth="no"/>
      <point x="1025" y="-265" type="line" smooth="no"/>
      <point x="1062" y="0" type="line" smooth="no"/>
      <point x="183" y="0" type="line" smooth="no"/>
      <point x="146" y="-265" type="line" smooth="no"/>
      <point x="-24" y="-265" type="line" smooth="no"/>
      <point x="35" y="152" type="line" smooth="no"/>
      <point x="186" y="152" type="line" smooth="no"/>
    </contour>
  </outline>
</glyph>
<glyph name="afii10025" format="1">
  <advance width="1074"/>
  <unicode hex="0417"/>
  <outline>
    <contour>
      <point x="516" y="129" type="curve" smooth="yes"/>
      <point x="698" y="129"/>
      <point x="883" y="221"/>
      <point x="883" y="447" type="curve" smooth="yes"/>
      <point x="883" y="570"/>
      <point x="805" y="677"/>
      <point x="599" y="677" type="curve" smooth="yes"/>
      <point x="489" y="677" type="line" smooth="no"/>
      <point x="512" y="837" type="line" smooth="no"/>
      <point x="630" y="837" type="line" smooth="yes"/>
      <point x="836" y="837"/>
      <point x="930" y="978"/>
      <point x="948" y="1113" type="curve" smooth="yes"/>
      <point x="949" y="1123"/>
      <point x="949" y="1133"/>
      <point x="949" y="1143" type="curve" smooth="yes"/>
      <point x="949" y="1291"/>
      <point x="846" y="1372"/>
      <point x="713" y="1372" type="curve" smooth="yes"/>
      <point x="592" y="1372"/>
      <point x="448" y="1323"/>
      <point x="356" y="1270" type="curve" smooth="no"/>
      <point x="313" y="1403" type="line" smooth="no"/>
      <point x="430" y="1488"/>
      <point x="580" y="1524"/>
      <point x="748" y="1524" type="curve" smooth="yes"/>
      <point x="1013" y="1524"/>
      <point x="1121" y="1334"/>
      <point x="1121" y="1179" type="curve" smooth="yes"/>
      <point x="1121" y="1164"/>
      <point x="1120" y="1148"/>
      <point x="1118" y="1134" type="curve" smooth="yes"/>
      <point x="1093" y="955"/>
      <point x="969" y="807"/>
      <point x="841" y="769" type="curve" smooth="no"/>
      <point x="956" y="740"/>
      <point x="1053" y="617"/>
      <point x="1053" y="458" type="curve" smooth="yes"/>
      <point x="1053" y="440"/>
      <point x="1052" y="421"/>
      <point x="1049" y="402" type="curve" smooth="yes"/>
      <point x="1013" y="148"/>
      <point x="826" y="-23"/>
      <point x="500" y="-23" type="curve" smooth="yes"/>
      <point x="316" y="-23"/>
      <point x="180" y="34"/>
      <point x="96" y="103" type="curve" smooth="no"/>
      <point x="175" y="246" type="line" smooth="no"/>
      <point x="246" y="183"/>
      <point x="374" y="129"/>
    </contour>
  </outline>
</glyph>
<glyph name="afii10026" format="1">
  <advance width="1395"/>
  <unicode hex="0418"/>
  <outline>
    <contour>
      <point x="141" y="0" type="line" smooth="no"/>
      <point x="352" y="1497" type="line" smooth="no"/>
      <point x="508" y="1497" type="line" smooth="no"/>
      <point x="334" y="261" type="line" smooth="no"/>
      <point x="648" y="679"/>
      <point x="971" y="1084"/>
      <point x="1288" y="1497" type="curve" smooth="no"/>
      <point x="1473" y="1497" type="line" smooth="no"/>
      <point x="1262" y="0" type="line" smooth="no"/>
      <point x="1108" y="0" type="line" smooth="no"/>
      <point x="1280" y="1230" type="line" smooth="no"/>
      <point x="1175" y="1087" type="line" smooth="no"/>
      <point x="331" y="0" type="line" smooth="no"/>
    </contour>
  </outline>
</glyph>
<glyph name="uni041B" format="1">
  <advance width="1146"/>
  <unicode hex="041b"/>
  <outline>
    <contour>
      <point x="26" y="0" type="line" smooth="no"/>
      <point x="591" y="1496" type="line" smooth="no"/>
      <point x="1223" y="1496" type="line" smooth="no"/>
      <point x="1012" y="0" type="line" smooth="no"/>
      <point x="842" y="0" type="line" smooth="no"/>
      <point x="1031" y="1341" type="line" smooth="no"/>
      <point x="709" y="1341" type="line" smooth="no"/>
      <point x="205" y="0" type="line" smooth="no"/>
    </contour>
  </outline>
</glyph>
<glyph name="uni041C" format="1">
  <advance width="1785"/>
  <unicode hex="041c"/>
  <outline>
    <contour>
      <point x="469" y="1181" type="line" smooth="no"/>
      <point x="303" y="0" type="line" smooth="no"/>
      <point x="143" y="0" type="line" smooth="no"/>
      <point x="353" y="1496" type="line" smooth="no"/>
      <point x="537" y="1496" type="line" smooth="no"/>
      <point x="895" y="347" type="line" smooth="no"/>
      <point x="1571" y="1496" type="line" smooth="no"/>
      <point x="1746" y="1496" type="line" smooth="no"/>
      <point x="1536" y="0" type="line" smooth="no"/>
      <point x="1377" y="0" type="line" smooth="no"/>
      <point x="1542" y="1175" type="line" smooth="no"/>
      <point x="963" y="183" type="line" smooth="no"/>
      <point x="776" y="183" type="line" smooth="no"/>
    </contour>
  </outline>
</glyph>
<glyph name="uni0420" format="1">
  <advance width="1074"/>
  <unicode hex="0420"/>
  <outline>
    <contour>
      <point x="719" y="779" type="line" smooth="yes"/>
      <point x="897" y="779"/>
      <point x="999" y="889"/>
      <point x="1024" y="1066" type="curve" smooth="yes"/>
      <point x="1027" y="1087"/>
      <point x="1029" y="1108"/>
      <point x="1029" y="1127" type="curve" smooth="yes"/>
      <point x="1029" y="1266"/>
      <point x="949" y="1341"/>
      <point x="798" y="1341" type="curve" smooth="yes"/>
      <point x="500" y="1341" type="line" smooth="no"/>
      <point x="421" y="779" type="line" smooth="no"/>
    </contour>
    <contour>
      <point x="399" y="626" type="line" smooth="no"/>
      <point x="311" y="0" type="line" smooth="no"/>
      <point x="141" y="0" type="line" smooth="no"/>
      <point x="351" y="1496" type="line" smooth="no"/>
      <point x="816" y="1496" type="line" smooth="yes"/>
      <point x="1054" y="1496"/>
      <point x="1204" y="1386"/>
      <point x="1204" y="1157" type="curve" smooth="yes"/>
      <point x="1204" y="1130"/>
      <point x="1201" y="1100"/>
      <point x="1197" y="1069" type="curve" smooth="yes"/>
      <point x="1153" y="754"/>
      <point x="955" y="626"/>
      <point x="696" y="626" type="curve" smooth="yes"/>
    </contour>
  </outline>
</glyph>
<glyph name="uni0422" format="1">
  <advance width="1026"/>
  <unicode hex="0422"/>
  <outline>
    <contour>
      <point x="186" y="1341" type="line" smooth="no"/>
      <point x="207" y="1496" type="line" smooth="no"/>
      <point x="1210" y="1496" type="line" smooth="no"/>
      <point x="1188" y="1341" type="line" smooth="no"/>
      <point x="771" y="1341" type="line" smooth="no"/>
      <point x="583" y="0" type="line" smooth="no"/>
      <point x="413" y="0" type="line" smooth="no"/>
      <point x="601" y="1341" type="line" smooth="no"/>
    </contour>
  </outline>
</glyph>
<glyph name="afii10040" format="1">
  <advance width="1401"/>
  <unicode hex="0426"/>
  <outline>
    <contour>
      <point x="1091" y="155" type="line" smooth="no"/>
      <point x="1279" y="1496" type="line" smooth="no"/>
      <point x="1449" y="1496" type="line" smooth="no"/>
      <point x="1261" y="155" type="line" smooth="no"/>
      <point x="1372" y="155" type="line" smooth="no"/>
      <point x="1313" y="-265" type="line" smooth="no"/>
      <point x="1145" y="-265" type="line" smooth="no"/>
      <point x="1182" y="0" type="line" smooth="no"/>
      <point x="141" y="0" type="line" smooth="no"/>
      <point x="351" y="1496" type="line" smooth="no"/>
      <point x="521" y="1496" type="line" smooth="no"/>
      <point x="333" y="155" type="line" smooth="no"/>
    </contour>
  </outline>
</glyph>
<glyph name="afii10041" format="1">
  <advance width="1162"/>
  <unicode hex="0427"/>
  <outline>
    <contour>
      <point x="983" y="873" type="curve" smooth="yes"/>
      <point x="1070" y="1496" type="line" smooth="no"/>
      <point x="1240" y="1496" type="line" smooth="no"/>
      <point x="1030" y="0" type="line" smooth="no"/>
      <point x="860" y="0" type="line" smooth="no"/>
      <point x="956" y="682" type="line" smooth="no"/>
      <point x="864" y="564"/>
      <point x="708" y="507"/>
      <point x="578" y="507" type="curve" smooth="yes"/>
      <point x="368" y="507"/>
      <point x="241" y="622"/>
      <point x="241" y="832" type="curve" smooth="yes"/>
      <point x="241" y="859"/>
      <point x="243" y="886"/>
      <point x="247" y="916" type="curve" smooth="yes"/>
      <point x="328" y="1496" type="line" smooth="no"/>
      <point x="498" y="1496" type="line" smooth="no"/>
      <point x="431" y="1014" type="line" smooth="yes"/>
      <point x="425" y="975"/>
      <point x="423" y="939"/>
      <point x="423" y="907" type="curve" smooth="yes"/>
      <point x="423" y="744"/>
      <point x="494" y="672"/>
      <point x="638" y="672" type="curve" smooth="yes"/>
      <point x="772" y="672"/>
      <point x="974" y="806"/>
    </contour>
  </outline>
</glyph>
<glyph name="afii10043" format="1">
  <advance width="1635"/>
  <unicode hex="0429"/>
  <outline>
    <contour>
      <point x="1341" y="-265" type="line" smooth="no"/>
      <point x="1378" y="0" type="line" smooth="no"/>
      <point x="141" y="0" type="line" smooth="no"/>
      <point x="351" y="1496" type="line" smooth="no"/>
      <point x="521" y="1496" type="line" smooth="no"/>
      <point x="333" y="155" type="line" smooth="no"/>
      <point x="726" y="155" type="line" smooth="no"/>
      <point x="915" y="1496" type="line" smooth="no"/>
      <point x="1085" y="1496" type="line" smooth="no"/>
      <point x="896" y="155" type="line" smooth="no"/>
      <point x="1290" y="155" type="line" smooth="no"/>
      <point x="1479" y="1496" type="line" smooth="no"/>
      <point x="1649" y="1496" type="line" smooth="no"/>
      <point x="1460" y="155" type="line" smooth="no"/>
      <point x="1570" y="155" type="line" smooth="no"/>
      <point x="1511" y="-265" type="line" smooth="no"/>
    </contour>
  </outline>
</glyph>
<glyph name="uni042A" format="1">
  <advance width="1334"/>
  <unicode hex="042a"/>
  <outline>
    <contour>
      <point x="1165" y="431" type="curve" smooth="yes"/>
      <point x="1168" y="449"/>
      <point x="1169" y="466"/>
      <point x="1169" y="482" type="curve" smooth="yes"/>
      <point x="1169" y="614"/>
      <point x="1083" y="696"/>
      <point x="874" y="696" type="curve" smooth="yes"/>
      <point x="659" y="696" type="line" smooth="no"/>
      <point x="583" y="156" type="line" smooth="no"/>
      <point x="798" y="156" type="line" smooth="yes"/>
      <point x="1029" y="156"/>
      <point x="1140" y="255"/>
    </contour>
    <contour>
      <point x="392" y="0" type="line" smooth="no"/>
      <point x="580" y="1341" type="line" smooth="no"/>
      <point x="222" y="1341" type="line" smooth="no"/>
      <point x="244" y="1496" type="line" smooth="no"/>
      <point x="772" y="1496" type="line" smooth="no"/>
      <point x="681" y="849" type="line" smooth="no"/>
      <point x="878" y="849" type="line" smooth="yes"/>
      <point x="1168" y="849"/>
      <point x="1330" y="742"/>
      <point x="1330" y="511" type="curve" smooth="yes"/>
      <point x="1330" y="485"/>
      <point x="1328" y="457"/>
      <point x="1324" y="428" type="curve" smooth="yes"/>
      <point x="1283" y="139"/>
      <point x="1081" y="0"/>
      <point x="756" y="0" type="curve" smooth="yes"/>
    </contour>
  </outline>
</glyph>
<glyph name="uni042E" format="1">
  <advance width="1918"/>
  <unicode hex="042e"/>
  <outline>
    <contour>
      <point x="1401" y="1373" type="curve" smooth="yes"/>
      <point x="1115" y="1373"/>
      <point x="933" y="1073"/>
      <point x="887" y="746" type="curve" smooth="yes"/>
      <point x="880" y="697"/>
      <point x="877" y="649"/>
      <point x="877" y="603" type="curve" smooth="yes"/>
      <point x="877" y="340"/>
      <point x="989" y="129"/>
      <point x="1234" y="129" type="curve" smooth="yes"/>
      <point x="1521" y="129"/>
      <point x="1703" y="415"/>
      <point x="1750" y="748" type="curve" smooth="yes"/>
      <point x="1757" y="796"/>
      <point x="1760" y="845"/>
      <point x="1760" y="892" type="curve" smooth="yes"/>
      <point x="1760" y="1152"/>
      <point x="1652" y="1373"/>
    </contour>
    <contour>
      <point x="1211" y="-23" type="curve" smooth="yes"/>
      <point x="866" y="-23"/>
      <point x="696" y="252"/>
      <point x="696" y="604" type="curve" smooth="yes"/>
      <point x="696" y="631"/>
      <point x="697" y="658"/>
      <point x="699" y="686" type="curve" smooth="no"/>
      <point x="407" y="686" type="line" smooth="no"/>
      <point x="311" y="0" type="line" smooth="no"/>
      <point x="141" y="0" type="line" smooth="no"/>
      <point x="351" y="1495" type="line" smooth="no"/>
      <point x="521" y="1495" type="line" smooth="no"/>
      <point x="429" y="837" type="line" smooth="no"/>
      <point x="723" y="837" type="line" smooth="no"/>
      <point x="810" y="1240"/>
      <point x="1057" y="1525"/>
      <point x="1420" y="1525" type="curve" smooth="yes"/>
      <point x="1762" y="1525"/>
      <point x="1942" y="1271"/>
      <point x="1942" y="911" type="curve" smooth="yes"/>
      <point x="1942" y="857"/>
      <point x="1938" y="800"/>
      <point x="1930" y="742" type="curve" smooth="yes"/>
      <point x="1871" y="322"/>
      <point x="1605" y="-23"/>
    </contour>
  </outline>
</glyph>
<glyph name="afii10066" format="1">
  <advance width="883"/>
  <unicode hex="0431"/>
  <outline>
    <contour>
      <point x="252" y="1043" type="line" smooth="no"/>
      <point x="877" y="1043" type="line" smooth="no"/>
      <point x="858" y="901" type="line" smooth="no"/>
      <point x="376" y="901" type="line" smooth="no"/>
      <point x="345" y="679" type="line" smooth="no"/>
      <point x="586" y="679" type="line" smooth="yes"/>
      <point x="791" y="679"/>
      <point x="878" y="554"/>
      <point x="878" y="406" type="curve" smooth="yes"/>
      <point x="878" y="388"/>
      <point x="877" y="369"/>
      <point x="874" y="350" type="curve" smooth="yes"/>
      <point x="850" y="179"/>
      <point x="721" y="0"/>
      <point x="491" y="0" type="curve" smooth="yes"/>
      <point x="105" y="0" type="line" smooth="no"/>
    </contour>
    <contour>
      <point x="526" y="134" type="line" smooth="yes"/>
      <point x="645" y="134"/>
      <point x="738" y="272"/>
      <point x="738" y="380" type="curve" smooth="yes"/>
      <point x="738" y="463"/>
      <point x="686" y="543"/>
      <point x="583" y="543" type="curve" smooth="yes"/>
      <point x="326" y="543" type="line" smooth="no"/>
      <point x="268" y="134" type="line" smooth="no"/>
    </contour>
  </outline>
</glyph>
<glyph name="uni0433" format="1">
  <advance width="581"/>
  <unicode hex="0433"/>
  <outline>
    <contour>
      <point x="689" y="901" type="line" smooth="no"/>
      <point x="376" y="901" type="line" smooth="no"/>
      <point x="249" y="0" type="line" smooth="no"/>
      <point x="105" y="0" type="line" smooth="no"/>
      <point x="252" y="1043" type="line" smooth="no"/>
      <point x="709" y="1043" type="line" smooth="no"/>
    </contour>
  </outline>
</glyph>
<glyph name="uni0434" format="1">
  <advance width="950"/>
  <unicode hex="0434"/>
  <outline>
    <contour>
      <point x="270" y="121" type="curve" smooth="no"/>
      <point x="687" y="121" type="line" smooth="no"/>
      <point x="797" y="901" type="line" smooth="no"/>
      <point x="478" y="901" type="line" smooth="no"/>
      <point x="424" y="595" type="line" smooth="no"/>
      <point x="376" y="434"/>
      <point x="324" y="276"/>
    </contour>
    <contour>
      <point x="143" y="-13" type="line" smooth="no"/>
      <point x="107" y="-268" type="line" smooth="no"/>
      <point x="-28" y="-268" type="line" smooth="no"/>
      <point x="26" y="122" type="line" smooth="no"/>
      <point x="109" y="122" type="line" smooth="no"/>
      <point x="194" y="218"/>
      <point x="243" y="422"/>
      <point x="268" y="548" type="curve" smooth="yes"/>
      <point x="365" y="1043" type="line" smooth="no"/>
      <point x="961" y="1043" type="line" smooth="no"/>
      <point x="832" y="121" type="line" smooth="no"/>
      <point x="905" y="121" type="line" smooth="no"/>
      <point x="851" y="-268" type="line" smooth="no"/>
      <point x="712" y="-268" type="line" smooth="no"/>
      <point x="748" y="-13" type="line" smooth="no"/>
    </contour>
  </outline>
</glyph>
<glyph name="afii10072" format="1">
  <advance width="1292"/>
  <unicode hex="0436"/>
  <outline>
    <contour>
      <point x="656" y="563" type="line" smooth="no"/>
      <point x="723" y="1043" type="line" smooth="no"/>
      <point x="864" y="1043" type="line" smooth="no"/>
      <point x="797" y="563" type="line" smooth="no"/>
      <point x="1246" y="1043" type="line" smooth="no"/>
      <point x="1416" y="1043" type="line" smooth="no"/>
      <point x="923" y="534" type="line" smooth="no"/>
      <point x="1278" y="0" type="line" smooth="no"/>
      <point x="1105" y="0" type="line" smooth="no"/>
      <point x="786" y="484" type="line" smooth="no"/>
      <point x="718" y="0" type="line" smooth="no"/>
      <point x="577" y="0" type="line" smooth="no"/>
      <point x="645" y="484" type="line" smooth="no"/>
      <point x="190" y="0" type="line" smooth="no"/>
      <point x="16" y="0" type="line" smooth="no"/>
      <point x="521" y="534" type="line" smooth="no"/>
      <point x="171" y="1043" type="line" smooth="no"/>
      <point x="342" y="1043" type="line" smooth="no"/>
    </contour>
  </outline>
</glyph>
<glyph name="afii10073" format="1">
  <advance width="829"/>
  <unicode hex="0437"/>
  <outline>
    <contour>
      <point x="498" y="604" type="line" smooth="yes"/>
      <point x="625" y="604"/>
      <point x="690" y="699"/>
      <point x="690" y="791" type="curve" smooth="yes"/>
      <point x="690" y="872"/>
      <point x="633" y="931"/>
      <point x="497" y="931" type="curve" smooth="yes"/>
      <point x="397" y="931"/>
      <point x="279" y="886"/>
      <point x="232" y="842" type="curve" smooth="no"/>
      <point x="232" y="842"/>
      <point x="206" y="925"/>
      <point x="198" y="958" type="curve" smooth="no"/>
      <point x="279" y="1041"/>
      <point x="411" y="1069"/>
      <point x="520" y="1069" type="curve" smooth="yes"/>
      <point x="751" y="1069"/>
      <point x="833" y="953"/>
      <point x="833" y="824" type="curve" smooth="yes"/>
      <point x="833" y="809"/>
      <point x="832" y="794"/>
      <point x="830" y="779" type="curve" smooth="yes"/>
      <point x="818" y="690"/>
      <point x="779" y="597"/>
      <point x="653" y="545" type="curve" smooth="no"/>
      <point x="760" y="510"/>
      <point x="792" y="425"/>
      <point x="792" y="336" type="curve" smooth="yes"/>
      <point x="792" y="323"/>
      <point x="791" y="309"/>
      <point x="790" y="296" type="curve" smooth="yes"/>
      <point x="766" y="123"/>
      <point x="636" y="-25"/>
      <point x="363" y="-25" type="curve" smooth="yes"/>
      <point x="254" y="-25"/>
      <point x="131" y="6"/>
      <point x="76" y="86" type="curve" smooth="no"/>
      <point x="100" y="130"/>
      <point x="119" y="151"/>
      <point x="141" y="195" type="curve" smooth="no"/>
      <point x="192" y="142"/>
      <point x="291" y="114"/>
      <point x="394" y="114" type="curve" smooth="yes"/>
      <point x="548" y="114"/>
      <point x="637" y="197"/>
      <point x="652" y="302" type="curve" smooth="yes"/>
      <point x="653" y="310"/>
      <point x="654" y="318"/>
      <point x="654" y="326" type="curve" smooth="yes"/>
      <point x="654" y="402"/>
      <point x="601" y="473"/>
      <point x="480" y="473" type="curve" smooth="yes"/>
      <point x="313" y="473" type="line" smooth="no"/>
      <point x="332" y="604" type="line" smooth="no"/>
    </contour>
  </outline>
</glyph>
<glyph name="afii10076" format="1">
  <advance width="865"/>
  <unicode hex="043a"/>
  <outline>
    <contour>
      <point x="330" y="570" type="line" smooth="no"/>
      <point x="534" y="790" type="line" smooth="yes"/>
      <point x="709" y="978"/>
      <point x="760" y="1055"/>
      <point x="893" y="1055" type="curve" smooth="yes"/>
      <point x="916" y="1055"/>
      <point x="928" y="1050"/>
      <point x="958" y="1043" type="curve" smooth="no"/>
      <point x="936" y="893" type="line" smooth="no"/>
      <point x="913" y="897"/>
      <point x="894" y="901"/>
      <point x="876" y="901" type="curve" smooth="yes"/>
      <point x="794" y="901"/>
      <point x="704" y="759"/>
      <point x="541" y="605" type="curve" smooth="yes"/>
      <point x="441" y="511" type="line" smooth="no"/>
      <point x="855" y="0" type="line" smooth="no"/>
      <point x="661" y="0" type="line" smooth="no"/>
      <point x="312" y="447" type="line" smooth="no"/>
      <point x="249" y="0" type="line" smooth="no"/>
      <point x="105" y="0" type="line" smooth="no"/>
      <point x="252" y="1043" type="line" smooth="no"/>
      <point x="396" y="1043" type="line" smooth="no"/>
    </contour>
  </outline>
</glyph>
<glyph name="uni043C" format="1">
  <advance width="1025"/>
  <unicode hex="043c"/>
  <outline>
    <contour>
      <point x="613" y="366" type="line" smooth="no"/>
      <point x="521" y="366" type="line" smooth="no"/>
      <point x="357" y="770" type="line" smooth="no"/>
      <point x="248" y="0" type="line" smooth="no"/>
      <point x="105" y="0" type="line" smooth="no"/>
      <point x="251" y="1043" type="line" smooth="no"/>
      <point x="378" y="1043" type="line" smooth="no"/>
      <point x="588" y="554" type="line" smooth="no"/>
      <point x="939" y="1043" type="line" smooth="no"/>
      <point x="1064" y="1043" type="line" smooth="no"/>
      <point x="917" y="0" type="line" smooth="no"/>
      <point x="774" y="0" type="line" smooth="no"/>
      <point x="883" y="770" type="line" smooth="no"/>
    </contour>
  </outline>
</glyph>
<glyph name="uni043D" format="1">
  <advance width="973"/>
  <unicode hex="043d"/>
  <outline>
    <contour>
      <point x="252" y="1043" type="line" smooth="no"/>
      <point x="396" y="1043" type="line" smooth="no"/>
      <point x="337" y="623" type="line" smooth="no"/>
      <point x="810" y="623" type="line" smooth="no"/>
      <point x="869" y="1043" type="line" smooth="no"/>
      <point x="1012" y="1043" type="line" smooth="no"/>
      <point x="865" y="0" type="line" smooth="no"/>
      <point x="722" y="0" type="line" smooth="no"/>
      <point x="791" y="488" type="line" smooth="no"/>
      <point x="318" y="488" type="line" smooth="no"/>
      <point x="249" y="0" type="line" smooth="no"/>
      <point x="105" y="0" type="line" smooth="no"/>
    </contour>
  </outline>
</glyph>
<glyph name="uni0440" format="1">
  <advance width="1169"/>
  <unicode hex="0440"/>
  <outline>
    <contour>
      <point x="874" y="621" type="curve" smooth="yes"/>
      <point x="874" y="788"/>
      <point x="826" y="944"/>
      <point x="679" y="944" type="curve" smooth="yes"/>
      <point x="448" y="944"/>
      <point x="319" y="684"/>
      <point x="319" y="408" type="curve" smooth="yes"/>
      <point x="319" y="232"/>
      <point x="382" y="102"/>
      <point x="543" y="102" type="curve" smooth="yes"/>
      <point x="765" y="102"/>
      <point x="874" y="381"/>
    </contour>
    <contour>
      <point x="704" y="1070" type="curve" smooth="yes"/>
      <point x="899" y="1070"/>
      <point x="1022" y="902"/>
      <point x="1022" y="654" type="curve" smooth="yes"/>
      <point x="1022" y="302"/>
      <point x="828" y="-25"/>
      <point x="543" y="-25" type="curve" smooth="yes"/>
      <point x="423" y="-25"/>
      <point x="326" y="32"/>
      <point x="279" y="157" type="curve" smooth="no"/>
      <point x="195" y="-437" type="line" smooth="no"/>
      <point x="48" y="-459" type="line" smooth="no"/>
      <point x="257" y="1043" type="line" smooth="no"/>
      <point x="379" y="1043" type="line" smooth="no"/>
      <point x="381" y="927" type="line" smooth="no"/>
      <point x="473" y="1013"/>
      <point x="578" y="1070"/>
    </contour>
  </outline>
</glyph>
<glyph name="uni0441" format="1">
  <advance width="961"/>
  <unicode hex="0441"/>
  <outline>
    <contour>
      <point x="672" y="1069" type="curve" smooth="yes"/>
      <point x="782" y="1069"/>
      <point x="869" y="1033"/>
      <point x="914" y="974" type="curve" smooth="no"/>
      <point x="862" y="860" type="line" smooth="no"/>
      <point x="798" y="922"/>
      <point x="722" y="944"/>
      <point x="651" y="944" type="curve" smooth="yes"/>
      <point x="461" y="944"/>
      <point x="284" y="718"/>
      <point x="284" y="433" type="curve" smooth="yes"/>
      <point x="284" y="237"/>
      <point x="383" y="102"/>
      <point x="547" y="102" type="curve" smooth="yes"/>
      <point x="632" y="102"/>
      <point x="711" y="144"/>
      <point x="769" y="190" type="curve" smooth="no"/>
      <point x="789" y="75" type="line" smooth="no"/>
      <point x="718" y="8"/>
      <point x="614" y="-25"/>
      <point x="521" y="-25" type="curve" smooth="yes"/>
      <point x="265" y="-25"/>
      <point x="136" y="172"/>
      <point x="136" y="417" type="curve" smooth="yes"/>
      <point x="136" y="765"/>
      <point x="368" y="1069"/>
    </contour>
  </outline>
</glyph>
<glyph name="uni0443" format="1">
  <advance width="944"/>
  <unicode hex="0443"/>
  <outline>
    <contour>
      <point x="500" y="184" type="line" smooth="no"/>
      <point x="883" y="1043" type="line" smooth="no"/>
      <point x="1039" y="1043" type="line" smooth="no"/>
      <point x="560" y="6" type="line" smooth="yes"/>
      <point x="417" y="-302"/>
      <point x="406" y="-410"/>
      <point x="96" y="-410" type="curve" smooth="yes"/>
      <point x="47" y="-410" type="line" smooth="no"/>
      <point x="48" y="-245" type="line" smooth="no"/>
      <point x="111" y="-245" type="line" smooth="yes"/>
      <point x="289" y="-245"/>
      <point x="295" y="-211"/>
      <point x="393" y="19" type="curve" smooth="no"/>
      <point x="187" y="1043" type="line" smooth="no"/>
      <point x="346" y="1043" type="line" smooth="no"/>
    </contour>
  </outline>
</glyph>
<glyph name="uni0444" format="1">
  <advance width="1220"/>
  <unicode hex="0444"/>
  <outline>
    <contour>
      <point x="548" y="934" type="curve" smooth="yes"/>
      <point x="403" y="934"/>
      <point x="298" y="675"/>
      <point x="298" y="443" type="curve" smooth="yes"/>
      <point x="298" y="292"/>
      <point x="345" y="168"/>
      <point x="443" y="168" type="curve" smooth="yes"/>
      <point x="480" y="168"/>
      <point x="521" y="174"/>
      <point x="565" y="196" type="curve" smooth="no"/>
      <point x="664" y="906" type="line" smooth="no"/>
      <point x="624" y="931"/>
      <point x="585" y="934"/>
    </contour>
    <contour>
      <point x="821" y="168" type="curve" smooth="yes"/>
      <point x="965" y="168"/>
      <point x="1077" y="437"/>
      <point x="1077" y="667" type="curve" smooth="yes"/>
      <point x="1077" y="817"/>
      <point x="1029" y="934"/>
      <point x="931" y="934" type="curve" smooth="yes"/>
      <point x="892" y="934"/>
      <point x="854" y="927"/>
      <point x="807" y="902" type="curve" smooth="no"/>
      <point x="708" y="198" type="line" smooth="no"/>
      <point x="746" y="173"/>
      <point x="784" y="168"/>
    </contour>
    <contour>
      <point x="148" y="439" type="curve" smooth="yes"/>
      <point x="148" y="775"/>
      <point x="337" y="1070"/>
      <point x="567" y="1070" type="curve" smooth="yes"/>
      <point x="604" y="1070"/>
      <point x="645" y="1058"/>
      <point x="683" y="1039" type="curve" smooth="no"/>
      <point x="721" y="1312" type="line" smooth="no"/>
      <point x="865" y="1312" type="line" smooth="no"/>
      <point x="826" y="1039" type="line" smooth="no"/>
      <point x="869" y="1058"/>
      <point x="911" y="1070"/>
      <point x="950" y="1070" type="curve" smooth="yes"/>
      <point x="1124" y="1070"/>
      <point x="1225" y="904"/>
      <point x="1225" y="676" type="curve" smooth="yes"/>
      <point x="1225" y="343"/>
      <point x="1030" y="32"/>
      <point x="805" y="32" type="curve" smooth="yes"/>
      <point x="766" y="32"/>
      <point x="726" y="38"/>
      <point x="688" y="57" type="curve" smooth="no"/>
      <point x="653" y="-195" type="line" smooth="no"/>
      <point x="510" y="-195" type="line" smooth="no"/>
      <point x="545" y="57" type="line" smooth="no"/>
      <point x="502" y="38"/>
      <point x="459" y="32"/>
      <point x="420" y="32" type="curve" smooth="yes"/>
      <point x="249" y="32"/>
      <point x="148" y="209"/>
    </contour>
  </outline>
</glyph>
<glyph name="uni0445" format="1">
  <advance width="1030"/>
  <unicode hex="0445"/>
  <outline>
    <contour>
      <point x="853" y="1043" type="line" smooth="no"/>
      <point x="1020" y="1043" type="line" smooth="no"/>
      <point x="610" y="524" type="line" smooth="no"/>
      <point x="874" y="0" type="line" smooth="no"/>
      <point x="718" y="0" type="line" smooth="no"/>
      <point x="511" y="417" type="line" smooth="no"/>
      <point x="188" y="0" type="line" smooth="no"/>
      <point x="22" y="0" type="line" smooth="no"/>
      <point x="441" y="528" type="line" smooth="no"/>
      <point x="177" y="1043" type="line" smooth="no"/>
      <point x="343" y="1043" type="line" smooth="no"/>
      <point x="541" y="648" type="line" smooth="no"/>
    </contour>
  </outline>
</glyph>
<glyph name="afii10088" format="1">
  <advance width="963"/>
  <unicode hex="0446"/>
  <outline>
    <contour>
      <point x="789" y="-12" type="line" smooth="no"/>
      <point x="116" y="-12" type="line" smooth="no"/>
      <point x="264" y="1043" type="line" smooth="no"/>
      <point x="408" y="1043" type="line" smooth="no"/>
      <point x="278" y="122" type="line" smooth="no"/>
      <point x="702" y="122" type="line" smooth="no"/>
      <point x="831" y="1043" type="line" smooth="no"/>
      <point x="975" y="1043" type="line" smooth="no"/>
      <point x="846" y="124" type="line" smooth="no"/>
      <point x="930" y="124" type="line" smooth="no"/>
      <point x="875" y="-269" type="line" smooth="no"/>
      <point x="762" y="-269" type="line" smooth="no"/>
    </contour>
  </outline>
</glyph>
<glyph name="afii10095" format="1">
  <advance width="867"/>
  <unicode hex="044d"/>
  <outline>
    <contour>
      <point x="325" y="-25" type="curve" smooth="yes"/>
      <point x="206" y="-25"/>
      <point x="110" y="11"/>
      <point x="60" y="70" type="curve" smooth="no"/>
      <point x="116" y="189" type="line" smooth="no"/>
      <point x="188" y="137"/>
      <point x="261" y="113"/>
      <point x="336" y="113" type="curve" smooth="yes"/>
      <point x="514" y="113"/>
      <point x="651" y="247"/>
      <point x="699" y="450" type="curve" smooth="no"/>
      <point x="301" y="450" type="line" smooth="no"/>
      <point x="321" y="592" type="line" smooth="no"/>
      <point x="719" y="592" type="line" smooth="no"/>
      <point x="720" y="603"/>
      <point x="720" y="614"/>
      <point x="720" y="624" type="curve" smooth="yes"/>
      <point x="720" y="810"/>
      <point x="635" y="931"/>
      <point x="450" y="931" type="curve" smooth="yes"/>
      <point x="357" y="931"/>
      <point x="272" y="893"/>
      <point x="209" y="853" type="curve" smooth="no"/>
      <point x="185" y="969" type="line" smooth="no"/>
      <point x="261" y="1036"/>
      <point x="375" y="1069"/>
      <point x="476" y="1069" type="curve" smooth="yes"/>
      <point x="747" y="1069"/>
      <point x="867" y="874"/>
      <point x="867" y="631" type="curve" smooth="yes"/>
      <point x="867" y="594"/>
      <point x="864" y="556"/>
      <point x="859" y="518" type="curve" smooth="yes"/>
      <point x="819" y="236"/>
      <point x="630" y="-25"/>
    </contour>
  </outline>
</glyph>
<glyph name="afii10099" format="1">
  <advance width="621"/>
  <unicode hex="0452"/>
  <outline>
    <contour>
      <point x="119" y="0" type="line" smooth="no"/>
      <point x="150" y="127" type="line" smooth="no"/>
      <point x="770" y="127" type="line" smooth="no"/>
      <point x="740" y="0" type="line" smooth="no"/>
    </contour>
  </outline>
</glyph>
<glyph name="uni0456" format="1">
  <advance width="443"/>
  <unicode hex="0456"/>
  <outline>
    <contour>
      <point x="501" y="1490" type="line" smooth="no"/>
      <point x="473" y="1292" type="line" smooth="no"/>
      <point x="328" y="1292" type="line" smooth="no"/>
      <point x="356" y="1490" type="line" smooth="no"/>
    </contour>
    <contour>
      <point x="446" y="1098" type="line" smooth="no"/>
      <point x="291" y="0" type="line" smooth="no"/>
      <point x="147" y="0" type="line" smooth="no"/>
      <point x="301" y="1098" type="line" smooth="no"/>
    </contour>
  </outline>
</glyph>
<glyph name="afii10104" format="1">
  <advance width="430"/>
  <unicode hex="0457"/>
  <outline>
    <contour>
      <point x="261" y="1254" type="line" smooth="no"/>
      <point x="114" y="1254" type="line" smooth="no"/>
      <point x="143" y="1466" type="line" smooth="no"/>
      <point x="291" y="1466" type="line" smooth="no"/>
    </contour>
    <contour>
      <point x="630" y="1254" type="line" smooth="no"/>
      <point x="481" y="1254" type="line" smooth="no"/>
      <point x="511" y="1466" type="line" smooth="no"/>
      <point x="659" y="1466" type="line" smooth="no"/>
    </contour>
    <contour>
      <point x="415" y="1043" type="line" smooth="no"/>
      <point x="268" y="0" type="line" smooth="no"/>
      <point x="124" y="0" type="line" smooth="no"/>
      <point x="270" y="1043" type="line" smooth="no"/>
    </contour>
  </outline>
</glyph>
<glyph name="afii10105" format="1">
  <advance width="445"/>
  <unicode hex="0458"/>
  <outline>
    <contour>
      <point x="489" y="1496" type="line" smooth="no"/>
      <point x="461" y="1298" type="line" smooth="no"/>
      <point x="317" y="1298" type="line" smooth="no"/>
      <point x="344" y="1496" type="line" smooth="no"/>
    </contour>
    <contour>
      <point x="433" y="1098" type="line" smooth="no"/>
      <point x="259" y="-139" type="line" smooth="yes"/>
      <point x="221" y="-407"/>
      <point x="157" y="-502"/>
      <point x="-77" y="-502" type="curve" smooth="yes"/>
      <point x="-122" y="-502" type="line" smooth="no"/>
      <point x="-120" y="-351" type="line" smooth="no"/>
      <point x="-75" y="-351" type="line" smooth="yes"/>
      <point x="81" y="-351"/>
      <point x="94" y="-286"/>
      <point x="117" y="-121" type="curve" smooth="yes"/>
      <point x="289" y="1098" type="line" smooth="no"/>
    </contour>
  </outline>
</glyph>
<glyph name="afii10107" format="1">
  <advance width="1404"/>
  <unicode hex="045a"/>
  <outline>
    <contour>
      <point x="252" y="1043" type="line" smooth="no"/>
      <point x="396" y="1043" type="line" smooth="no"/>
      <point x="337" y="626" type="line" smooth="no"/>
      <point x="751" y="626" type="line" smooth="no"/>
      <point x="810" y="1043" type="line" smooth="no"/>
      <point x="953" y="1043" type="line" smooth="no"/>
      <point x="900" y="671" type="line" smooth="no"/>
      <point x="1078" y="671" type="line" smooth="yes"/>
      <point x="1280" y="671"/>
      <point x="1360" y="551"/>
      <point x="1360" y="405" type="curve" smooth="yes"/>
      <point x="1360" y="385"/>
      <point x="1359" y="365"/>
      <point x="1356" y="344" type="curve" smooth="yes"/>
      <point x="1332" y="171"/>
      <point x="1219" y="0"/>
      <point x="990" y="0" type="curve" smooth="yes"/>
      <point x="663" y="0" type="line" smooth="no"/>
      <point x="732" y="491" type="line" smooth="no"/>
      <point x="318" y="491" type="line" smooth="no"/>
      <point x="249" y="0" type="line" smooth="no"/>
      <point x="105" y="0" type="line" smooth="no"/>
    </contour>
    <contour>
      <point x="1030" y="134" type="line" smooth="yes"/>
      <point x="1151" y="134"/>
      <point x="1222" y="269"/>
      <point x="1222" y="381" type="curve" smooth="yes"/>
      <point x="1222" y="462"/>
      <point x="1180" y="535"/>
      <point x="1080" y="535" type="curve" smooth="yes"/>
      <point x="881" y="535" type="line" smooth="no"/>
      <point x="825" y="134" type="line" smooth="no"/>
    </contour>
  </outline>
</glyph>
<glyph name="afii10110" format="1">
  <advance width="1095"/>
  <unicode hex="045e"/>
  <outline>
    <contour>
      <point x="692" y="1226" type="curve" smooth="yes"/>
      <point x="587" y="1226"/>
      <point x="491" y="1297"/>
      <point x="491" y="1437" type="curve" smooth="yes"/>
      <point x="491" y="1452"/>
      <point x="492" y="1467"/>
      <point x="494" y="1484" type="curve" smooth="no"/>
      <point x="605" y="1484" type="line" smooth="no"/>
      <point x="604" y="1474"/>
      <point x="603" y="1463"/>
      <point x="603" y="1454" type="curve" smooth="yes"/>
      <point x="603" y="1378"/>
      <point x="648" y="1343"/>
      <point x="709" y="1343" type="curve" smooth="yes"/>
      <point x="777" y="1343"/>
      <point x="842" y="1388"/>
      <point x="855" y="1484" type="curve" smooth="no"/>
      <point x="968" y="1484" type="line" smooth="no"/>
      <point x="944" y="1312"/>
      <point x="809" y="1226"/>
    </contour>
    <contour>
      <point x="500" y="184" type="line" smooth="no"/>
      <point x="883" y="1043" type="line" smooth="no"/>
      <point x="1039" y="1043" type="line" smooth="no"/>
      <point x="560" y="6" type="line" smooth="yes"/>
      <point x="417" y="-302"/>
      <point x="406" y="-410"/>
      <point x="96" y="-410" type="curve" smooth="yes"/>
      <point x="47" y="-410" type="line" smooth="no"/>
      <point x="48" y="-245" type="line" smooth="no"/>
      <point x="111" y="-245" type="line" smooth="yes"/>
      <point x="289" y="-245"/>
      <point x="295" y="-211"/>
      <point x="393" y="19" type="curve" smooth="no"/>
      <point x="187" y="1043" type="line" smooth="no"/>
      <point x="346" y="1043" type="line" smooth="no"/>
    </contour>
  </outline>
</glyph>
<glyph name="uni1E02" format="1">
  <advance width="1287"/>
  <unicode hex="1e02"/>
  <outline>
    <contour>
      <point x="412" y="716" type="line" smooth="no"/>
      <point x="331" y="139" type="line" smooth="no"/>
      <point x="623" y="139" type="line" smooth="yes"/>
      <point x="866" y="139"/>
      <point x="1005" y="227"/>
      <point x="1033" y="428" type="curve" smooth="yes"/>
      <point x="1036" y="448"/>
      <point x="1037" y="466"/>
      <point x="1037" y="484" type="curve" smooth="yes"/>
      <point x="1037" y="636"/>
      <point x="938" y="716"/>
      <point x="751" y="716" type="curve" smooth="yes"/>
    </contour>
    <contour>
      <point x="501" y="1352" type="line" smooth="no"/>
      <point x="430" y="850" type="line" smooth="no"/>
      <point x="760" y="850" type="line" smooth="yes"/>
      <point x="889" y="850"/>
      <point x="1032" y="885"/>
      <point x="1062" y="1096" type="curve" smooth="yes"/>
      <point x="1065" y="1116"/>
      <point x="1066" y="1135"/>
      <point x="1066" y="1152" type="curve" smooth="yes"/>
      <point x="1066" y="1326"/>
      <point x="924" y="1352"/>
      <point x="718" y="1352" type="curve" smooth="yes"/>
    </contour>
    <contour>
      <point x="141" y="0" type="line" smooth="no"/>
      <point x="351" y="1496" type="line" smooth="no"/>
      <point x="762" y="1496" type="line" smooth="yes"/>
      <point x="1073" y="1496"/>
      <point x="1250" y="1412"/>
      <point x="1250" y="1196" type="curve" smooth="yes"/>
      <point x="1250" y="1176"/>
      <point x="1248" y="1154"/>
      <point x="1245" y="1131" type="curve" smooth="yes"/>
      <point x="1225" y="988"/>
      <point x="1147" y="851"/>
      <point x="996" y="801" type="curve" smooth="no"/>
      <point x="1147" y="766"/>
      <point x="1209" y="630"/>
      <point x="1209" y="491" type="curve" smooth="yes"/>
      <point x="1209" y="469"/>
      <point x="1208" y="447"/>
      <point x="1205" y="426" type="curve" smooth="yes"/>
      <point x="1168" y="163"/>
      <point x="1000" y="0"/>
      <point x="634" y="0" type="curve" smooth="yes"/>
    </contour>
    <contour>
      <point x="790" y="1739" type="curve" smooth="yes"/>
      <point x="790" y="1819"/>
      <point x="848" y="1891"/>
      <point x="937" y="1891" type="curve" smooth="yes"/>
      <point x="1013" y="1891"/>
      <point x="1047" y="1838"/>
      <point x="1047" y="1780" type="curve" smooth="yes"/>
      <point x="1047" y="1700"/>
      <point x="990" y="1627"/>
      <point x="900" y="1627" type="curve" smooth="yes"/>
      <point x="825" y="1627"/>
      <point x="790" y="1680"/>
    </contour>
  </outline>
</glyph>
<glyph name="uni1E1F" format="1">
  <advance width="621"/>
  <unicode hex="1e1f"/>
  <outline>
    <contour>
      <point x="166" y="925" type="line" smooth="no"/>
      <point x="182" y="1043" type="line" smooth="no"/>
      <point x="320" y="1043" type="line" smooth="no"/>
      <point x="326" y="1079" type="line" smooth="no"/>
      <point x="382" y="1445"/>
      <point x="470" y="1536"/>
      <point x="696" y="1536" type="curve" smooth="yes"/>
      <point x="758" y="1536" type="line" smooth="no"/>
      <point x="758" y="1408" type="line" smooth="no"/>
      <point x="677" y="1408" type="line" smooth="yes"/>
      <point x="515" y="1408"/>
      <point x="502" y="1291"/>
      <point x="464" y="1043" type="curve" smooth="no"/>
      <point x="677" y="1043" type="line" smooth="no"/>
      <point x="661" y="925" type="line" smooth="no"/>
      <point x="448" y="925" type="line" smooth="no"/>
      <point x="318" y="0" type="line" smooth="no"/>
      <point x="174" y="0" type="line" smooth="no"/>
      <point x="304" y="925" type="line" smooth="no"/>
    </contour>
    <contour>
      <point x="457" y="1750" type="curve" smooth="yes"/>
      <point x="457" y="1830"/>
      <point x="515" y="1902"/>
      <point x="604" y="1902" type="curve" smooth="yes"/>
      <point x="680" y="1902"/>
      <point x="714" y="1849"/>
      <point x="714" y="1791" type="curve" smooth="yes"/>
      <point x="714" y="1711"/>
      <point x="657" y="1638"/>
      <point x="567" y="1638" type="curve" smooth="yes"/>
      <point x="492" y="1638"/>
      <point x="457" y="1691"/>
    </contour>
  </outline>
</glyph>
<glyph name="uni1E40" format="1">
  <advance width="1785"/>
  <unicode hex="1e40"/>
  <outline>
    <contour>
      <point x="469" y="1181" type="line" smooth="no"/>
      <point x="303" y="0" type="line" smooth="no"/>
      <point x="143" y="0" type="line" smooth="no"/>
      <point x="353" y="1496" type="line" smooth="no"/>
      <point x="537" y="1496" type="line" smooth="no"/>
      <point x="895" y="347" type="line" smooth="no"/>
      <point x="1571" y="1496" type="line" smooth="no"/>
      <point x="1746" y="1496" type="line" smooth="no"/>
      <point x="1536" y="0" type="line" smooth="no"/>
      <point x="1377" y="0" type="line" smooth="no"/>
      <point x="1542" y="1175" type="line" smooth="no"/>
      <point x="963" y="183" type="line" smooth="no"/>
      <point x="776" y="183" type="line" smooth="no"/>
    </contour>
    <contour>
      <point x="1003" y="1739" type="curve" smooth="yes"/>
      <point x="1003" y="1819"/>
      <point x="1061" y="1891"/>
      <point x="1150" y="1891" type="curve" smooth="yes"/>
      <point x="1226" y="1891"/>
      <point x="1260" y="1838"/>
      <point x="1260" y="1780" type="curve" smooth="yes"/>
      <point x="1260" y="1700"/>
      <point x="1203" y="1627"/>
      <point x="1113" y="1627" type="curve" smooth="yes"/>
      <point x="1038" y="1627"/>
      <point x="1003" y="1680"/>
    </contour>
  </outline>
</glyph>
<glyph name="uni1E41" format="1">
  <advance width="1777"/>
  <unicode hex="1e41"/>
  <outline>
    <contour>
      <point x="1537" y="787" type="curve" smooth="yes"/>
      <point x="1537" y="749"/>
      <point x="1534" y="707"/>
      <point x="1528" y="663" type="curve" smooth="yes"/>
      <point x="1435" y="0" type="line" smooth="no"/>
      <point x="1293" y="0" type="line" smooth="no"/>
      <point x="1369" y="541" type="line" smooth="yes"/>
      <point x="1381" y="623"/>
      <point x="1390" y="695"/>
      <point x="1390" y="753" type="curve" smooth="yes"/>
      <point x="1390" y="874"/>
      <point x="1359" y="944"/>
      <point x="1254" y="944" type="curve" smooth="yes"/>
      <point x="1136" y="944"/>
      <point x="1022" y="854"/>
      <point x="959" y="720" type="curve" smooth="no"/>
      <point x="857" y="0" type="line" smooth="no"/>
      <point x="714" y="0" type="line" smooth="no"/>
      <point x="800" y="604" type="line" smooth="yes"/>
      <point x="808" y="661"/>
      <point x="813" y="713"/>
      <point x="813" y="758" type="curve" smooth="yes"/>
      <point x="813" y="874"/>
      <point x="776" y="944"/>
      <point x="669" y="944" type="curve" smooth="yes"/>
      <point x="524" y="944"/>
      <point x="397" y="840"/>
      <point x="352" y="740" type="curve" smooth="no"/>
      <point x="248" y="0" type="line" smooth="no"/>
      <point x="104" y="0" type="line" smooth="no"/>
      <point x="248" y="1043" type="line" smooth="no"/>
      <point x="372" y="1043" type="line" smooth="no"/>
      <point x="367" y="915" type="line" smooth="no"/>
      <point x="467" y="1020"/>
      <point x="589" y="1069"/>
      <point x="707" y="1069" type="curve" smooth="yes"/>
      <point x="838" y="1069"/>
      <point x="933" y="1004"/>
      <point x="944" y="900" type="curve" smooth="no"/>
      <point x="1030.85" y="998.499"/>
      <point x="1173.03" y="1067.57"/>
      <point x="1296.4" y="1067.57" type="curve" smooth="yes"/>
      <point x="1427.29" y="1067.57"/>
      <point x="1537" y="989.825"/>
    </contour>
    <contour>
      <point x="948" y="1338" type="curve" smooth="yes"/>
      <point x="948" y="1418"/>
      <point x="1006" y="1490"/>
      <point x="1095" y="1490" type="curve" smooth="yes"/>
      <point x="1171" y="1490"/>
      <point x="1205" y="1437"/>
      <point x="1205" y="1379" type="curve" smooth="yes"/>
      <point x="1205" y="1299"/>
      <point x="1148" y="1226"/>
      <point x="1058" y="1226" type="curve" smooth="yes"/>
      <point x="983" y="1226"/>
      <point x="948" y="1279"/>
    </contour>
  </outline>
</glyph>
<glyph name="uni1E56" format="1">
  <advance width="1141"/>
  <unicode hex="1e56"/>
  <outline>
    <contour>
      <point x="662" y="778" type="curve" smooth="yes"/>
      <point x="977" y="778"/>
      <point x="1025" y="941"/>
      <point x="1046" y="1090" type="curve" smooth="yes"/>
      <point x="1048" y="1106"/>
      <point x="1049" y="1121"/>
      <point x="1049" y="1136" type="curve" smooth="yes"/>
      <point x="1049" y="1279"/>
      <point x="941" y="1337"/>
      <point x="785" y="1337" type="curve" smooth="yes"/>
      <point x="498" y="1337" type="line" smooth="no"/>
      <point x="420" y="780" type="line" smooth="no"/>
      <point x="420" y="780"/>
      <point x="599" y="778"/>
    </contour>
    <contour>
      <point x="310" y="0" type="line" smooth="no"/>
      <point x="140" y="0" type="line" smooth="no"/>
      <point x="350" y="1496" type="line" smooth="no"/>
      <point x="804" y="1496" type="line" smooth="yes"/>
      <point x="1047" y="1496"/>
      <point x="1226" y="1402"/>
      <point x="1226" y="1168" type="curve" smooth="yes"/>
      <point x="1226" y="1144"/>
      <point x="1224" y="1119"/>
      <point x="1220" y="1093" type="curve" smooth="yes"/>
      <point x="1181" y="815"/>
      <point x="1041" y="625"/>
      <point x="626" y="625" type="curve" smooth="yes"/>
      <point x="568" y="625"/>
      <point x="470" y="631"/>
      <point x="400" y="638" type="curve" smooth="no"/>
    </contour>
    <contour>
      <point x="741" y="1739" type="curve" smooth="yes"/>
      <point x="741" y="1819"/>
      <point x="799" y="1891"/>
      <point x="888" y="1891" type="curve" smooth="yes"/>
      <point x="964" y="1891"/>
      <point x="998" y="1838"/>
      <point x="998" y="1780" type="curve" smooth="yes"/>
      <point x="998" y="1700"/>
      <point x="941" y="1627"/>
      <point x="851" y="1627" type="curve" smooth="yes"/>
      <point x="776" y="1627"/>
      <point x="741" y="1680"/>
    </contour>
  </outline>
</glyph>
<glyph name="Wgrave" format="1">
  <advance width="2131"/>
  <unicode hex="1e80"/>
  <outline>
    <contour>
      <point x="1465" y="195" type="line" smooth="no"/>
      <point x="2053" y="1496" type="line" smooth="no"/>
      <point x="2227" y="1496" type="line" smooth="no"/>
      <point x="1535" y="0" type="line" smooth="no"/>
      <point x="1339" y="0" type="line" smooth="no"/>
      <point x="1185" y="1225" type="line" smooth="no"/>
      <point x="641" y="0" type="line" smooth="no"/>
      <point x="447" y="0" type="line" smooth="no"/>
      <point x="184" y="1496" type="line" smooth="no"/>
      <point x="360" y="1496" type="line" smooth="no"/>
      <point x="577" y="197" type="line" smooth="no"/>
      <point x="1115" y="1442" type="line" smooth="no"/>
      <point x="1310" y="1442" type="line" smooth="no"/>
    </contour>
    <contour>
      <point x="1385" y="1642" type="line" smooth="no"/>
      <point x="1130" y="2029" type="line" smooth="no"/>
      <point x="1370" y="2029" type="line" smooth="no"/>
      <point x="1493" y="1642" type="line" smooth="no"/>
    </contour>
  </outline>
</glyph>
<glyph name="Wacute" format="1">
  <advance width="2131"/>
  <unicode hex="1e82"/>
  <outline>
    <contour>
      <point x="1465" y="195" type="line" smooth="no"/>
      <point x="2053" y="1496" type="line" smooth="no"/>
      <point x="2227" y="1496" type="line" smooth="no"/>
      <point x="1535" y="0" type="line" smooth="no"/>
      <point x="1339" y="0" type="line" smooth="no"/>
      <point x="1185" y="1225" type="line" smooth="no"/>
      <point x="641" y="0" type="line" smooth="no"/>
      <point x="447" y="0" type="line" smooth="no"/>
      <point x="184" y="1496" type="line" smooth="no"/>
      <point x="360" y="1496" type="line" smooth="no"/>
      <point x="577" y="197" type="line" smooth="no"/>
      <point x="1115" y="1442" type="line" smooth="no"/>
      <point x="1310" y="1442" type="line" smooth="no"/>
    </contour>
    <contour>
      <point x="1548" y="2029" type="line" smooth="no"/>
      <point x="1181" y="1641" type="line" smooth="no"/>
      <point x="1072" y="1641" type="line" smooth="no"/>
      <point x="1305" y="2029" type="line" smooth="no"/>
    </contour>
  </outline>
</glyph>
<glyph name="wdieresis" format="1">
  <advance width="1599"/>
  <unicode hex="1e85"/>
  <outline>
    <contour>
      <point x="160" y="1043" type="line" smooth="no"/>
      <point x="309" y="1043" type="line" smooth="no"/>
      <point x="402" y="212" type="line" smooth="no"/>
      <point x="766" y="1043" type="line" smooth="no"/>
      <point x="934" y="1043" type="line" smooth="no"/>
      <point x="1057" y="216" type="line" smooth="no"/>
      <point x="1377" y="1043" type="line" smooth="no"/>
      <point x="1521" y="1043" type="line" smooth="no"/>
      <point x="1092" y="0" type="line" smooth="no"/>
      <point x="950" y="0" type="line" smooth="no"/>
      <point x="825" y="882" type="line" smooth="no"/>
      <point x="439" y="0" type="line" smooth="no"/>
      <point x="294" y="0" type="line" smooth="no"/>
    </contour>
    <contour>
      <point x="847" y="1254" type="line" smooth="no"/>
      <point x="700" y="1254" type="line" smooth="no"/>
      <point x="729" y="1466" type="line" smooth="no"/>
      <point x="877" y="1466" type="line" smooth="no"/>
    </contour>
    <contour>
      <point x="1216" y="1254" type="line" smooth="no"/>
      <point x="1067" y="1254" type="line" smooth="no"/>
      <point x="1097" y="1466" type="line" smooth="no"/>
      <point x="1245" y="1466" type="line" smooth="no"/>
    </contour>
  </outline>
</glyph>
<glyph name="uni1ebd" format="1">
  <advance width="1088"/>
  <unicode hex="1ebd"/>
  <outline>
    <contour>
      <point x="636" y="1069" type="curve" smooth="no"/>
      <point x="838" y="1069"/>
      <point x="952" y="924"/>
      <point x="952" y="686" type="curve" smooth="yes"/>
      <point x="952" y="622"/>
      <point x="941" y="554"/>
      <point x="931" y="494" type="curve" smooth="no"/>
      <point x="288" y="494" type="line" smooth="no"/>
      <point x="284" y="465"/>
      <point x="282" y="438"/>
      <point x="282" y="412" type="curve" smooth="yes"/>
      <point x="282" y="219"/>
      <point x="380" y="102"/>
      <point x="525" y="102" type="curve" smooth="yes"/>
      <point x="659" y="102"/>
      <point x="764" y="164"/>
      <point x="838" y="222" type="curve" smooth="no"/>
      <point x="866" y="107" type="line" smooth="no"/>
      <point x="778" y="30"/>
      <point x="651" y="-25"/>
      <point x="500" y="-25" type="curve" smooth="yes"/>
      <point x="267" y="-25"/>
      <point x="136" y="135"/>
      <point x="136" y="397" type="curve" smooth="yes"/>
      <point x="136" y="772"/>
      <point x="359" y="1060"/>
    </contour>
    <contour>
      <point x="309" y="602" type="curve" smooth="no"/>
      <point x="811" y="602" type="line" smooth="no"/>
      <point x="815" y="632"/>
      <point x="817" y="661"/>
      <point x="817" y="687" type="curve" smooth="yes"/>
      <point x="817" y="857"/>
      <point x="738" y="943"/>
      <point x="617" y="943" type="curve" smooth="yes"/>
      <point x="475" y="943"/>
      <point x="354" y="810"/>
    </contour>
    <contour>
      <point x="513" y="1291" type="curve" smooth="no"/>
      <point x="410" y="1291" type="line" smooth="no"/>
      <point x="431" y="1441"/>
      <point x="502" y="1510"/>
      <point x="602" y="1510" type="curve" smooth="yes"/>
      <point x="718" y="1510"/>
      <point x="828" y="1416"/>
      <point x="863" y="1416" type="curve" smooth="yes"/>
      <point x="865" y="1416" type="line" smooth="no"/>
      <point x="903" y="1419"/>
      <point x="913" y="1468"/>
      <point x="922" y="1510" type="curve" smooth="no"/>
      <point x="1026" y="1510" type="line" smooth="no"/>
      <point x="1007" y="1373"/>
      <point x="955" y="1291"/>
      <point x="856" y="1291" type="curve" smooth="yes"/>
      <point x="772" y="1291"/>
      <point x="652" y="1388"/>
      <point x="579" y="1388" type="curve" smooth="yes"/>
      <point x="577" y="1388" type="line" smooth="no"/>
      <point x="546" y="1387"/>
      <point x="524" y="1346"/>
    </contour>
  </outline>
</glyph>
